<?xml version="1.0" standalone="no"?>
<!DOCTYPE svg PUBLIC "-//W3C//DTD SVG 1.1//EN" "http://www.w3.org/Graphics/SVG/1.1/DTD/svg11.dtd" >
<svg xmlns="http://www.w3.org/2000/svg" xmlns:xlink="http://www.w3.org/1999/xlink" version="1.1">
<metadata>
Created by FontForge 20170812 at Tue May 10 21:38:57 2022
 By www-data
Copyright 2018, 2020 Dalton Maag Ltd. Modification of this file requires prior written permission from Dalton Maag Ltd.
</metadata>
<defs>
<font id="Mokoko-Bold" horiz-adv-x="658" >
  <font-face 
    font-family="Mokoko"
    font-weight="700"
    font-stretch="normal"
    units-per-em="1000"
    panose-1="2 6 7 3 2 2 3 2 2 4"
    ascent="800"
    descent="-200"
    x-height="504"
    cap-height="760"
    bbox="-237 -305 1434 1049"
    underline-thickness="73"
    underline-position="-154"
    unicode-range="U+000D-FEFF"
  />
<missing-glyph horiz-adv-x="500" 
d="M50 750h400v-750h-400v750zM400 50v650h-300v-650h300z" />
    <glyph glyph-name="f_b" unicode="fb" horiz-adv-x="1045" 
d="M96 396h-63v107h63v86q0 104 49.5 155t134.5 51q21 0 40.5 -2.5t35.5 -9.5l-17 -101q-12 5 -35 5q-35 0 -56.5 -27t-21.5 -75v-82h120v-107h-120v-289h89v-107h-282v107h63v289zM469 683h-65v107h195v-364q22 43 68.5 68.5t106.5 25.5q72 0 124.5 -34t81 -94.5
t28.5 -138.5q0 -79 -29 -139.5t-82 -95t-127 -34.5q-64 0 -111.5 26.5t-67.5 71.5v-82h-185v107h63v576zM593 252q0 -69 38.5 -110t102.5 -41q65 0 103 41t38 110t-38 110t-103 41q-64 0 -102.5 -41t-38.5 -110z" />
    <glyph glyph-name="f_f" unicode="ff" horiz-adv-x="700" 
d="M96 397h-63v107h63v82q0 106 50.5 157.5t135.5 51.5q60 0 102 -21l-30 -100q-7 3 -19 6t-26 3q-38 0 -60.5 -25t-22.5 -72v-82h197v84q0 104 50 155.5t132 51.5q41 0 75.5 -10t56.5 -25l-44 -94q-11 8 -26 12.5t-32 4.5q-37 0 -59.5 -24t-22.5 -70v-85h130v-107h-130
v-290h101v-107h-294v107h63v290h-197v-290h62v-107h-255v107h63v290z" />
    <glyph glyph-name="f_h" unicode="fh" horiz-adv-x="1044" 
d="M96 396h-63v107h63v86q0 104 49.5 155t134.5 51q21 0 40.5 -2.5t35.5 -9.5l-17 -101q-12 5 -35 5q-35 0 -56.5 -27t-21.5 -75v-82h120v-107h-120v-289h89v-107h-282v107h63v289zM469 683h-65v107h195v-349q22 39 66 59t99 20q194 0 194 -207v-206h63v-107h-266v107h73
v181q0 115 -108 115q-121 0 -121 -123v-173h74v-107h-267v107h63v576z" />
    <glyph glyph-name="f_i" unicode="fi" horiz-adv-x="666" 
d="M96 397h-63v107h63v82q0 106 50.5 157.5t135.5 51.5q60 0 102 -21l-30 -100q-7 3 -19 6t-26 3q-38 0 -60.5 -25t-22.5 -74v-80h130v-107h-130v-290h78v-107h-271v107h63v290zM577 107h63v-107h-270v107h77v290h-124v107h254v-397zM411 680q0 34 21.5 57t64.5 23t64.5 -23
t21.5 -57t-21.5 -57t-64.5 -23t-64.5 23t-21.5 57z" />
    <glyph glyph-name="f_j" unicode="fj" horiz-adv-x="663" 
d="M226 107h102v-107h-295v107h63v290h-63v107h63v82q0 106 50.5 157.5t135.5 51.5q60 0 102 -21l-30 -100q-7 3 -19 6t-26 3q-38 0 -60.5 -25t-22.5 -74v-80h130v-107h-130v-290zM577 -3q0 -118 -54.5 -180t-151.5 -62q-29 0 -58.5 6.5t-48.5 18.5l39 102q22 -12 50 -12
q41 0 67.5 27.5t26.5 96.5v403h-124v107h254v-507zM413 680q0 34 21.5 57t64.5 23t64.5 -23t21.5 -57t-21.5 -57t-64.5 -23t-64.5 23t-21.5 57z" />
    <glyph glyph-name="f_k" unicode="fk" horiz-adv-x="1003" 
d="M96 396h-63v107h63v86q0 104 49.5 155t134.5 51q21 0 40.5 -2.5t35.5 -9.5l-17 -101q-12 5 -35 5q-35 0 -56.5 -27t-21.5 -75v-82h120v-107h-120v-289h89v-107h-282v107h63v289zM469 683h-65v107h195v-509l168 127h-62v96h251v-107h-60l-131 -100l150 -190h65v-107h-146
l-163 226l-72 -55v-69h74v-102h-267v107h63v576z" />
    <glyph glyph-name="f_l" unicode="fl" horiz-adv-x="690" 
d="M96 396h-63v107h63v86q0 104 49.5 155t134.5 51q21 0 40.5 -2.5t35.5 -9.5l-17 -101q-12 5 -35 5q-35 0 -56.5 -27t-21.5 -75v-82h120v-107h-120v-289h89v-107h-282v107h63v289zM599 107h62v-107h-255v107h63v576h-65v107h195v-683z" />
    <glyph glyph-name="f_t" unicode="ft" horiz-adv-x="736" 
d="M96 397h-63v107h63v82q0 106 50.5 157.5t135.5 51.5q60 0 102 -21l-30 -100q-7 4 -19 6.5t-26 2.5q-38 0 -60.5 -25t-22.5 -74v-80h184v121l130 31v-152h140v-107h-140v-203q0 -90 78 -90q19 0 36 5.5t27 13.5l41 -94q-19 -15 -51.5 -26.5t-75.5 -11.5q-88 0 -136.5 48.5
t-48.5 145.5v212h-184v-290h102v-107h-295v107h63v290z" />
    <glyph glyph-name="t_t" unicode="tt" horiz-adv-x="752" 
d="M100 397h-84v107h84v121l130 31v-152h195v121l130 31v-152h141v-107h-141v-203q0 -90 79 -90q18 0 35 5.5t28 13.5l40 -94q-18 -15 -51 -26.5t-75 -11.5q-88 0 -137 48.5t-49 145.5v212h-195v-203q0 -90 78 -90q18 0 35 5.5t28 13.5l40 -94q-18 -15 -51 -26.5t-75 -11.5
q-88 0 -136.5 48.5t-48.5 145.5v212z" />
    <glyph glyph-name="f_f_b" unicode="ffb" horiz-adv-x="1363" 
d="M787 683h-65v107h195v-361q23 41 69.5 66t105.5 25q72 0 124.5 -34t81 -94.5t28.5 -138.5q0 -79 -29 -139.5t-82 -95t-127 -34.5q-63 0 -110 25.5t-68 68.5v-78h-186v107h63v576zM146.5 743q50.5 52 135.5 52q60 0 102 -21l-30 -100q-7 3 -19 6t-26 3q-38 0 -60.5 -25
t-22.5 -72v-82h197v85q0 104 49 155t134 51q22 0 41 -2.5t36 -7.5l-19 -103q-5 2 -14 3t-19 1q-36 0 -57 -25t-21 -75v-82h120v-107h-120v-290h89v-107h-282v107h63v290h-197v-290h62v-107h-255v107h63v290h-63v107h63v82q0 105 50.5 157zM911 252q0 -69 38.5 -110
t102.5 -41q65 0 103 41t38 110t-38 110t-103 41q-64 0 -102.5 -41t-38.5 -110z" />
    <glyph glyph-name="f_f_h" unicode="ffh" horiz-adv-x="1362" 
d="M96 397h-63v107h63v82q0 105 50.5 157t135.5 52q60 0 102 -21l-30 -100q-7 3 -19 6t-26 3q-38 0 -60.5 -25t-22.5 -72v-82h197v85q0 104 49 155t134 51q22 0 41 -2.5t36 -7.5l-19 -103q-5 2 -14 3t-19 1q-36 0 -57 -25t-21 -75v-82h120v-107h-120v-290h89v-107h-282v107
h63v290h-197v-290h62v-107h-255v107h63v290zM724 0v107h63v576h-65v107h195v-349q22 39 66 59t99 20q195 0 195 -207v-206h62v-107h-266v107h73v181q0 115 -108 115q-121 0 -121 -123v-173h74v-107h-267z" />
    <glyph glyph-name="f_f_i" unicode="ffi" horiz-adv-x="992" 
d="M96 397h-63v107h63v82q0 105 50.5 157t135.5 52q60 0 102 -21l-30 -100q-7 3 -19 6t-26 3q-38 0 -60.5 -25t-22.5 -72v-82h197v82q0 106 50 157.5t135 51.5q62 0 102 -21l-29 -100q-7 3 -19.5 6t-26.5 3q-38 0 -60 -25t-22 -74v-80h130v-107h-130v-290h77v-107h-270v107
h63v290h-197v-290h62v-107h-255v107h63v290zM903 107h63v-107h-270v107h77v290h-124v107h254v-397zM737 680q0 34 21.5 57t64.5 23t64.5 -23t21.5 -57t-21.5 -57t-64.5 -23t-64.5 23t-21.5 57z" />
    <glyph glyph-name="f_f_j" unicode="ffj" horiz-adv-x="989" 
d="M553 107h101v-107h-294v107h63v290h-197v-290h62v-107h-255v107h63v290h-63v107h63v82q0 106 50.5 157.5t135.5 51.5q60 0 102 -21l-30 -100q-7 3 -19 6t-26 3q-38 0 -60.5 -25t-22.5 -72v-82h197v82q0 106 50 157.5t135 51.5q62 0 102 -21l-29 -100q-7 3 -19.5 6
t-26.5 3q-38 0 -60 -25t-22 -74v-80h130v-107h-130v-290zM903 -3q0 -118 -54.5 -180t-151.5 -62q-29 0 -58.5 6.5t-48.5 18.5l39 102q22 -12 50 -12q41 0 67.5 27.5t26.5 96.5v403h-124v107h254v-507zM739 680q0 34 21.5 57t64.5 23t64.5 -23t21.5 -57t-21.5 -57t-64.5 -23
t-64.5 23t-21.5 57z" />
    <glyph glyph-name="f_f_k" unicode="ffk" horiz-adv-x="1321" 
d="M96 397h-63v107h63v82q0 105 50.5 157t135.5 52q60 0 102 -21l-30 -100q-7 3 -19 6t-26 3q-38 0 -60.5 -25t-22.5 -72v-82h197v85q0 104 49 155t134 51q22 0 41 -2.5t36 -7.5l-19 -103q-5 2 -14 3t-19 1q-36 0 -57 -25t-21 -75v-82h120v-107h-120v-290h89v-107h-282v107
h63v290h-197v-290h62v-107h-255v107h63v290zM917 790v-510l168 128h-62v96h251v-107h-59l-132 -100l150 -190h65v-107h-146l-162 226l-73 -56v-68h74v-102h-267v107h63v576h-65v107h195z" />
    <glyph glyph-name="f_f_l" unicode="ffl" horiz-adv-x="1007" 
d="M96 586q0 105 50.5 157t135.5 52q60 0 102 -21l-30 -100q-7 3 -19 6t-26 3q-38 0 -60.5 -25t-22.5 -72v-82h197v85q0 104 49 155t134 51q22 0 41 -2.5t36 -7.5l-19 -103q-5 2 -14 3t-19 1q-36 0 -57 -25t-21 -75v-82h120v-107h-120v-290h89v-107h-282v107h63v290h-197
v-290h62v-107h-255v107h63v290h-63v107h63v82zM979 107v-107h-255v107h63v576h-65v107h195v-683h62z" />
    <glyph glyph-name="f_f_t" unicode="fft" horiz-adv-x="1063" 
d="M96 397h-63v107h63v82q0 105 50.5 157t135.5 52q60 0 102 -21l-30 -100q-7 3 -19 6t-26 3q-38 0 -60.5 -25t-22.5 -72v-82h197v85q0 104 49 155t134 51q22 0 41 -2.5t36 -7.5l-19 -103q-5 2 -14 3t-19 1q-36 0 -57 -25t-21 -75v-82h183v121l130 31v-152h141v-107h-141
v-203q0 -90 79 -90q18 0 35 5.5t28 13.5l40 -94q-19 -15 -51.5 -26.5t-74.5 -11.5q-88 0 -137 48.5t-49 145.5v212h-183v-290h89v-107h-282v107h63v290h-197v-290h62v-107h-255v107h63v290z" />
    <glyph glyph-name=".notdef" horiz-adv-x="500" 
d="M50 750h400v-750h-400v750zM400 50v650h-300v-650h300z" />
    <glyph glyph-name="uni0000" horiz-adv-x="0" 
 />
    <glyph glyph-name="uni0000" horiz-adv-x="0" 
 />
    <glyph glyph-name="uni000D" unicode="&#xd;" horiz-adv-x="220" 
 />
    <glyph glyph-name="space" unicode=" " horiz-adv-x="220" 
 />
    <glyph glyph-name="period" unicode="." horiz-adv-x="262" 
d="M47 67q0 34 22 58t62 24t62 -24t22 -58t-22 -58t-62 -24t-62 24t-22 58z" />
    <glyph glyph-name="colon" unicode=":" horiz-adv-x="262" 
d="M47 67q0 34 22 58t62 24t62 -24t22 -58t-22 -58t-62 -24t-62 24t-22 58zM47 423q0 34 22 58t62 24t62 -24t22 -58t-22 -58t-62 -24t-62 24t-22 58z" />
    <glyph glyph-name="comma" unicode="," horiz-adv-x="262" 
d="M89 -204l-54 58q22 20 50.5 55.5t38.5 78.5h-8q-34 0 -55.5 22.5t-21.5 56.5q0 38 24 60t61 22q42 0 66 -31t24 -84q0 -70 -34.5 -131t-90.5 -107z" />
    <glyph glyph-name="semicolon" unicode=";" horiz-adv-x="262" 
d="M89 -204l-54 58q22 20 50.5 55.5t38.5 78.5h-8q-34 0 -55.5 22.5t-21.5 56.5q0 38 24 60t61 22q42 0 66 -31t24 -84q0 -70 -34.5 -131t-90.5 -107zM41 423q0 34 22 58t62 24t62 -24t22 -58t-22 -58t-62 -24t-62 24t-22 58z" />
    <glyph glyph-name="question" unicode="?" horiz-adv-x="541" 
d="M185 67q0 34 22 58t62 24t62 -24t22 -58t-22 -58t-62 -24t-62 24t-22 58zM276 776q70 0 122 -24.5t80.5 -69.5t28.5 -105q0 -34 -9.5 -63t-34 -59t-68.5 -68q-32 -27 -49.5 -46t-24.5 -36t-7 -39q0 -16 2 -28h-112q-4 10 -5 21t-1 24q0 34 8.5 60.5t30 53t59.5 58.5
q45 39 61.5 61t16.5 50q0 42 -29.5 67t-79.5 25q-56 0 -89 -30.5t-41 -88.5l-112 11q10 105 77.5 165.5t175.5 60.5z" />
    <glyph glyph-name="exclam" unicode="!" horiz-adv-x="310" 
d="M81 760h147l-12 -516h-122zM70 67q0 34 22 58t62 24t62 -24t22 -58t-22 -58t-62 -24t-62 24t-22 58z" />
    <glyph glyph-name="questiondown" unicode="&#xbf;" horiz-adv-x="534" 
d="M268 -251q-71 0 -123 25.5t-80.5 71t-28.5 106.5q0 37 11 67.5t36 61t66 67.5q47 42 63.5 68.5t16.5 60.5q0 16 -2 28h113q3 -10 4 -20.5t1 -24.5q0 -51 -20.5 -91t-76.5 -90q-46 -39 -62.5 -63.5t-16.5 -52.5q0 -43 30 -69.5t80 -26.5q56 0 89 31.5t40 90.5l113 -11
q-10 -107 -76.5 -168t-176.5 -61zM190 474q0 34 22 58t62 24t62 -24t22 -58t-22 -58t-62 -24t-62 24t-22 58z" />
    <glyph glyph-name="exclamdown" unicode="&#xa1;" horiz-adv-x="310" 
d="M93 299h123l12 -534h-147zM70 474q0 34 22 58t62 24t62 -24t22 -58t-22 -58t-62 -24t-62 24t-22 58z" />
    <glyph glyph-name="quotesingle" unicode="'" horiz-adv-x="242" 
d="M52 760h138l-11 -302h-115z" />
    <glyph glyph-name="quotedbl" unicode="&#x22;" horiz-adv-x="470" 
d="M52 760h138l-11 -302h-115zM280 760h138l-11 -302h-115z" />
    <glyph glyph-name="ellipsis" unicode="&#x2026;" horiz-adv-x="1000" 
d="M83 67q0 34 22 58t62 24t62 -24t22 -58t-22 -58t-62 -24t-62 24t-22 58zM416 67q0 34 22 58t62 24t62 -24t22 -58t-22 -58t-62 -24t-62 24t-22 58zM749 67q0 34 22 58t62 24t62 -24t22 -58t-22 -58t-62 -24t-62 24t-22 58z" />
    <glyph glyph-name="uni00A0" unicode="&#xa0;" horiz-adv-x="220" 
 />
    <glyph glyph-name="uni2000" unicode="&#x2000;" horiz-adv-x="500" 
 />
    <glyph glyph-name="uni2001" unicode="&#x2001;" horiz-adv-x="1000" 
 />
    <glyph glyph-name="uni2002" unicode="&#x2002;" horiz-adv-x="500" 
 />
    <glyph glyph-name="uni2003" unicode="&#x2003;" horiz-adv-x="1000" 
 />
    <glyph glyph-name="uni2004" unicode="&#x2004;" horiz-adv-x="333" 
 />
    <glyph glyph-name="uni2005" unicode="&#x2005;" horiz-adv-x="250" 
 />
    <glyph glyph-name="uni2006" unicode="&#x2006;" horiz-adv-x="167" 
 />
    <glyph glyph-name="uni2007" unicode="&#x2007;" 
 />
    <glyph glyph-name="uni2008" unicode="&#x2008;" horiz-adv-x="262" 
 />
    <glyph glyph-name="uni2009" unicode="&#x2009;" horiz-adv-x="200" 
 />
    <glyph glyph-name="uni200A" unicode="&#x200a;" horiz-adv-x="62" 
 />
    <glyph glyph-name="uni200B" unicode="&#x200b;" horiz-adv-x="0" 
 />
    <glyph glyph-name="uniFEFF" unicode="&#xfeff;" horiz-adv-x="0" 
 />
    <glyph glyph-name="zero" unicode="0" 
d="M41 372q0 110 30 198t93.5 139t163.5 51q101 0 164.5 -51t94 -139t30.5 -198t-30.5 -198t-94 -139t-164.5 -51q-100 0 -163.5 51t-93.5 139t-30 198zM477 372q0 127 -34.5 196.5t-114.5 69.5q-79 0 -113.5 -69.5t-34.5 -196.5t34.5 -196.5t113.5 -69.5q80 0 114.5 69.5
t34.5 196.5z" />
    <glyph glyph-name="one" unicode="1" 
d="M430 113h156v-113h-472v113h180v472l-165 -84l-45 112l252 131h94v-631z" />
    <glyph glyph-name="two" unicode="2" 
d="M266 324q55 54 86 91.5t44 66.5t13 57q0 46 -32 74.5t-85 28.5q-58 0 -93 -30.5t-43 -87.5l-115 9q6 70 39.5 121t89.5 78.5t129 27.5q75 0 131 -27.5t87 -76t31 -113.5q0 -46 -16 -87t-53.5 -85.5t-101.5 -104.5l-163 -155h267v95h112v-206h-544v107z" />
    <glyph glyph-name="three" unicode="3" 
d="M422 633h-240v-84h-111v195h498v-106l-192 -182v0q64 0 112.5 -28.5t76 -79t27.5 -117.5q0 -72 -36.5 -128t-100.5 -87.5t-148 -31.5q-88 0 -155.5 32t-105.5 88l84 80q26 -37 72.5 -59.5t100.5 -22.5q70 0 111.5 35t41.5 93q0 59 -35.5 92.5t-94.5 33.5
q-22 0 -42.5 -3.5t-37.5 -13.5l-52 83z" />
    <glyph glyph-name="four" unicode="4" 
d="M370 744h143v-425h110v-111h-110v-102h98v-106h-337v106h110v102h-358v107zM390 319v279l-225 -279h225z" />
    <glyph glyph-name="five" unicode="5" 
d="M169 744h370v-115h-278l-35 -197q22 17 58.5 25t80.5 8q67 0 118 -27.5t80 -79t29 -124.5q0 -74 -36 -130.5t-99 -88t-144 -31.5q-91 0 -159 32t-107 88l84 80q60 -82 175 -82q71 0 111 36.5t40 94.5q0 59 -37.5 93.5t-99.5 34.5q-81 0 -129 -48l-94 49z" />
    <glyph glyph-name="six" unicode="6" 
d="M51 352q0 126 40 217.5t114 141t175 49.5q67 0 128.5 -25.5t101.5 -70.5l-82 -81q-26 26 -65 41t-81 15q-91 0 -142 -65.5t-53 -183.5q23 40 72.5 62.5t106.5 22.5q74 0 129.5 -30.5t86 -85.5t30.5 -128q0 -74 -34.5 -129.5t-96 -86.5t-142.5 -31q-140 0 -214 94.5
t-74 273.5zM476 236q0 59 -38 96t-101 37q-62 0 -100 -37t-38 -96q0 -60 38.5 -97t99.5 -37q62 0 100.5 37t38.5 97z" />
    <glyph glyph-name="seven" unicode="7" 
d="M315 0h-145l281 628h-272v-103h-119v219h531v-113z" />
    <glyph glyph-name="eight" unicode="8" 
d="M195 735q58 25 134 25q77 0 134.5 -25t90 -70.5t32.5 -105.5q0 -59 -31 -103.5t-87 -67.5q68 -25 106.5 -74.5t38.5 -115.5q0 -64 -35.5 -112t-99.5 -75t-149 -27t-149 27t-99.5 75t-35.5 112q0 66 38.5 115.5t106.5 74.5q-56 23 -87 67.5t-31 103.5q0 60 32.5 105.5
t90.5 70.5zM432.5 299.5q-41.5 30.5 -103.5 30.5t-103.5 -30.5t-41.5 -85.5t41.5 -85.5t103.5 -30.5t103.5 30.5t41.5 85.5t-41.5 85.5zM422 619q-37 27 -93 27q-55 0 -92.5 -27t-37.5 -77t37.5 -77t92.5 -27q56 0 93 27t37 77t-37 77z" />
    <glyph glyph-name="nine" unicode="9" 
d="M282 -16q-70 0 -129.5 23.5t-99.5 67.5l82 81q23 -25 60.5 -38t80.5 -13q95 0 145.5 64t50.5 187q-22 -40 -71.5 -63.5t-105.5 -23.5q-76 0 -132 30.5t-86 85t-30 125.5q0 76 34 132t95.5 87t142.5 31q141 0 214.5 -95t73.5 -278q0 -126 -39 -216.5t-111.5 -138.5
t-174.5 -48zM421 604.5q-38 37.5 -100 37.5t-100.5 -37.5t-38.5 -96.5q0 -60 38.5 -96.5t100.5 -36.5t100 36.5t38 96.5q0 59 -38 96.5z" />
    <glyph glyph-name="zero.pnum" horiz-adv-x="679" 
d="M48 372q0 110 30 198t93.5 139t163.5 51q101 0 164.5 -51t94 -139t30.5 -198t-30.5 -198t-94 -139t-164.5 -51q-100 0 -163.5 51t-93.5 139t-30 198zM484 372q0 127 -34.5 196.5t-114.5 69.5q-79 0 -113.5 -69.5t-34.5 -196.5t34.5 -196.5t113.5 -69.5q80 0 114.5 69.5
t34.5 196.5z" />
    <glyph glyph-name="one.pnum" horiz-adv-x="576" 
d="M384 113h156v-113h-472v113h180v472l-165 -84l-45 112l252 131h94v-631z" />
    <glyph glyph-name="two.pnum" horiz-adv-x="634" 
d="M256 324q55 54 86 91.5t44 66.5t13 57q0 46 -32 74.5t-85 28.5q-58 0 -93 -30.5t-43 -87.5l-115 9q6 70 39.5 121t89.5 78.5t129 27.5q75 0 131 -27.5t87 -76t31 -113.5q0 -46 -16 -87t-53.5 -85.5t-101.5 -104.5l-163 -155h267v95h112v-206h-544v107z" />
    <glyph glyph-name="three.pnum" horiz-adv-x="624" 
d="M398 633h-240v-84h-111v195h498v-106l-192 -182v0q64 0 112.5 -28.5t76 -79t27.5 -117.5q0 -72 -36.5 -128t-100.5 -87.5t-148 -31.5q-88 0 -155.5 32t-105.5 88l84 80q26 -37 72.5 -59.5t100.5 -22.5q70 0 111.5 35t41.5 93q0 59 -35.5 92.5t-94.5 33.5
q-22 0 -42.5 -3.5t-37.5 -13.5l-52 83z" />
    <glyph glyph-name="four.pnum" horiz-adv-x="675" 
d="M376 744h143v-425h110v-111h-110v-102h98v-106h-337v106h110v102h-358v107zM396 319v279l-225 -279h225z" />
    <glyph glyph-name="five.pnum" horiz-adv-x="605" 
d="M143 744h370v-115h-278l-35 -197q22 17 58.5 25t80.5 8q67 0 118 -27.5t80 -79t29 -124.5q0 -74 -36 -130.5t-99 -88t-144 -31.5q-91 0 -159 32t-107 88l84 80q60 -82 175 -82q71 0 111 36.5t40 94.5q0 59 -37.5 93.5t-99.5 34.5q-81 0 -129 -48l-94 49z" />
    <glyph glyph-name="six.pnum" horiz-adv-x="661" 
d="M49 352q0 126 40 217.5t114 141t175 49.5q67 0 128.5 -25.5t101.5 -70.5l-82 -81q-26 26 -65 41t-81 15q-91 0 -142 -65.5t-53 -183.5q23 40 72.5 62.5t106.5 22.5q74 0 129.5 -30.5t86 -85.5t30.5 -128q0 -74 -34.5 -129.5t-96 -86.5t-142.5 -31q-140 0 -214 94.5
t-74 273.5zM474 236q0 59 -38 96t-101 37q-62 0 -100 -37t-38 -96q0 -60 38.5 -97t99.5 -37q62 0 100.5 37t38.5 97z" />
    <glyph glyph-name="seven.pnum" horiz-adv-x="609" 
d="M286 0h-145l281 628h-272v-103h-119v219h531v-113z" />
    <glyph glyph-name="eight.pnum" horiz-adv-x="666" 
d="M195 735q58 25 134 25q77 0 134.5 -25t90 -70.5t32.5 -105.5q0 -59 -31 -103.5t-87 -67.5q68 -25 106.5 -74.5t38.5 -115.5q0 -64 -35.5 -112t-99.5 -75t-149 -27t-149 27t-99.5 75t-35.5 112q0 66 38.5 115.5t106.5 74.5q-56 23 -87 67.5t-31 103.5q0 60 32.5 105.5
t90.5 70.5zM432.5 299.5q-41.5 30.5 -103.5 30.5t-103.5 -30.5t-41.5 -85.5t41.5 -85.5t103.5 -30.5t103.5 30.5t41.5 85.5t-41.5 85.5zM422 619q-37 27 -93 27q-55 0 -92.5 -27t-37.5 -77t37.5 -77t92.5 -27q56 0 93 27t37 77t-37 77z" />
    <glyph glyph-name="nine.pnum" horiz-adv-x="661" 
d="M278 -16q-70 0 -129.5 23.5t-99.5 67.5l82 81q23 -25 60.5 -38t80.5 -13q95 0 145.5 64t50.5 187q-22 -40 -71.5 -63.5t-105.5 -23.5q-76 0 -132 30.5t-86 85t-30 125.5q0 76 34 132t95.5 87t142.5 31q141 0 214.5 -95t73.5 -278q0 -126 -39 -216.5t-111.5 -138.5
t-174.5 -48zM417 604.5q-38 37.5 -100 37.5t-100.5 -37.5t-38.5 -96.5q0 -60 38.5 -96.5t100.5 -36.5t100 36.5t38 96.5q0 59 -38 96.5z" />
    <glyph glyph-name="uni2080" unicode="&#x2080;" horiz-adv-x="440" 
d="M42 69q0 90 47.5 145.5t130.5 55.5t130.5 -55.5t47.5 -145.5q0 -89 -47.5 -145t-130.5 -56t-130.5 56t-47.5 145zM293 69q0 52 -19 81t-54 29t-54 -29t-19 -81t19 -81t54 -29t54 29t19 81z" />
    <glyph glyph-name="uni2081" unicode="&#x2081;" horiz-adv-x="440" 
d="M286 -38h94v-82h-296v82h105v196l-94 -46l-30 73l148 73h73v-296z" />
    <glyph glyph-name="uni2082" unicode="&#x2082;" horiz-adv-x="440" 
d="M385 -120h-324v77l106 87q50 41 67.5 63.5t17.5 41.5t-12.5 28t-32.5 9q-53 0 -59 -57l-95 6q8 64 50 99.5t112 35.5q65 0 104.5 -30.5t39.5 -83.5q0 -25 -11 -47t-38 -48t-75 -64l-49 -39h125v45h74v-123z" />
    <glyph glyph-name="uni2083" unicode="&#x2083;" horiz-adv-x="440" 
d="M69 258h298v-69l-96 -80q50 -5 77.5 -34.5t27.5 -76.5q0 -58 -45 -94t-118 -36q-48 0 -89.5 17.5t-66.5 49.5l55 57q19 -20 42.5 -29.5t50.5 -9.5q35 0 53 14t18 36t-16 34t-39 12q-20 0 -38 -8l-27 51l104 91h-118v-45h-73v120z" />
    <glyph glyph-name="uni2084" unicode="&#x2084;" horiz-adv-x="440" 
d="M235 258h101v-202h64v-65h-64v-45h59v-66h-224v66h74v45h-201v62zM246 56v113l-104 -113h104z" />
    <glyph glyph-name="uni2085" unicode="&#x2085;" horiz-adv-x="440" 
d="M116 258h239v-74h-165l-9 -72q29 13 65 13q61 0 97 -33t36 -89q0 -61 -44.5 -98t-116.5 -37q-49 0 -89.5 17t-65.5 49l52 57q40 -38 95 -38q32 0 50.5 12.5t18.5 37.5q0 24 -16.5 36.5t-45.5 12.5q-20 0 -37.5 -6t-34.5 -17l-55 31z" />
    <glyph glyph-name="uni2086" unicode="&#x2086;" horiz-adv-x="440" 
d="M255 270q42 0 76 -12t56 -30l-47 -67q-13 9 -32.5 16t-45.5 7q-44 0 -69.5 -25.5t-27.5 -73.5q14 18 40.5 28t58.5 10q59 0 95 -34t36 -88q0 -58 -44.5 -95.5t-115.5 -37.5q-78 0 -124 50.5t-46 140.5q0 98 51 154.5t139 56.5zM230 62q-28 0 -45.5 -16t-17.5 -42
t17.5 -42t45.5 -16q26 0 44 16t18 42t-18 42t-44 16z" />
    <glyph glyph-name="uni2087" unicode="&#x2087;" horiz-adv-x="440" 
d="M229 -120h-106l149 297h-126v-53h-81v134h314v-75z" />
    <glyph glyph-name="uni2088" unicode="&#x2088;" horiz-adv-x="440" 
d="M331.5 240q43.5 -30 43.5 -78q0 -58 -56 -84q33 -13 52.5 -38.5t19.5 -58.5q0 -52 -47 -82.5t-124 -30.5q-76 0 -123.5 30.5t-47.5 82.5q0 33 19.5 58.5t52.5 38.5q-56 26 -56 84q0 48 44 78t111 30q68 0 111.5 -30zM173 -48q19 -13 47 -13q29 0 47.5 13t18.5 36
t-18.5 37t-47.5 14q-28 0 -47 -14t-19 -37t19 -36zM178.5 122.5q16.5 -12.5 41.5 -12.5q26 0 42 12.5t16 32.5t-16 31.5t-42 11.5q-25 0 -41.5 -12t-16.5 -31q0 -20 16.5 -32.5z" />
    <glyph glyph-name="uni2089" unicode="&#x2089;" horiz-adv-x="440" 
d="M191 -132q-43 0 -77.5 12t-56.5 31l46 65q14 -9 34 -15.5t45 -6.5q44 0 69 25.5t27 73.5q-30 -38 -99 -38q-58 0 -94 34t-36 88q0 59 44 96t114 37q80 0 126 -50.5t46 -142.5q0 -96 -50.5 -152.5t-137.5 -56.5zM214 76q27 0 44.5 16.5t17.5 41.5q0 26 -17.5 42t-44.5 16
t-45 -16t-18 -42q0 -25 18 -41.5t45 -16.5z" />
    <glyph glyph-name="uni2070" unicode="&#x2070;" horiz-adv-x="440" 
d="M42 678q0 90 47.5 145.5t130.5 55.5t130.5 -55.5t47.5 -145.5q0 -89 -47.5 -145t-130.5 -56t-130.5 56t-47.5 145zM293 678q0 52 -19 81t-54 29t-54 -29t-19 -81t19 -81t54 -29t54 29t19 81z" />
    <glyph glyph-name="uni00B9" unicode="&#xb9;" horiz-adv-x="440" 
d="M286 571h94v-82h-296v82h105v196l-94 -46l-30 73l148 73h73v-296z" />
    <glyph glyph-name="uni00B2" unicode="&#xb2;" horiz-adv-x="440" 
d="M385 489h-324v77l106 87q50 41 67.5 63.5t17.5 41.5t-12.5 28t-32.5 9q-53 0 -59 -57l-95 6q8 64 50 99.5t112 35.5q65 0 104.5 -30.5t39.5 -83.5q0 -25 -11 -47t-38 -48t-75 -64l-49 -39h125v45h74v-123z" />
    <glyph glyph-name="uni00B3" unicode="&#xb3;" horiz-adv-x="440" 
d="M69 867h298v-69l-96 -80q50 -5 77.5 -34.5t27.5 -76.5q0 -58 -45 -94t-118 -36q-48 0 -89.5 17.5t-66.5 49.5l55 57q19 -20 42.5 -29.5t50.5 -9.5q35 0 53 14t18 36t-16 34t-39 12q-20 0 -38 -8l-27 51l104 91h-118v-45h-73v120z" />
    <glyph glyph-name="uni2074" unicode="&#x2074;" horiz-adv-x="440" 
d="M235 867h101v-202h64v-65h-64v-45h59v-66h-224v66h74v45h-201v62zM246 665v113l-104 -113h104z" />
    <glyph glyph-name="uni2075" unicode="&#x2075;" horiz-adv-x="440" 
d="M116 867h239v-74h-165l-9 -72q29 13 65 13q61 0 97 -33t36 -89q0 -61 -44.5 -98t-116.5 -37q-49 0 -89.5 17t-65.5 49l52 57q40 -38 95 -38q32 0 50.5 12.5t18.5 37.5q0 24 -16.5 36.5t-45.5 12.5q-20 0 -37.5 -6t-34.5 -17l-55 31z" />
    <glyph glyph-name="uni2076" unicode="&#x2076;" horiz-adv-x="440" 
d="M255 879q42 0 76 -12t56 -30l-47 -67q-13 9 -32.5 16t-45.5 7q-44 0 -69.5 -25.5t-27.5 -73.5q14 18 40.5 28t58.5 10q59 0 95 -34t36 -88q0 -58 -44.5 -95.5t-115.5 -37.5q-78 0 -124 50.5t-46 140.5q0 98 51 154.5t139 56.5zM230 671q-28 0 -45.5 -16t-17.5 -42
t17.5 -42t45.5 -16q26 0 44 16t18 42t-18 42t-44 16z" />
    <glyph glyph-name="uni2077" unicode="&#x2077;" horiz-adv-x="440" 
d="M229 489h-106l149 297h-126v-53h-81v134h314v-75z" />
    <glyph glyph-name="uni2078" unicode="&#x2078;" horiz-adv-x="440" 
d="M331.5 849q43.5 -30 43.5 -78q0 -58 -56 -84q33 -13 52.5 -38.5t19.5 -58.5q0 -52 -47 -82.5t-124 -30.5q-76 0 -123.5 30.5t-47.5 82.5q0 33 19.5 58.5t52.5 38.5q-56 26 -56 84q0 48 44 78t111 30q68 0 111.5 -30zM173 561q19 -13 47 -13q29 0 47.5 13t18.5 36
t-18.5 37t-47.5 14q-28 0 -47 -14t-19 -37t19 -36zM178.5 731.5q16.5 -12.5 41.5 -12.5q26 0 42 12.5t16 32.5t-16 31.5t-42 11.5q-25 0 -41.5 -12t-16.5 -31q0 -20 16.5 -32.5z" />
    <glyph glyph-name="uni2079" unicode="&#x2079;" horiz-adv-x="440" 
d="M191 477q-43 0 -77.5 12t-56.5 31l46 65q14 -9 34 -15.5t45 -6.5q44 0 69 25.5t27 73.5q-30 -38 -99 -38q-58 0 -94 34t-36 88q0 59 44 96t114 37q80 0 126 -50.5t46 -142.5q0 -96 -50.5 -152.5t-137.5 -56.5zM214 685q27 0 44.5 16.5t17.5 41.5q0 26 -17.5 42t-44.5 16
t-45 -16t-18 -42q0 -25 18 -41.5t45 -16.5z" />
    <glyph glyph-name="zero.dnom" horiz-adv-x="440" 
d="M42 189q0 90 47.5 145.5t130.5 55.5t130.5 -55.5t47.5 -145.5q0 -89 -47.5 -145t-130.5 -56t-130.5 56t-47.5 145zM293 189q0 52 -19 81t-54 29t-54 -29t-19 -81t19 -81t54 -29t54 29t19 81z" />
    <glyph glyph-name="one.dnom" horiz-adv-x="440" 
d="M286 82h94v-82h-296v82h105v196l-94 -46l-30 73l148 73h73v-296z" />
    <glyph glyph-name="two.dnom" horiz-adv-x="440" 
d="M385 0h-324v77l106 87q50 41 67.5 63.5t17.5 41.5t-12.5 28t-32.5 9q-53 0 -59 -57l-95 6q8 64 50 99.5t112 35.5q65 0 104.5 -30.5t39.5 -83.5q0 -25 -11 -47t-38 -48t-75 -64l-49 -39h125v45h74v-123z" />
    <glyph glyph-name="three.dnom" horiz-adv-x="440" 
d="M69 378h298v-69l-96 -80q50 -5 77.5 -34.5t27.5 -76.5q0 -58 -45 -94t-118 -36q-48 0 -89.5 17.5t-66.5 49.5l55 57q19 -20 42.5 -29.5t50.5 -9.5q35 0 53 14t18 36t-16 34t-39 12q-20 0 -38 -8l-27 51l104 91h-118v-45h-73v120z" />
    <glyph glyph-name="four.dnom" horiz-adv-x="440" 
d="M235 378h101v-202h64v-65h-64v-45h59v-66h-224v66h74v45h-201v62zM246 176v113l-104 -113h104z" />
    <glyph glyph-name="five.dnom" horiz-adv-x="440" 
d="M116 378h239v-74h-165l-9 -72q29 13 65 13q61 0 97 -33t36 -89q0 -61 -44.5 -98t-116.5 -37q-49 0 -89.5 17t-65.5 49l52 57q40 -38 95 -38q32 0 50.5 12.5t18.5 37.5q0 24 -16.5 36.5t-45.5 12.5q-20 0 -37.5 -6t-34.5 -17l-55 31z" />
    <glyph glyph-name="six.dnom" horiz-adv-x="440" 
d="M255 390q42 0 76 -12t56 -30l-47 -67q-13 9 -32.5 16t-45.5 7q-44 0 -69.5 -25.5t-27.5 -73.5q14 18 40.5 28t58.5 10q59 0 95 -34t36 -88q0 -58 -44.5 -95.5t-115.5 -37.5q-78 0 -124 50.5t-46 140.5q0 98 51 154.5t139 56.5zM230 182q-28 0 -45.5 -16t-17.5 -42
t17.5 -42t45.5 -16q26 0 44 16t18 42t-18 42t-44 16z" />
    <glyph glyph-name="seven.dnom" horiz-adv-x="440" 
d="M229 0h-106l149 297h-126v-53h-81v134h314v-75z" />
    <glyph glyph-name="eight.dnom" horiz-adv-x="440" 
d="M331.5 360q43.5 -30 43.5 -78q0 -58 -56 -84q33 -13 52.5 -38.5t19.5 -58.5q0 -52 -47 -82.5t-124 -30.5q-76 0 -123.5 30.5t-47.5 82.5q0 33 19.5 58.5t52.5 38.5q-56 26 -56 84q0 48 44 78t111 30q68 0 111.5 -30zM173 72q19 -13 47 -13q29 0 47.5 13t18.5 36t-18.5 37
t-47.5 14q-28 0 -47 -14t-19 -37t19 -36zM178.5 242.5q16.5 -12.5 41.5 -12.5q26 0 42 12.5t16 32.5t-16 31.5t-42 11.5q-25 0 -41.5 -12t-16.5 -31q0 -20 16.5 -32.5z" />
    <glyph glyph-name="nine.dnom" horiz-adv-x="440" 
d="M191 -12q-43 0 -77.5 12t-56.5 31l46 65q14 -9 34 -15.5t45 -6.5q44 0 69 25.5t27 73.5q-30 -38 -99 -38q-58 0 -94 34t-36 88q0 59 44 96t114 37q80 0 126 -50.5t46 -142.5q0 -96 -50.5 -152.5t-137.5 -56.5zM214 196q27 0 44.5 16.5t17.5 41.5q0 26 -17.5 42t-44.5 16
t-45 -16t-18 -42q0 -25 18 -41.5t45 -16.5z" />
    <glyph glyph-name="zero.numr" horiz-adv-x="440" 
d="M42 555q0 90 47.5 145.5t130.5 55.5t130.5 -55.5t47.5 -145.5q0 -89 -47.5 -145t-130.5 -56t-130.5 56t-47.5 145zM293 555q0 52 -19 81t-54 29t-54 -29t-19 -81t19 -81t54 -29t54 29t19 81z" />
    <glyph glyph-name="one.numr" horiz-adv-x="440" 
d="M286 448h94v-82h-296v82h105v196l-94 -46l-30 73l148 73h73v-296z" />
    <glyph glyph-name="two.numr" horiz-adv-x="440" 
d="M385 366h-324v77l106 87q50 41 67.5 63.5t17.5 41.5t-12.5 28t-32.5 9q-53 0 -59 -57l-95 6q8 64 50 99.5t112 35.5q65 0 104.5 -30.5t39.5 -83.5q0 -25 -11 -47t-38 -48t-75 -64l-49 -39h125v45h74v-123z" />
    <glyph glyph-name="three.numr" horiz-adv-x="440" 
d="M69 744h298v-69l-96 -80q50 -5 77.5 -34.5t27.5 -76.5q0 -58 -45 -94t-118 -36q-48 0 -89.5 17.5t-66.5 49.5l55 57q19 -20 42.5 -29.5t50.5 -9.5q35 0 53 14t18 36t-16 34t-39 12q-20 0 -38 -8l-27 51l104 91h-118v-45h-73v120z" />
    <glyph glyph-name="four.numr" horiz-adv-x="440" 
d="M235 744h101v-202h64v-65h-64v-45h59v-66h-224v66h74v45h-201v62zM246 542v113l-104 -113h104z" />
    <glyph glyph-name="five.numr" horiz-adv-x="440" 
d="M116 744h239v-74h-165l-9 -72q29 13 65 13q61 0 97 -33t36 -89q0 -61 -44.5 -98t-116.5 -37q-49 0 -89.5 17t-65.5 49l52 57q40 -38 95 -38q32 0 50.5 12.5t18.5 37.5q0 24 -16.5 36.5t-45.5 12.5q-20 0 -37.5 -6t-34.5 -17l-55 31z" />
    <glyph glyph-name="six.numr" horiz-adv-x="440" 
d="M255 756q42 0 76 -12t56 -30l-47 -67q-13 9 -32.5 16t-45.5 7q-44 0 -69.5 -25.5t-27.5 -73.5q14 18 40.5 28t58.5 10q59 0 95 -34t36 -88q0 -58 -44.5 -95.5t-115.5 -37.5q-78 0 -124 50.5t-46 140.5q0 98 51 154.5t139 56.5zM230 548q-28 0 -45.5 -16t-17.5 -42
t17.5 -42t45.5 -16q26 0 44 16t18 42t-18 42t-44 16z" />
    <glyph glyph-name="seven.numr" horiz-adv-x="440" 
d="M229 366h-106l149 297h-126v-53h-81v134h314v-75z" />
    <glyph glyph-name="eight.numr" horiz-adv-x="440" 
d="M331.5 726q43.5 -30 43.5 -78q0 -58 -56 -84q33 -13 52.5 -38.5t19.5 -58.5q0 -52 -47 -82.5t-124 -30.5q-76 0 -123.5 30.5t-47.5 82.5q0 33 19.5 58.5t52.5 38.5q-56 26 -56 84q0 48 44 78t111 30q68 0 111.5 -30zM173 438q19 -13 47 -13q29 0 47.5 13t18.5 36
t-18.5 37t-47.5 14q-28 0 -47 -14t-19 -37t19 -36zM178.5 608.5q16.5 -12.5 41.5 -12.5q26 0 42 12.5t16 32.5t-16 31.5t-42 11.5q-25 0 -41.5 -12t-16.5 -31q0 -20 16.5 -32.5z" />
    <glyph glyph-name="nine.numr" horiz-adv-x="440" 
d="M191 354q-43 0 -77.5 12t-56.5 31l46 65q14 -9 34 -15.5t45 -6.5q44 0 69 25.5t27 73.5q-30 -38 -99 -38q-58 0 -94 34t-36 88q0 59 44 96t114 37q80 0 126 -50.5t46 -142.5q0 -96 -50.5 -152.5t-137.5 -56.5zM214 562q27 0 44.5 16.5t17.5 41.5q0 26 -17.5 42t-44.5 16
t-45 -16t-18 -42q0 -25 18 -41.5t45 -16.5z" />
    <glyph glyph-name="fraction" unicode="&#x2044;" horiz-adv-x="185" 
d="M284 744h125l-509 -744h-125z" />
    <glyph glyph-name="percent" unicode="%" horiz-adv-x="1009" 
d="M697 744h125l-509 -744h-125zM767 -17q-59 0 -105 26.5t-72.5 72t-26.5 102.5q0 58 26.5 103t72.5 71t105 26t105 -26t72.5 -71t26.5 -103q0 -57 -26.5 -102.5t-72.5 -72t-105 -26.5zM838 258.5q-26 28.5 -71 28.5q-44 0 -70.5 -29t-26.5 -74q0 -46 26 -74.5t71 -28.5
t71 28.5t26 74.5t-26 74.5zM242 359q-59 0 -105 26.5t-72.5 72t-26.5 102.5q0 58 26.5 103t72.5 71t105 26t105 -26t72.5 -71t26.5 -103q0 -57 -26.5 -102.5t-72.5 -72t-105 -26.5zM313 634.5q-26 28.5 -71 28.5q-44 0 -70.5 -29t-26.5 -74q0 -46 26 -74.5t71 -28.5t71 28.5
t26 74.5t-26 74.5z" />
    <glyph glyph-name="perthousand" unicode="&#x2030;" horiz-adv-x="1472" 
d="M697 744h125l-509 -744h-125zM1230 -17q-59 0 -105 26.5t-72.5 72t-26.5 102.5q0 58 26.5 103t72.5 71t105 26t105 -26t72.5 -71t26.5 -103q0 -57 -26.5 -102.5t-72.5 -72t-105 -26.5zM1301 258.5q-26 28.5 -71 28.5q-44 0 -70.5 -29t-26.5 -74q0 -46 26 -74.5t71 -28.5
t71 28.5t26 74.5t-26 74.5zM767 -17q-59 0 -105 26.5t-72.5 72t-26.5 102.5q0 58 26.5 103t72.5 71t105 26t105 -26t72.5 -71t26.5 -103q0 -57 -26.5 -102.5t-72.5 -72t-105 -26.5zM838 258.5q-26 28.5 -71 28.5q-44 0 -70.5 -29t-26.5 -74q0 -46 26 -74.5t71 -28.5t71 28.5
t26 74.5t-26 74.5zM242 359q-59 0 -105 26.5t-72.5 72t-26.5 102.5q0 58 26.5 103t72.5 71t105 26t105 -26t72.5 -71t26.5 -103q0 -57 -26.5 -102.5t-72.5 -72t-105 -26.5zM313 634.5q-26 28.5 -71 28.5q-44 0 -70.5 -29t-26.5 -74q0 -46 26 -74.5t71 -28.5t71 28.5t26 74.5
t-26 74.5z" />
    <glyph glyph-name="onehalf" unicode="&#xbd;" horiz-adv-x="1065" 
d="M745 744h125l-509 -744h-125zM1005 0h-324v77l106 87q50 41 67.5 63.5t17.5 41.5t-12.5 28t-32.5 9q-53 0 -59 -57l-95 6q8 64 50 99.5t112 35.5q65 0 104.5 -30.5t39.5 -83.5q0 -25 -11 -47t-38 -48t-75 -64l-49 -39h125v45h74v-123zM291 451h94v-82h-296v82h105v196
l-94 -46l-30 73l148 73h73v-296z" />
    <glyph glyph-name="onethird" unicode="&#x2153;" horiz-adv-x="1065" 
d="M733 744h125l-509 -744h-125zM689 378h298v-69l-96 -80q50 -5 77.5 -34.5t27.5 -76.5q0 -58 -45 -94t-118 -36q-48 0 -89.5 17.5t-66.5 49.5l55 57q19 -20 42.5 -29.5t50.5 -9.5q35 0 53 14t18 36t-16 34t-39 12q-20 0 -38 -8l-27 51l104 91h-118v-45h-73v120zM291 451
h94v-82h-296v82h105v196l-94 -46l-30 73l148 73h73v-296z" />
    <glyph glyph-name="twothirds" unicode="&#x2154;" horiz-adv-x="1065" 
d="M736 744h125l-509 -744h-125zM689 378h298v-69l-96 -80q50 -5 77.5 -34.5t27.5 -76.5q0 -58 -45 -94t-118 -36q-48 0 -89.5 17.5t-66.5 49.5l55 57q19 -20 42.5 -29.5t50.5 -9.5q35 0 53 14t18 36t-16 34t-39 12q-20 0 -38 -8l-27 51l104 91h-118v-45h-73v120zM390 369
h-324v77l106 87q50 41 67.5 63.5t17.5 41.5t-12.5 28t-32.5 9q-53 0 -59 -57l-95 6q8 64 50 99.5t112 35.5q65 0 104.5 -30.5t39.5 -83.5q0 -25 -11 -47t-38 -48t-75 -64l-49 -39h125v45h74v-123z" />
    <glyph glyph-name="onequarter" unicode="&#xbc;" horiz-adv-x="1065" 
d="M757 744h125l-509 -744h-125zM855 378h101v-202h64v-65h-64v-45h59v-66h-224v66h74v45h-201v62zM866 176v113l-104 -113h104zM291 451h94v-82h-296v82h105v196l-94 -46l-30 73l148 73h73v-296z" />
    <glyph glyph-name="threequarters" unicode="&#xbe;" horiz-adv-x="1065" 
d="M743 744h125l-509 -744h-125zM855 378h101v-202h64v-65h-64v-45h59v-66h-224v66h74v45h-201v62zM866 176v113l-104 -113h104zM74 747h298v-69l-96 -80q50 -5 77.5 -34.5t27.5 -76.5q0 -58 -45 -94t-118 -36q-48 0 -89.5 17.5t-66.5 49.5l55 57q19 -20 42.5 -29.5
t50.5 -9.5q35 0 53 14t18 36t-16 34t-39 12q-20 0 -38 -8l-27 51l104 91h-118v-45h-73v120z" />
    <glyph glyph-name="uni2155" unicode="&#x2155;" horiz-adv-x="1065" 
d="M751 744h125l-509 -744h-125zM736 378h239v-74h-165l-9 -72q29 13 65 13q61 0 97 -33t36 -89q0 -61 -44.5 -98t-116.5 -37q-49 0 -89.5 17t-65.5 49l52 57q40 -38 95 -38q32 0 50.5 12.5t18.5 37.5q0 24 -16.5 36.5t-45.5 12.5q-20 0 -37.5 -6t-34.5 -17l-55 31zM291 451
h94v-82h-296v82h105v196l-94 -46l-30 73l148 73h73v-296z" />
    <glyph glyph-name="uni2156" unicode="&#x2156;" horiz-adv-x="1065" 
d="M760 744h125l-509 -744h-125zM736 378h239v-74h-165l-9 -72q29 13 65 13q61 0 97 -33t36 -89q0 -61 -44.5 -98t-116.5 -37q-49 0 -89.5 17t-65.5 49l52 57q40 -38 95 -38q32 0 50.5 12.5t18.5 37.5q0 24 -16.5 36.5t-45.5 12.5q-20 0 -37.5 -6t-34.5 -17l-55 31zM390 369
h-324v77l106 87q50 41 67.5 63.5t17.5 41.5t-12.5 28t-32.5 9q-53 0 -59 -57l-95 6q8 64 50 99.5t112 35.5q65 0 104.5 -30.5t39.5 -83.5q0 -25 -11 -47t-38 -48t-75 -64l-49 -39h125v45h74v-123z" />
    <glyph glyph-name="uni2157" unicode="&#x2157;" horiz-adv-x="1065" 
d="M736 744h125l-509 -744h-125zM736 378h239v-74h-165l-9 -72q29 13 65 13q61 0 97 -33t36 -89q0 -61 -44.5 -98t-116.5 -37q-49 0 -89.5 17t-65.5 49l52 57q40 -38 95 -38q32 0 50.5 12.5t18.5 37.5q0 24 -16.5 36.5t-45.5 12.5q-20 0 -37.5 -6t-34.5 -17l-55 31zM74 747
h298v-69l-96 -80q50 -5 77.5 -34.5t27.5 -76.5q0 -58 -45 -94t-118 -36q-48 0 -89.5 17.5t-66.5 49.5l55 57q19 -20 42.5 -29.5t50.5 -9.5q35 0 53 14t18 36t-16 34t-39 12q-20 0 -38 -8l-27 51l104 91h-118v-45h-73v120z" />
    <glyph glyph-name="uni2158" unicode="&#x2158;" horiz-adv-x="1065" 
d="M764 744h125l-509 -744h-125zM736 378h239v-74h-165l-9 -72q29 13 65 13q61 0 97 -33t36 -89q0 -61 -44.5 -98t-116.5 -37q-49 0 -89.5 17t-65.5 49l52 57q40 -38 95 -38q32 0 50.5 12.5t18.5 37.5q0 24 -16.5 36.5t-45.5 12.5q-20 0 -37.5 -6t-34.5 -17l-55 31zM240 747
h101v-202h64v-65h-64v-45h59v-66h-224v66h74v45h-201v62zM251 545v113l-104 -113h104z" />
    <glyph glyph-name="uni2159" unicode="&#x2159;" horiz-adv-x="1065" 
d="M747 744h125l-509 -744h-125zM875 390q42 0 76 -12t56 -30l-47 -67q-13 9 -32.5 16t-45.5 7q-44 0 -69.5 -25.5t-27.5 -73.5q14 18 40.5 28t58.5 10q59 0 95 -34t36 -88q0 -58 -44.5 -95.5t-115.5 -37.5q-78 0 -124 50.5t-46 140.5q0 98 51 154.5t139 56.5zM850 182
q-28 0 -45.5 -16t-17.5 -42t17.5 -42t45.5 -16q26 0 44 16t18 42t-18 42t-44 16zM291 451h94v-82h-296v82h105v196l-94 -46l-30 73l148 73h73v-296z" />
    <glyph glyph-name="uni215A" unicode="&#x215a;" horiz-adv-x="1065" 
d="M743 744h125l-509 -744h-125zM875 390q42 0 76 -12t56 -30l-47 -67q-13 9 -32.5 16t-45.5 7q-44 0 -69.5 -25.5t-27.5 -73.5q14 18 40.5 28t58.5 10q59 0 95 -34t36 -88q0 -58 -44.5 -95.5t-115.5 -37.5q-78 0 -124 50.5t-46 140.5q0 98 51 154.5t139 56.5zM850 182
q-28 0 -45.5 -16t-17.5 -42t17.5 -42t45.5 -16q26 0 44 16t18 42t-18 42t-44 16zM121 747h239v-74h-165l-9 -72q29 13 65 13q61 0 97 -33t36 -89q0 -61 -44.5 -98t-116.5 -37q-49 0 -89.5 17t-65.5 49l52 57q40 -38 95 -38q32 0 50.5 12.5t18.5 37.5q0 24 -16.5 36.5
t-45.5 12.5q-20 0 -37.5 -6t-34.5 -17l-55 31z" />
    <glyph glyph-name="uni2150" unicode="&#x2150;" horiz-adv-x="1065" 
d="M730 744h125l-509 -744h-125zM849 0h-106l149 297h-126v-53h-81v134h314v-75zM291 451h94v-82h-296v82h105v196l-94 -46l-30 73l148 73h73v-296z" />
    <glyph glyph-name="oneeighth" unicode="&#x215b;" horiz-adv-x="1065" 
d="M747 744h125l-509 -744h-125zM951.5 360q43.5 -30 43.5 -78q0 -58 -56 -84q33 -13 52.5 -38.5t19.5 -58.5q0 -52 -47 -82.5t-124 -30.5q-76 0 -123.5 30.5t-47.5 82.5q0 33 19.5 58.5t52.5 38.5q-56 26 -56 84q0 48 44 78t111 30q68 0 111.5 -30zM793 72q19 -13 47 -13
q29 0 47.5 13t18.5 36t-18.5 37t-47.5 14q-28 0 -47 -14t-19 -37t19 -36zM798.5 242.5q16.5 -12.5 41.5 -12.5q26 0 42 12.5t16 32.5t-16 31.5t-42 11.5q-25 0 -41.5 -12t-16.5 -31q0 -20 16.5 -32.5zM291 451h94v-82h-296v82h105v196l-94 -46l-30 73l148 73h73v-296z" />
    <glyph glyph-name="threeeighths" unicode="&#x215c;" horiz-adv-x="1065" 
d="M724 744h125l-509 -744h-125zM951.5 360q43.5 -30 43.5 -78q0 -58 -56 -84q33 -13 52.5 -38.5t19.5 -58.5q0 -52 -47 -82.5t-124 -30.5q-76 0 -123.5 30.5t-47.5 82.5q0 33 19.5 58.5t52.5 38.5q-56 26 -56 84q0 48 44 78t111 30q68 0 111.5 -30zM793 72q19 -13 47 -13
q29 0 47.5 13t18.5 36t-18.5 37t-47.5 14q-28 0 -47 -14t-19 -37t19 -36zM798.5 242.5q16.5 -12.5 41.5 -12.5q26 0 42 12.5t16 32.5t-16 31.5t-42 11.5q-25 0 -41.5 -12t-16.5 -31q0 -20 16.5 -32.5zM74 747h298v-69l-96 -80q50 -5 77.5 -34.5t27.5 -76.5q0 -58 -45 -94
t-118 -36q-48 0 -89.5 17.5t-66.5 49.5l55 57q19 -20 42.5 -29.5t50.5 -9.5q35 0 53 14t18 36t-16 34t-39 12q-20 0 -38 -8l-27 51l104 91h-118v-45h-73v120z" />
    <glyph glyph-name="fiveeighths" unicode="&#x215d;" horiz-adv-x="1065" 
d="M722 744h125l-509 -744h-125zM951.5 360q43.5 -30 43.5 -78q0 -58 -56 -84q33 -13 52.5 -38.5t19.5 -58.5q0 -52 -47 -82.5t-124 -30.5q-76 0 -123.5 30.5t-47.5 82.5q0 33 19.5 58.5t52.5 38.5q-56 26 -56 84q0 48 44 78t111 30q68 0 111.5 -30zM793 72q19 -13 47 -13
q29 0 47.5 13t18.5 36t-18.5 37t-47.5 14q-28 0 -47 -14t-19 -37t19 -36zM798.5 242.5q16.5 -12.5 41.5 -12.5q26 0 42 12.5t16 32.5t-16 31.5t-42 11.5q-25 0 -41.5 -12t-16.5 -31q0 -20 16.5 -32.5zM121 747h239v-74h-165l-9 -72q29 13 65 13q61 0 97 -33t36 -89
q0 -61 -44.5 -98t-116.5 -37q-49 0 -89.5 17t-65.5 49l52 57q40 -38 95 -38q32 0 50.5 12.5t18.5 37.5q0 24 -16.5 36.5t-45.5 12.5q-20 0 -37.5 -6t-34.5 -17l-55 31z" />
    <glyph glyph-name="seveneighths" unicode="&#x215e;" horiz-adv-x="1065" 
d="M696 744h125l-509 -744h-125zM951.5 360q43.5 -30 43.5 -78q0 -58 -56 -84q33 -13 52.5 -38.5t19.5 -58.5q0 -52 -47 -82.5t-124 -30.5q-76 0 -123.5 30.5t-47.5 82.5q0 33 19.5 58.5t52.5 38.5q-56 26 -56 84q0 48 44 78t111 30q68 0 111.5 -30zM793 72q19 -13 47 -13
q29 0 47.5 13t18.5 36t-18.5 37t-47.5 14q-28 0 -47 -14t-19 -37t19 -36zM798.5 242.5q16.5 -12.5 41.5 -12.5q26 0 42 12.5t16 32.5t-16 31.5t-42 11.5q-25 0 -41.5 -12t-16.5 -31q0 -20 16.5 -32.5zM235 369h-106l149 297h-126v-53h-81v134h314v-75z" />
    <glyph glyph-name="uni2151" unicode="&#x2151;" horiz-adv-x="1065" 
d="M740 744h125l-509 -744h-125zM811 -12q-43 0 -77.5 12t-56.5 31l46 65q14 -9 34 -15.5t45 -6.5q44 0 69 25.5t27 73.5q-30 -38 -99 -38q-58 0 -94 34t-36 88q0 59 44 96t114 37q80 0 126 -50.5t46 -142.5q0 -96 -50.5 -152.5t-137.5 -56.5zM834 196q27 0 44.5 16.5
t17.5 41.5q0 26 -17.5 42t-44.5 16t-45 -16t-18 -42q0 -25 18 -41.5t45 -16.5zM291 451h94v-82h-296v82h105v196l-94 -46l-30 73l148 73h73v-296z" />
    <glyph glyph-name="dollar" unicode="$" 
d="M55 268h101v-11q0 -58 36.5 -99t99.5 -52v222l-23 5q-101 20 -154.5 75t-53.5 139q0 94 59 150.5t161 61.5v125h89v-132q40 -10 72.5 -31t51.5 -53v78h92v-250h-102v10q0 57 -30 95.5t-84 49.5v-216l32 -7q104 -22 153 -75t49 -139q0 -95 -59.5 -151.5t-163.5 -62.5v-124
h-89v131q-48 10 -86.5 32.5t-59.5 54.5v-82h-91v256zM381 108q42 9 65.5 34.5t23.5 63.5q0 37 -20.5 61t-68.5 39v-198zM281 651q-88 -18 -88 -97q0 -34 20 -57t68 -39v193z" />
    <glyph glyph-name="cent" unicode="&#xa2;" 
d="M374 111q42 1 74.5 16t56.5 42l67 -83q-28 -38 -82 -62.5t-116 -27.5v-120h-89v126q-94 18 -148.5 86t-54.5 172q0 71 25 125t71 87t107 40v120h89v-127q72 -20 102 -77v76h89v-218h-102v11q0 38 -24.5 64t-64.5 33v-283zM217 258q0 -91 68 -128v254q-32 -15 -50 -47.5
t-18 -78.5z" />
    <glyph glyph-name="sterling" unicode="&#xa3;" 
d="M604 498h-107v13q0 64 -36.5 102.5t-99.5 38.5q-58 0 -92.5 -32t-34.5 -92q0 -23 5 -46t16 -52h194v-94h-163q5 -30 5 -62q0 -104 -74 -165h278v116h109v-225h-569v109h19q50 0 84 40.5t34 106.5q0 38 -13 80h-120v94h84q-13 35 -19 64t-6 57q0 97 61.5 153t165.5 56
q132 0 184 -92v77h95v-247z" />
    <glyph glyph-name="yen" unicode="&#xa5;" 
d="M337 411l138 229h-75v104h253v-107h-56l-135 -214h109v-74h-156l-21 -34v-19h177v-73h-177v-116h84v-107h-299v107h86v116h-178v73h178v21l-20 32h-158v74h111l-136 214h-57v107h268v-104h-76z" />
    <glyph glyph-name="Euro" unicode="&#x20ac;" 
d="M635 455h-111v7q0 82 -39.5 130t-106.5 48q-63 0 -105.5 -42.5t-58.5 -120.5h204v-73h-212q-1 -12 -1 -25q0 -15 1 -29h212v-74h-203q18 -82 66.5 -126t122.5 -44q59 0 100 23.5t63 53.5l79 -87q-47 -60 -111.5 -86t-144.5 -26q-128 0 -210 77t-104 215h-77v74h70
q-1 14 -1 29v25h-69v73h76q14 87 51 150.5t93 98t127 34.5q65 0 114.5 -27t74.5 -80v91h100v-289z" />
    <glyph glyph-name="uni20BA" unicode="&#x20ba;" 
d="M245 516l185 72v-76l-185 -72v-53l185 72v-76l-185 -72v-194h70q93 0 142 48.5t49 141.5v49h117v-43q0 -159 -75.5 -236t-230.5 -77h-290v109h84v151l-84 -33v76l84 33v53l-84 -33v76l84 33v170h-84v109h218v-228z" />
    <glyph glyph-name="currency" unicode="&#xa4;" 
d="M329 143q-71 0 -127 33l-77 -78l-75 76l76 76q-34 57 -34 130t34 130l-76 76l75 76l77 -78q56 33 127 33t127 -33l77 78l75 -76l-76 -76q34 -57 34 -130t-34 -130l76 -76l-75 -76l-77 78q-56 -33 -127 -33zM424.5 476.5q-36.5 37.5 -95.5 37.5t-95.5 -37.5t-36.5 -96.5
q0 -58 36.5 -95.5t95.5 -37.5t95.5 37.5t36.5 95.5q0 59 -36.5 96.5z" />
    <glyph glyph-name="asciicircum" unicode="^" 
d="M270 708h117l188 -416h-118l-128 291l-129 -291h-118z" />
    <glyph glyph-name="plus" unicode="+" 
d="M275 593h109v-188h181v-104h-181v-187h-109v187h-182v104h182v188z" />
    <glyph glyph-name="minus" unicode="&#x2212;" 
d="M93 405h472v-104h-472v104z" />
    <glyph glyph-name="plusminus" unicode="&#xb1;" 
d="M93 104h472v-104h-472v104zM275 654h109v-188h181v-104h-181v-187h-109v187h-182v104h182v188z" />
    <glyph glyph-name="equal" unicode="=" 
d="M93 174v105h472v-105h-472zM93 420v104h472v-104h-472z" />
    <glyph glyph-name="notequal" unicode="&#x2260;" 
d="M315 420h-222v104h270l51 110h92l-51 -110h110v-104h-158l-64 -141h222v-105h-271l-50 -109h-92l50 109h-109v105h158z" />
    <glyph glyph-name="divide" unicode="&#xf7;" 
d="M93 301v104h472v-104h-472zM270 612q21 23 59 23t59 -23t21 -55q0 -33 -21 -55.5t-59 -22.5t-59 22.5t-21 55.5q0 32 21 55zM270 205q21 23 59 23t59 -23t21 -55q0 -33 -21 -55.5t-59 -22.5t-59 22.5t-21 55.5q0 32 21 55z" />
    <glyph glyph-name="less" unicode="&#x3c;" 
d="M93 301v105l472 222v-118l-346 -156l346 -157v-118z" />
    <glyph glyph-name="greater" unicode="&#x3e;" 
d="M565 406v-105l-472 -222v118l346 157l-346 156v118z" />
    <glyph glyph-name="lessequal" unicode="&#x2264;" 
d="M93 104h472v-104h-472v104zM92 362v105l472 222v-118l-346 -156l346 -157v-118z" />
    <glyph glyph-name="greaterequal" unicode="&#x2265;" 
d="M94 104h472v-104h-472v104zM565 467v-105l-472 -222v118l346 157l-346 156v118z" />
    <glyph glyph-name="asciitilde" unicode="~" 
d="M213 463q30 0 57.5 -11t71.5 -42q37 -25 55.5 -33.5t37.5 -8.5q62 0 62 95h92v-19q0 -94 -36 -143t-107 -49q-30 0 -58 10.5t-72 40.5q-37 26 -55 34.5t-38 8.5q-31 0 -46.5 -22.5t-15.5 -71.5h-93v18q0 95 37 144t108 49z" />
    <glyph glyph-name="approxequal" unicode="&#x2248;" 
d="M213 320q30 0 57.5 -11t71.5 -42q37 -25 55.5 -33.5t37.5 -8.5q62 0 62 95h92v-19q0 -94 -36 -143t-107 -49q-30 0 -58 10.5t-72 40.5q-37 26 -55 34.5t-38 8.5q-31 0 -46.5 -22.5t-15.5 -71.5h-93v18q0 95 37 144t108 49zM213 593q30 0 57.5 -11t71.5 -42
q37 -25 55.5 -33.5t37.5 -8.5q62 0 62 95h92v-19q0 -94 -36 -143t-107 -49q-30 0 -58 10.5t-72 40.5q-37 26 -55 34.5t-38 8.5q-31 0 -46.5 -22.5t-15.5 -71.5h-93v18q0 95 37 144t108 49z" />
    <glyph glyph-name="multiply" unicode="&#xd7;" 
d="M329 427l151 152l74 -77l-150 -150l150 -151l-74 -77l-151 152l-152 -152l-74 77l150 151l-150 150l74 77z" />
    <glyph glyph-name="underscore" unicode="_" horiz-adv-x="500" 
d="M0 -53h500v-116h-500v116z" />
    <glyph glyph-name="section" unicode="&#xa7;" horiz-adv-x="536" 
d="M302 -122q-49 0 -88.5 16.5t-60.5 44.5v-54h-95v171h96v-5q0 -37 33.5 -60t85.5 -23q90 0 90 60q0 33 -29 52t-100 35q-97 22 -142.5 66.5t-45.5 117.5q0 61 34 104t88 55q-112 41 -112 142q0 69 48 109.5t130 40.5q97 0 142 -57v50h95v-171h-96v8q0 36 -29.5 58
t-76.5 22q-90 0 -90 -59q0 -29 29.5 -47.5t105.5 -38.5q88 -23 131 -65.5t43 -112.5q0 -56 -30.5 -97.5t-84.5 -60.5q113 -45 113 -147q0 -70 -49 -112t-135 -42zM266 414q-45 0 -73.5 -26.5t-28.5 -69.5q0 -42 28.5 -68.5t73.5 -26.5q47 0 75.5 26.5t28.5 68.5
q0 43 -28.5 69.5t-75.5 26.5z" />
    <glyph glyph-name="degree" unicode="&#xb0;" horiz-adv-x="490" 
d="M245 439q-54 0 -97 24.5t-67.5 66.5t-24.5 94q0 53 24.5 95t67.5 66.5t97 24.5t96.5 -24.5t67 -66.5t24.5 -95q0 -52 -24.5 -94t-67 -66.5t-96.5 -24.5zM316 696.5q-28 28.5 -71 28.5t-71 -28.5t-28 -72.5t28 -72t71 -28t71 28t28 72t-28 72.5z" />
    <glyph glyph-name="mu" unicode="&#xb5;" 
d="M72 504h130v-283q0 -121 101 -121q50 0 80 30t30 80v294h130v-397h63v-107h-186v65q-18 -36 -54 -58.5t-81 -22.5q-28 0 -51 7.5t-38 24.5v-251h-124v739z" />
    <glyph glyph-name="paragraph" unicode="&#xb6;" horiz-adv-x="809" 
d="M254 -30q55 0 85.5 28t30.5 100v183q-47 -14 -94 -14q-117 0 -176 65.5t-59 175.5q0 83 34 139t90.5 84.5t124.5 28.5h488v-107h-81v-419q0 -122 -51.5 -186t-161.5 -64q-8 0 -16 1q-21 -64 -69 -97t-125 -33q-54 0 -84 14l22 108q10 -4 21 -5.5t21 -1.5zM484 653v-548
v-11q47 4 73 33t26 94v432h-99z" />
    <glyph glyph-name="numbersign" unicode="#" 
d="M318 0l39 186h-134l-39 -186h-93l39 186h-95v100h116l36 168h-109v100h130l39 186h93l-39 -186h134l39 186h93l-39 -186h95v-100h-116l-36 -168h109v-100h-130l-39 -186h-93zM244 286h134l36 168h-134z" />
    <glyph glyph-name="bar" unicode="|" horiz-adv-x="311" 
d="M99 800h114v-1035h-114v1035z" />
    <glyph glyph-name="brokenbar" unicode="&#xa6;" horiz-adv-x="311" 
d="M99 -235v375h114v-375h-114zM99 425v375h114v-375h-114z" />
    <glyph glyph-name="dagger" unicode="&#x2020;" horiz-adv-x="503" 
d="M195 453h-165v106h165v201h113v-201h165v-106h-165v-583h-113v583z" />
    <glyph glyph-name="daggerdbl" unicode="&#x2021;" horiz-adv-x="503" 
d="M195 453h-165v106h165v201h113v-201h165v-106h-165v-276h165v-106h-165v-201h-113v201h-165v106h165v276z" />
    <glyph glyph-name="logicalnot" unicode="&#xac;" 
d="M565 117h-109v184h-363v104h472v-288z" />
    <glyph glyph-name="ampersand" unicode="&#x26;" horiz-adv-x="773" 
d="M76 326q43 57 114 94q-50 59 -71 98t-21 81q0 48 26 88.5t73 64.5t111 24q66 0 111.5 -22.5t69.5 -61t24 -86.5q0 -50 -33.5 -99t-120.5 -100l158 -181q28 65 28 155v13h183v-113h-82q-15 -77 -55 -140l24 -28h113v-113h-176l-45 52q-43 -32 -98 -50t-120 -18
q-78 0 -135.5 26t-89 74t-31.5 113q0 72 43 129zM194 289.5q-25 -31.5 -25 -75.5q0 -55 40.5 -87t109.5 -32q70 0 121 35l-185 214q-36 -23 -61 -54.5zM297 477q54 33 73 62t19 55q0 35 -22 55.5t-59 20.5q-38 0 -61.5 -20t-23.5 -52q0 -22 16 -47t58 -74z" />
    <glyph glyph-name="asterisk" unicode="*" horiz-adv-x="501" 
d="M196 760h108l-18 -152l131 65l37 -101l-140 -34l109 -104l-84 -71l-89 135l-89 -135l-83 71l109 104l-140 34l36 101l132 -65z" />
    <glyph glyph-name="hyphen" unicode="-" horiz-adv-x="430" 
d="M44 343h342v-116h-342v116z" />
    <glyph glyph-name="endash" unicode="&#x2013;" horiz-adv-x="500" 
d="M0 343h500v-116h-500v116z" />
    <glyph glyph-name="emdash" unicode="&#x2014;" horiz-adv-x="1000" 
d="M0 343h1000v-116h-1000v116z" />
    <glyph glyph-name="parenleft" unicode="(" horiz-adv-x="378" 
d="M56 339q0 136 38.5 254t102.5 207h137q-67 -95 -106 -212.5t-39 -248.5q0 -130 39 -248t106 -213h-137q-64 89 -102.5 207t-38.5 254z" />
    <glyph glyph-name="parenright" unicode=")" horiz-adv-x="378" 
d="M189 339q0 131 -38.5 248.5t-106.5 212.5h137q64 -89 102.5 -207t38.5 -254t-38.5 -254t-102.5 -207h-137q68 95 106.5 213t38.5 248z" />
    <glyph glyph-name="slash" unicode="/" horiz-adv-x="532" 
d="M395 800h124l-382 -922h-124z" />
    <glyph glyph-name="backslash" unicode="\" horiz-adv-x="532" 
d="M13 800h124l382 -922h-124z" />
    <glyph glyph-name="bracketleft" unicode="[" horiz-adv-x="403" 
d="M99 800h257v-112h-132v-698h132v-112h-257v922z" />
    <glyph glyph-name="bracketright" unicode="]" horiz-adv-x="403" 
d="M304 -122h-257v112h132v698h-132v112h257v-922z" />
    <glyph glyph-name="braceleft" unicode="{" horiz-adv-x="409" 
d="M364 691h-28q-42 0 -64.5 -20t-22.5 -58q0 -19 5 -39.5t11 -40.5q8 -23 13 -45t5 -39q0 -84 -90 -110q90 -26 90 -110q0 -16 -5 -38.5t-13 -45.5q-6 -19 -11 -40t-5 -40q0 -37 22.5 -57.5t64.5 -20.5h28v-109h-52q-86 0 -137.5 40t-51.5 116q0 25 5.5 52.5t13.5 54.5
q8 22 12.5 43.5t4.5 40.5q0 31 -20.5 50t-62.5 19h-30v90h30q42 0 62.5 19t20.5 50q0 20 -4.5 41t-12.5 43q-8 27 -13.5 54.5t-5.5 52.5q0 76 51.5 116t137.5 40h52v-109z" />
    <glyph glyph-name="braceright" unicode="}" horiz-adv-x="410" 
d="M45 -13h28q88 0 88 78q0 19 -5 40t-11 40q-7 23 -12.5 45.5t-5.5 38.5q0 84 89 110q-89 26 -89 110q0 17 5.5 39t12.5 45q6 20 11 40.5t5 39.5q0 78 -88 78h-28v109h53q86 0 137.5 -40t51.5 -116q0 -25 -6 -52.5t-14 -54.5q-7 -22 -11.5 -43t-4.5 -41q0 -31 20.5 -50
t62.5 -19h29v-90h-29q-42 0 -62.5 -19t-20.5 -50q0 -19 4.5 -40.5t11.5 -43.5q8 -27 14 -54.5t6 -52.5q0 -76 -51.5 -116t-137.5 -40h-53v109z" />
    <glyph glyph-name="bullet" unicode="&#x2022;" horiz-adv-x="423" 
d="M63 297q0 65 41.5 106.5t106.5 41.5t106.5 -41.5t41.5 -106.5t-41.5 -107t-106.5 -42t-106.5 42t-41.5 107z" />
    <glyph glyph-name="guilsinglleft" unicode="&#x2039;" horiz-adv-x="405" 
d="M197 461h137l-146 -209l146 -210h-137l-144 209z" />
    <glyph glyph-name="guilsinglright" unicode="&#x203a;" horiz-adv-x="405" 
d="M216 252l-146 209h138l144 -210l-144 -209h-138z" />
    <glyph glyph-name="guillemotleft" unicode="&#xab;" horiz-adv-x="659" 
d="M197 461h137l-146 -209l146 -210h-137l-144 209zM451 461h137l-146 -209l146 -210h-137l-144 209z" />
    <glyph glyph-name="guillemotright" unicode="&#xbb;" horiz-adv-x="659" 
d="M216 252l-146 209h138l144 -210l-144 -209h-138zM470 252l-146 209h138l144 -210l-144 -209h-138z" />
    <glyph glyph-name="at" unicode="@" horiz-adv-x="1073" 
d="M720 62h31q52 0 95.5 31.5t70 89t26.5 136.5q0 92 -42 162.5t-124.5 110.5t-202.5 40q-98 0 -179.5 -31.5t-140.5 -89.5t-91.5 -138t-32.5 -178q0 -169 95.5 -261t263.5 -92q76 0 125.5 13t95.5 39l27 -52q-47 -28 -109.5 -43.5t-146.5 -15.5q-130 0 -223.5 49.5
t-143.5 141.5t-50 219q0 111 37 202.5t105 157.5t161.5 101.5t207.5 35.5q136 0 233.5 -45t149.5 -128t52 -197q0 -90 -32.5 -162.5t-98.5 -115t-167 -42.5h-98l12 90q-23 -40 -65.5 -69.5t-100.5 -29.5q-75 0 -124 52.5t-49 152.5q0 75 28.5 136t79 97.5t116.5 36.5
q61 0 99 -32.5t49 -79.5l24 97h100zM534 361q-37 0 -65.5 -20.5t-44 -54.5t-15.5 -75q0 -55 28 -85t74 -30q35 0 63 20t44 53.5t16 74.5q0 55 -26.5 86t-73.5 31z" />
    <glyph glyph-name="periodcentered" unicode="&#xb7;" horiz-adv-x="262" 
d="M47 280q0 34 22 58t62 24t62 -24t22 -58t-22 -58t-62 -24t-62 24t-22 58z" />
    <glyph glyph-name="hyphen.case" horiz-adv-x="430" 
d="M44 384h342v-116h-342v116z" />
    <glyph glyph-name="endash.case" horiz-adv-x="500" 
d="M0 384h500v-116h-500v116z" />
    <glyph glyph-name="emdash.case" horiz-adv-x="1000" 
d="M0 384h1000v-116h-1000v116z" />
    <glyph glyph-name="parenleft.case" horiz-adv-x="378" 
d="M56 380q0 136 38.5 254t102.5 207h137q-67 -95 -106 -212.5t-39 -248.5q0 -130 39 -248t106 -213h-137q-64 89 -102.5 207t-38.5 254z" />
    <glyph glyph-name="parenright.case" horiz-adv-x="378" 
d="M189 380q0 131 -38.5 248.5t-106.5 212.5h137q64 -89 102.5 -207t38.5 -254t-38.5 -254t-102.5 -207h-137q68 95 106.5 213t38.5 248z" />
    <glyph glyph-name="slash.case" horiz-adv-x="532" 
d="M395 841h124l-382 -922h-124z" />
    <glyph glyph-name="backslash.case" horiz-adv-x="532" 
d="M13 841h124l382 -922h-124z" />
    <glyph glyph-name="bracketleft.case" horiz-adv-x="403" 
d="M99 841h257v-112h-132v-698h132v-112h-257v922z" />
    <glyph glyph-name="bracketright.case" horiz-adv-x="403" 
d="M304 -81h-257v112h132v698h-132v112h257v-922z" />
    <glyph glyph-name="braceleft.case" horiz-adv-x="409" 
d="M364 732h-28q-42 0 -64.5 -20t-22.5 -58q0 -19 5 -39.5t11 -40.5q8 -23 13 -45t5 -39q0 -84 -90 -110q90 -26 90 -110q0 -16 -5 -38.5t-13 -45.5q-6 -19 -11 -40t-5 -40q0 -37 22.5 -57.5t64.5 -20.5h28v-109h-52q-86 0 -137.5 40t-51.5 116q0 25 5.5 52.5t13.5 54.5
q8 22 12.5 43.5t4.5 40.5q0 31 -20.5 50t-62.5 19h-30v90h30q42 0 62.5 19t20.5 50q0 20 -4.5 41t-12.5 43q-8 27 -13.5 54.5t-5.5 52.5q0 76 51.5 116t137.5 40h52v-109z" />
    <glyph glyph-name="braceright.case" horiz-adv-x="410" 
d="M45 28h28q88 0 88 78q0 19 -5 40t-11 40q-7 23 -12.5 45.5t-5.5 38.5q0 84 89 110q-89 26 -89 110q0 17 5.5 39t12.5 45q6 20 11 40.5t5 39.5q0 78 -88 78h-28v109h53q86 0 137.5 -40t51.5 -116q0 -25 -6 -52.5t-14 -54.5q-7 -22 -11.5 -43t-4.5 -41q0 -31 20.5 -50
t62.5 -19h29v-90h-29q-42 0 -62.5 -19t-20.5 -50q0 -19 4.5 -40.5t11.5 -43.5q8 -27 14 -54.5t6 -52.5q0 -76 -51.5 -116t-137.5 -40h-53v109z" />
    <glyph glyph-name="bullet.case" horiz-adv-x="423" 
d="M63 368q0 65 41.5 106.5t106.5 41.5t106.5 -41.5t41.5 -106.5t-41.5 -107t-106.5 -42t-106.5 42t-41.5 107z" />
    <glyph glyph-name="guilsinglleft.case" horiz-adv-x="405" 
d="M197 502h137l-146 -209l146 -210h-137l-144 209z" />
    <glyph glyph-name="guilsinglright.case" horiz-adv-x="405" 
d="M216 293l-146 209h138l144 -210l-144 -209h-138z" />
    <glyph glyph-name="guillemotleft.case" horiz-adv-x="659" 
d="M197 502h137l-146 -209l146 -210h-137l-144 209zM451 502h137l-146 -209l146 -210h-137l-144 209z" />
    <glyph glyph-name="guillemotright.case" horiz-adv-x="659" 
d="M216 293l-146 209h138l144 -210l-144 -209h-138zM470 293l-146 209h138l144 -210l-144 -209h-138z" />
    <glyph glyph-name="at.case" horiz-adv-x="1073" 
d="M720 103h31q52 0 95.5 31.5t70 89t26.5 136.5q0 92 -42 162.5t-124.5 110.5t-202.5 40q-98 0 -179.5 -31.5t-140.5 -89.5t-91.5 -138t-32.5 -178q0 -169 95.5 -261t263.5 -92q76 0 125.5 13t95.5 39l27 -52q-47 -28 -109.5 -43.5t-146.5 -15.5q-130 0 -223.5 49.5
t-143.5 141.5t-50 219q0 111 37 202.5t105 157.5t161.5 101.5t207.5 35.5q136 0 233.5 -45t149.5 -128t52 -197q0 -90 -32.5 -162.5t-98.5 -115t-167 -42.5h-98l12 90q-23 -40 -65.5 -69.5t-100.5 -29.5q-75 0 -124 52.5t-49 152.5q0 75 28.5 136t79 97.5t116.5 36.5
q61 0 99 -32.5t49 -79.5l24 97h100zM534 402q-37 0 -65.5 -20.5t-44 -54.5t-15.5 -75q0 -55 28 -85t74 -30q35 0 63 20t44 53.5t16 74.5q0 55 -26.5 86t-73.5 31z" />
    <glyph glyph-name="periodcentered.case" horiz-adv-x="262" 
d="M47 321q0 34 22 58t62 24t62 -24t22 -58t-22 -58t-62 -24t-62 24t-22 58z" />
    <glyph glyph-name="uni2010" unicode="&#x2010;" horiz-adv-x="430" 
d="M44 343h342v-116h-342v116z" />
    <glyph glyph-name="figuredash" unicode="&#x2012;" horiz-adv-x="666" 
d="M83 343h500v-116h-500v116z" />
    <glyph glyph-name="uni2015" unicode="&#x2015;" horiz-adv-x="1000" 
d="M0 343h1000v-116h-1000v116z" />
    <glyph glyph-name="uni00AD" unicode="&#xad;" horiz-adv-x="430" 
d="M44 343h342v-116h-342v116z" />
    <glyph glyph-name="Q.alt" horiz-adv-x="866" 
d="M759 -209q-56 0 -105 24t-88 55q-34 27 -66.5 46t-77.5 19q-63 0 -107.5 -27.5t-73.5 -58.5l-78 105q34 41 88 69q-96 45 -150.5 138.5t-54.5 218.5q0 118 48 207t135 139t204 50t204 -50t135 -139t48 -207q0 -133 -61 -229.5t-168 -138.5q8 -5 15.5 -10.5t15.5 -11.5
q40 -28 67.5 -43.5t65.5 -15.5q39 0 61.5 14t33.5 25l69 -109q-22 -28 -63 -49t-97 -21zM433 642q-74 0 -128 -33t-83 -92t-29 -137q0 -77 29.5 -136.5t83 -92.5t126.5 -33q74 0 127.5 33t83 92.5t29.5 136.5q0 78 -29 137t-82.5 92t-127.5 33z" />
    <glyph glyph-name="A" unicode="A" horiz-adv-x="820" 
d="M322 760h175l244 -649h67v-111h-316v108h99l-47 132h-282l-48 -132h95v-108h-297v111h68zM297 338h211l-105 292z" />
    <glyph glyph-name="B" unicode="B" horiz-adv-x="726" 
d="M123 649h-81v111h349q128 0 196 -53t68 -151q0 -60 -31.5 -103.5t-91.5 -62.5q75 -15 115.5 -64t40.5 -122q0 -96 -68 -150t-214 -54h-364v111h81v538zM543 220q0 61 -40.5 88t-122.5 27h-116v-227h119q85 0 122.5 28t37.5 84zM513 542q0 56 -34 83t-111 27h-104v-213
h108q72 0 106.5 24.5t34.5 78.5z" />
    <glyph glyph-name="C" unicode="C" horiz-adv-x="790" 
d="M738 432h-119v9q0 94 -54.5 147.5t-146.5 53.5q-68 0 -118.5 -31t-78 -88.5t-27.5 -135.5q0 -81 32 -141.5t89 -94t133 -33.5q67 0 123.5 28t90.5 74l89 -91q-48 -64 -130.5 -104.5t-189.5 -40.5q-115 0 -201.5 49.5t-135 139.5t-48.5 211q0 117 43 205.5t120.5 137.5
t181.5 49q81 0 143 -31t92 -90v105h112v-328z" />
    <glyph glyph-name="D" unicode="D" horiz-adv-x="816" 
d="M123 649h-81v111h315q208 0 311 -101.5t103 -278.5t-103 -278.5t-311 -101.5h-315v111h81v538zM623 380q0 138 -70 202t-203 64h-82v-532h82q133 0 203 64t70 202z" />
    <glyph glyph-name="E" unicode="E" horiz-adv-x="697" 
d="M123 649h-81v111h610v-226h-115v115h-269v-215h266v-106h-266v-217h268v114h116v-225h-610v111h81v538z" />
    <glyph glyph-name="F" unicode="F" horiz-adv-x="676" 
d="M123 649h-81v111h610v-236h-115v125h-269v-232h255v-109h-255v-197h107v-111h-333v111h81v538z" />
    <glyph glyph-name="G" unicode="G" horiz-adv-x="842" 
d="M775 0h-108v98q-31 -50 -94.5 -82t-152.5 -32q-110 0 -194.5 50t-132 140t-47.5 209q0 116 44 204.5t124.5 138.5t187.5 50q84 0 149 -30t95 -84v98h112v-292h-118v8q0 40 -23 80.5t-68.5 67.5t-115.5 27q-75 0 -129 -34t-82.5 -94.5t-28.5 -141.5q0 -82 29 -144
t85 -96.5t137 -34.5q65 0 114.5 23t77.5 63.5t29 93.5h-216v104h326v-390z" />
    <glyph glyph-name="H" unicode="H" horiz-adv-x="874" 
d="M123 649h-81v111h328v-111h-102v-212h338v212h-102v111h327v-111h-81v-538h81v-111h-327v111h102v217h-338v-217h102v-111h-328v111h81v538z" />
    <glyph glyph-name="I" unicode="I" horiz-adv-x="392" 
d="M123 649h-81v111h308v-111h-81v-538h81v-111h-308v111h81v538z" />
    <glyph glyph-name="J" unicode="J" horiz-adv-x="515" 
d="M272 649h-107v111h333v-111h-81v-386q0 -139 -67 -209t-180 -70q-52 0 -91.5 13t-62.5 33l63 108q13 -10 31.5 -17.5t43.5 -7.5q50 0 84 34.5t34 109.5v392z" />
    <glyph glyph-name="K" unicode="K" horiz-adv-x="791" 
d="M123 649h-81v111h314v-109h-93v-272l266 272h-79v109h302v-111h-64l-211 -210l220 -328h83v-111h-182l-220 341l-115 -114v-116h100v-111h-321v111h81v538z" />
    <glyph glyph-name="L" unicode="L" horiz-adv-x="678" 
d="M123 649h-81v111h334v-111h-107v-534h258v161h118v-276h-603v111h81v538z" />
    <glyph glyph-name="M" unicode="M" horiz-adv-x="1056" 
d="M123 649h-81v111h273l214 -524l212 524h272v-111h-81v-538h81v-111h-308v111h97v479l-212 -520h-125l-215 520v-479h97v-111h-305v111h81v538z" />
    <glyph glyph-name="N" unicode="N" horiz-adv-x="874" 
d="M760 0h-148l-362 555v-444h102v-111h-310v111h81v538h-81v111h229l361 -550v439h-102v111h311v-111h-81v-649z" />
    <glyph glyph-name="O" unicode="O" horiz-adv-x="866" 
d="M46 380q0 118 48 207t135 139t204 50t204 -50t135 -139t48 -207q0 -117 -48 -206.5t-135 -139.5t-204 -50t-204 50t-135 139.5t-48 206.5zM672 380q0 78 -29 137t-82.5 92t-127.5 33q-73 0 -127 -33t-83.5 -92t-29.5 -137t29.5 -137t83.5 -92t127 -33q74 0 127.5 33
t82.5 92t29 137z" />
    <glyph glyph-name="P" unicode="P" horiz-adv-x="700" 
d="M123 649h-81v111h330q148 0 221.5 -61t73.5 -178q0 -115 -73.5 -177t-221.5 -62h-106v-171h102v-111h-326v111h81v538zM522 521q0 67 -39.5 99t-129.5 32h-87v-261h87q90 0 129.5 32.5t39.5 97.5z" />
    <glyph glyph-name="Q" unicode="Q" horiz-adv-x="866" 
d="M674 -182l-151 177q-23 -6 -46.5 -8.5t-43.5 -2.5q-117 0 -204 50t-135 139.5t-48 206.5q0 118 48 207t135 139t204 50q118 0 204.5 -50t134.5 -139t48 -207q0 -114 -47.5 -200.5t-130.5 -130.5l127 -150zM643 517q-29 59 -82.5 92t-127.5 33q-73 0 -127 -33t-83.5 -92
t-29.5 -137t29.5 -137t83.5 -92t127 -33q74 0 127.5 33t82.5 92t29 137t-29 137z" />
    <glyph glyph-name="R" unicode="R" horiz-adv-x="747" 
d="M123 649h-81v111h329q297 0 297 -235q0 -79 -37 -128.5t-98 -74.5l119 -211h79v-111h-178l-156 292h-24h-107v-181h100v-111h-324v111h81v538zM523 525q0 67 -41.5 97t-125.5 30h-90v-253h95q80 0 121 30.5t41 95.5z" />
    <glyph glyph-name="S" unicode="S" horiz-adv-x="696" 
d="M49 259h110v-14q0 -42 25 -75t69 -51.5t100 -18.5q74 0 115 25.5t41 72.5q0 49 -37 75.5t-131 42.5l-55 9q-227 40 -227 229q0 66 33.5 116t92 78t133.5 28q70 0 123 -23.5t82 -63.5v71h105v-255h-110v11q0 64 -46.5 103.5t-120.5 39.5q-67 0 -104.5 -26.5t-37.5 -71.5
q0 -44 35 -72t126 -45l49 -8q125 -22 182.5 -76t57.5 -151q0 -69 -33 -119.5t-92.5 -78t-140.5 -27.5q-79 0 -142 23t-96 67v-74h-106v259z" />
    <glyph glyph-name="T" unicode="T" horiz-adv-x="758" 
d="M306 649h-157v-137h-116v248h691v-248h-115v137h-158v-538h102v-111h-348v111h101v538z" />
    <glyph glyph-name="U" unicode="U" horiz-adv-x="805" 
d="M243 280q0 -79 41.5 -120.5t120.5 -41.5t120.5 41.5t41.5 120.5v369h-98v111h320v-111h-81v-356q0 -148 -75 -228.5t-229 -80.5t-230 80.5t-76 228.5v356h-81v111h323v-111h-97v-369z" />
    <glyph glyph-name="V" unicode="V" horiz-adv-x="829" 
d="M78 649h-66v111h323v-109h-100l184 -507l186 507h-100v109h312v-111h-67l-249 -649h-175z" />
    <glyph glyph-name="W" unicode="W" horiz-adv-x="1122" 
d="M79 649h-68v111h317v-109h-99l111 -468l159 519h133l158 -525l112 474h-99v109h308v-111h-69l-175 -649h-159l-148 515l-147 -515h-159z" />
    <glyph glyph-name="X" unicode="X" horiz-adv-x="784" 
d="M306 390l-215 259h-68v111h328v-109h-86l144 -180l138 180h-85v109h300v-111h-67l-211 -271l213 -267h67v-111h-325v109h85l-144 188l-144 -188h85v-109h-301v111h67z" />
    <glyph glyph-name="Y" unicode="Y" horiz-adv-x="759" 
d="M452 297v-186h92v-111h-328v111h92v188l-236 350h-66v111h316v-109h-95l160 -238l158 238h-95v109h304v-111h-66z" />
    <glyph glyph-name="Z" unicode="Z" horiz-adv-x="671" 
d="M460 650h-314v-143h-116v253h607v-107l-435 -543h328v151h116v-261h-620v107z" />
    <glyph glyph-name="a" unicode="a" horiz-adv-x="672" 
d="M576 107h63v-107h-186v85q-23 -47 -69 -74t-109 -27q-71 0 -125 33.5t-84 94t-30 141.5q0 79 30 139t84 94t125 34q61 0 105.5 -27t65.5 -72v83h193v-107h-63v-290zM413.5 362q-37.5 41 -102.5 41q-64 0 -102.5 -41t-38.5 -110t38.5 -110t102.5 -41q65 0 102.5 41
t37.5 110t-37.5 110z" />
    <glyph glyph-name="b" unicode="b" horiz-adv-x="669" 
d="M93 683h-65v107h195v-364q22 43 68.5 68.5t106.5 25.5q72 0 124.5 -34t81 -94.5t28.5 -138.5q0 -79 -29 -139.5t-82 -95t-127 -34.5q-64 0 -111.5 26.5t-67.5 71.5v-82h-185v107h63v576zM217 252q0 -69 38.5 -110t102.5 -41q65 0 103 41t38 110t-38 110t-103 41
q-64 0 -102.5 -41t-38.5 -110z" />
    <glyph glyph-name="c" unicode="c" horiz-adv-x="556" 
d="M511 284h-102v12q0 47 -29 77.5t-82 30.5q-61 0 -94.5 -40.5t-33.5 -106.5q0 -71 42.5 -114t109.5 -43q48 0 78 17t48 38l74 -81q-34 -40 -89 -65t-121 -25q-86 0 -148 33.5t-95 94.5t-33 144q0 78 28.5 137.5t80.5 93t122 33.5q54 0 92.5 -21.5t57.5 -53.5v59h94v-220z
" />
    <glyph glyph-name="d" unicode="d" horiz-adv-x="667" 
d="M576 107h63v-107h-186v84q-23 -46 -68.5 -73t-110.5 -27q-71 0 -124.5 33.5t-83.5 94t-30 141.5q0 79 30 139t83.5 94t124.5 34q61 0 105.5 -26t66.5 -70v259h-80v107h210v-683zM413.5 362q-37.5 41 -102.5 41q-64 0 -102.5 -41t-38.5 -110t38.5 -110t102.5 -41
q65 0 102.5 41t37.5 110t-37.5 110z" />
    <glyph glyph-name="e" unicode="e" horiz-adv-x="572" 
d="M320 -16q-89 0 -152.5 34t-97.5 95t-34 140q0 83 32.5 142.5t90.5 92t136 32.5q112 0 176 -66t64 -180q0 -10 -1 -25.5t-3 -26.5h-359q7 -57 48 -92t112 -35q44 0 77 14.5t53 37.5l71 -82q-34 -37 -89 -59t-124 -22zM297 416q-51 0 -85 -30.5t-40 -79.5h238
q-5 49 -33 79.5t-80 30.5z" />
    <glyph glyph-name="f" unicode="f" horiz-adv-x="373" 
d="M96 397h-63v107h63v84q0 104 50.5 155.5t132.5 51.5q40 0 74.5 -10t56.5 -25l-43 -94q-25 17 -58 17q-37 0 -60 -24t-23 -70v-85h130v-107h-130v-290h102v-107h-295v107h63v290z" />
    <glyph glyph-name="g" unicode="g" horiz-adv-x="657" 
d="M576 37q0 -139 -73.5 -210.5t-220.5 -71.5q-136 0 -222 60l51 100q34 -21 72 -33t93 -12q82 0 126 42t44 121v43q-24 -40 -67.5 -63.5t-102.5 -23.5q-72 0 -126 33.5t-84 93t-30 137.5q0 81 31 141t85.5 93t123.5 33q62 0 109 -27t68 -74v85h186v-107h-63v-360zM311 403
q-66 0 -103.5 -42t-37.5 -109t37.5 -109t103.5 -42q65 0 102.5 41t37.5 110t-37.5 110t-102.5 41z" />
    <glyph glyph-name="h" unicode="h" horiz-adv-x="668" 
d="M93 683h-65v107h195v-349q22 39 66 59t99 20q194 0 194 -207v-206h63v-107h-266v107h73v181q0 115 -108 115q-121 0 -121 -123v-173h74v-107h-267v107h63v576z" />
    <glyph glyph-name="i" unicode="i" horiz-adv-x="315" 
d="M226 107h63v-107h-256v107h63v290h-63v107h193v-397zM51 680q0 34 21.5 57t64.5 23t64.5 -23t21.5 -57t-21.5 -57t-64.5 -23t-64.5 23t-21.5 57z" />
    <glyph glyph-name="j" unicode="j" horiz-adv-x="315" 
d="M237 -3q0 -118 -54.5 -180t-151.5 -62q-29 0 -58.5 6.5t-48.5 18.5l39 102q22 -12 50 -12q41 0 67.5 27.5t26.5 96.5v403h-67v107h197v-507zM63 680q0 34 21.5 57t64.5 23t64.5 -23t21.5 -57t-21.5 -57t-64.5 -23t-64.5 23t-21.5 57z" />
    <glyph glyph-name="k" unicode="k" horiz-adv-x="626" 
d="M93 683h-65v107h195v-509l168 127h-62v96h251v-107h-60l-131 -100l150 -190h65v-107h-146l-163 226l-72 -55v-69h74v-102h-267v107h63v576z" />
    <glyph glyph-name="l" unicode="l" horiz-adv-x="313" 
d="M223 107h62v-107h-255v107h63v576h-65v107h195v-683z" />
    <glyph glyph-name="m" unicode="m" horiz-adv-x="1009" 
d="M96 397h-63v107h186v-77q20 44 64.5 68.5t104.5 24.5q121 0 161 -102q22 48 70 75t113 27q192 0 192 -216v-197h63v-107h-263v107h70v181q0 115 -103 115q-55 0 -86 -31.5t-31 -89.5v-175h70v-107h-268v107h69v181q0 115 -103 115q-55 0 -85.5 -32t-30.5 -91v-173h70
v-107h-263v107h63v290z" />
    <glyph glyph-name="n" unicode="n" horiz-adv-x="671" 
d="M96 397h-63v107h186v-76q21 44 65.5 68t107.5 24q95 0 144.5 -51.5t49.5 -155.5v-206h63v-107h-267v107h74v181q0 115 -109 115q-121 0 -121 -123v-173h74v-107h-267v107h63v290z" />
    <glyph glyph-name="o" unicode="o" horiz-adv-x="626" 
d="M36 252q0 80 34.5 140.5t97 94t145.5 33.5t145.5 -33.5t97 -94t34.5 -140.5t-34.5 -140.5t-97 -94t-145.5 -33.5t-145.5 33.5t-97 94t-34.5 140.5zM456 252q0 68 -38.5 109.5t-104.5 41.5q-65 0 -104 -41.5t-39 -109.5t39 -109.5t104 -41.5q66 0 104.5 41.5t38.5 109.5z
" />
    <glyph glyph-name="p" unicode="p" horiz-adv-x="668" 
d="M92 397h-63v107h186v-80q21 44 68 70t109 26q71 0 125 -33.5t84.5 -93.5t30.5 -139q0 -80 -29.5 -141t-82.5 -95t-126 -34q-65 0 -108.5 25.5t-63.5 61.5v-199h80v-107h-273v107h63v525zM498 252q0 69 -38 110t-103 41q-64 0 -102 -41t-38 -110t38 -110t102 -41
q65 0 103 41t38 110z" />
    <glyph glyph-name="q" unicode="q" horiz-adv-x="668" 
d="M576 -128h63v-107h-273v107h80v199q-24 -39 -67 -63t-103 -24q-73 0 -127 34t-83.5 94.5t-29.5 140.5q0 81 31 141t85 93t124 33q63 0 109.5 -27.5t67.5 -73.5v85h186v-107h-63v-525zM207.5 143q37.5 -42 103.5 -42q65 0 102.5 41t37.5 110t-37.5 110t-102.5 41
q-66 0 -103.5 -42t-37.5 -109t37.5 -109z" />
    <glyph glyph-name="r" unicode="r" horiz-adv-x="439" 
d="M96 397h-63v107h186v-93q16 50 60.5 75t93.5 25q15 0 26.5 -2t21.5 -5v-117q-7 3 -20 4.5t-27 1.5q-64 0 -106 -34.5t-42 -103.5v-148h99v-107h-292v107h63v290z" />
    <glyph glyph-name="s" unicode="s" horiz-adv-x="538" 
d="M45 175h98v-7q0 -40 32.5 -66t94.5 -26q43 0 68.5 12.5t25.5 43.5q0 30 -28 43.5t-97 26.5l-35 6q-88 17 -125.5 58t-37.5 99q0 73 53 114t138 41q52 0 91 -17t59 -44v45h95v-173h-97v9q0 41 -29.5 64.5t-83.5 23.5q-39 0 -66 -13.5t-27 -45.5q0 -26 25 -39.5t97 -26.5
l40 -6q86 -15 123.5 -53.5t37.5 -103.5q0 -76 -52 -116t-139 -40q-53 0 -97 17t-67 49v-50h-97v175z" />
    <glyph glyph-name="t" unicode="t" horiz-adv-x="426" 
d="M100 397h-84v107h84v121l130 31v-152h140v-107h-140v-203q0 -90 78 -90q18 0 35 5.5t28 13.5l40 -94q-18 -15 -51 -26.5t-75 -11.5q-88 0 -136.5 48.5t-48.5 145.5v212z" />
    <glyph glyph-name="u" unicode="u" horiz-adv-x="652" 
d="M563 107h63v-107h-186v70q-18 -40 -62 -63t-106 -23q-94 0 -142.5 51.5t-48.5 160.5v201h-63v107h193v-288q0 -116 104 -116q57 0 87.5 29.5t30.5 80.5v187h-72v107h202v-397z" />
    <glyph glyph-name="v" unicode="v" horiz-adv-x="616" 
d="M65 397h-53v107h262v-105h-68l106 -270l112 270h-67v105h248v-107h-55l-177 -397h-131z" />
    <glyph glyph-name="w" unicode="w" horiz-adv-x="868" 
d="M66 397h-53v107h254v-105h-71l86 -241l109 346h102l109 -346l88 241h-72v105h237v-107h-52l-152 -397h-114l-103 311l-103 -311h-114z" />
    <glyph glyph-name="x" unicode="x" horiz-adv-x="600" 
d="M533 107h52v-107h-264v95h66l-98 98l-100 -98h65v-95h-239v107h52l157 147l-155 143h-49v107h259v-95h-63l97 -93l95 93h-62v95h233v-107h-49l-152 -142z" />
    <glyph glyph-name="y" unicode="y" horiz-adv-x="621" 
d="M66 397h-55v107h263v-105h-71l112 -270l114 270h-72v105h252v-107h-55l-182 -406q-36 -81 -74.5 -133.5t-86 -77.5t-110.5 -25q-33 0 -59 7t-44 18l38 102q11 -4 26.5 -8t35.5 -4q42 0 75 21.5t58 68.5l16 31z" />
    <glyph glyph-name="z" unicode="z" horiz-adv-x="523" 
d="M320 407h-186v-81h-100v178h442v-93l-287 -315h202v92h100v-188h-459v92z" />
    <glyph glyph-name="j.alt" horiz-adv-x="315" 
d="M238 -3q0 -114 -55 -173t-153 -59h-30v107h12q41 0 68 26t27 96v403h-66v107h197v-507zM63 680q0 34 21.5 57t64.5 23t64.5 -23t21.5 -57t-21.5 -57t-64.5 -23t-64.5 23t-21.5 57z" />
    <glyph glyph-name="copyright" unicode="&#xa9;" horiz-adv-x="795" 
d="M753 440q0 -104 -45 -183.5t-125 -123.5t-185 -44q-104 0 -185 44t-126.5 123.5t-45.5 183.5t45.5 183t126.5 123t185 44q105 0 185 -44t125 -123t45 -183zM110 440q0 -86 36.5 -150.5t101.5 -100t150 -35.5t149.5 35.5t101 100t36.5 150.5t-36.5 150t-101 99.5
t-149.5 35.5t-150 -35.5t-101.5 -99.5t-36.5 -150zM473 467q0 36 -19 56.5t-54 20.5q-43 0 -66 -27.5t-23 -71.5q0 -49 29 -79.5t80 -30.5q31 0 52.5 11t34.5 24l47 -63q-20 -24 -60.5 -40.5t-89.5 -16.5q-82 0 -136.5 49.5t-54.5 143.5q0 86 45.5 136t117.5 50q37 0 65 -14
t41 -36v46h67v-166h-76v8z" />
    <glyph glyph-name="registered" unicode="&#xae;" horiz-adv-x="505" 
d="M252 354q-64 0 -114 28t-78.5 77t-28.5 113t28.5 113t78.5 77t114 28q65 0 115 -28t78.5 -77t28.5 -113t-28.5 -113t-78.5 -77t-115 -28zM129.5 695q-46.5 -47 -46.5 -123t46.5 -123t122.5 -47t123 47t47 123t-47 123t-123 47t-122.5 -47zM314.5 664q20.5 -17 20.5 -47
q0 -20 -9.5 -33.5t-24.5 -20.5l30 -53h21v-39h-54l-43 82h-2h-28v-43h27v-39h-94v39h21v133h-21v38h98q38 0 58.5 -17zM287 617q0 27 -37 27h-25v-56h25q37 0 37 29z" />
    <glyph glyph-name="mu.1" unicode="&#x3bc;" horiz-adv-x="635" 
d="M76 504h130v-283q0 -121 101 -121q50 0 80 30t30 80v294h130v-397h63v-107h-186v65q-18 -36 -54 -58.5t-81 -22.5q-28 0 -51 7.5t-38 24.5v-251h-124v739z" />
    <glyph glyph-name="partialdiff" unicode="&#x2202;" 
d="M455 36.5q-70 -52.5 -167 -52.5q-71 0 -125.5 28.5t-84.5 81.5t-30 127q0 71 32 126.5t87.5 87t124.5 31.5q61 0 108.5 -20.5t74.5 -58.5q1 21 1 43q0 109 -45 165t-126 56q-34 0 -73.5 -12.5t-72.5 -37.5l-45 90q47 38 100 53.5t107 15.5q132 0 206.5 -90.5t74.5 -251.5
q0 -134 -38.5 -231.5t-108.5 -150zM431 168.5q21 34.5 21 75.5q0 55 -37 89.5t-97 34.5q-64 0 -106.5 -41t-42.5 -107q0 -58 35.5 -92.5t93.5 -34.5q42 0 77 20.5t56 55z" />
    <glyph glyph-name="product" unicode="&#x220f;" horiz-adv-x="720" 
d="M91 649h-81v111h700v-111h-82v-729h-125v729h-287v-729h-125v729z" />
    <glyph glyph-name="summation" unicode="&#x2211;" 
d="M280 341l-242 313v106h571v-225h-116v114h-308l241 -309l-239 -309h309v114h115v-225h-576v106z" />
    <glyph glyph-name="uni2215" unicode="&#x2215;" horiz-adv-x="160" 
d="M272 744h125l-509 -744h-125z" />
    <glyph glyph-name="uni2219" unicode="&#x2219;" 
d="M245 353q0 34 22 58t62 24t62 -24t22 -58t-22 -58t-62 -24t-62 24t-22 58z" />
    <glyph glyph-name="radical" unicode="&#x221a;" 
d="M389 0h-119l-143 360h-100v110h192l114 -313l253 673h126z" />
    <glyph glyph-name="infinity" unicode="&#x221e;" horiz-adv-x="733" 
d="M696 347q0 -82 -46.5 -132t-126.5 -50q-47 0 -89.5 24.5t-66.5 67.5q-24 -43 -66.5 -67.5t-89.5 -24.5q-81 0 -128 50t-47 132q0 83 47 133.5t128 50.5q47 0 89.5 -25t66.5 -68q24 43 66.5 68t89.5 25q80 0 126.5 -50.5t46.5 -133.5zM321 348q-15 42 -42 64.5t-59 22.5
q-38 0 -61 -23.5t-23 -64.5q0 -40 23 -63.5t61 -23.5q32 0 59 23t42 65zM596 347q0 41 -22.5 64.5t-60.5 23.5q-32 0 -59 -22.5t-42 -64.5q15 -42 42 -65t59 -23q38 0 60.5 23.5t22.5 63.5z" />
    <glyph glyph-name="integral" unicode="&#x222b;" 
d="M237 538q-2 17 -3.5 37.5t-1.5 35.5q0 88 46 136t129 48q66 0 120 -30l-41 -95q-28 17 -66 17q-37 0 -56.5 -21.5t-19.5 -60.5q0 -13 1.5 -31.5t3.5 -36.5l72 -525q2 -15 3.5 -36.5t1.5 -36.5q0 -88 -46 -136t-129 -48q-67 0 -121 30l42 95q28 -17 66 -17q36 0 56 21.5
t20 60.5q0 14 -1.5 32t-3.5 36z" />
    <glyph glyph-name="lozenge" unicode="&#x25ca;" 
d="M40 380l222 380h134l223 -380l-223 -380h-134zM483 380l-153 270l-154 -271l153 -269z" />
    <glyph glyph-name="Delta" unicode="&#x2206;" 
d="M246 760h166l237 -649v-111h-639v111zM329 637l-184 -522h370z" />
    <glyph glyph-name="Omega" unicode="&#x2126;" horiz-adv-x="858" 
d="M68 413q0 102 42 184t122.5 130.5t196.5 48.5t196.5 -48.5t122.5 -130.5t42 -184q0 -90 -36 -172.5t-112 -133.5h175v-107h-323v104q56 32 89.5 79.5t48.5 104t15 114.5q0 74 -25.5 133t-74.5 93.5t-118 34.5q-68 0 -117 -34.5t-75 -93.5t-26 -133q0 -58 15 -114.5
t49 -104t89 -79.5v-104h-323v107h175q-76 51 -112 133.5t-36 172.5z" />
    <glyph glyph-name="pi" unicode="&#x3c0;" horiz-adv-x="686" 
d="M240 0h-130v398h-88v106h621v-106h-88v-248q0 -31 11 -43.5t32 -12.5q11 0 22.5 5t18.5 9l30 -85q-17 -14 -45.5 -23.5t-59.5 -9.5q-70 0 -104.5 38t-34.5 119v251h-185v-398z" />
    <glyph glyph-name="ordfeminine" unicode="&#xaa;" horiz-adv-x="507" 
d="M87.5 707.5q43.5 52.5 121.5 52.5q42 0 73 -18.5t45 -48.5v57h138v-83h-41v-187h41v-83h-142v55q-15 -28 -44 -47t-72 -19q-78 0 -120.5 51.5t-42.5 137.5q0 80 43.5 132.5zM63 314h402v-83h-402v83zM303 503q23 28 23 70t-23 70t-66 28t-65.5 -28t-22.5 -70t22.5 -70
t65.5 -28t66 28z" />
    <glyph glyph-name="ordmasculine" unicode="&#xba;" horiz-adv-x="480" 
d="M44 573q0 56 24.5 98t69 65.5t102.5 23.5q59 0 103 -23.5t69 -65.5t25 -98t-25 -98t-69 -65.5t-103 -23.5q-58 0 -102.5 23.5t-69 65.5t-24.5 98zM65 231v83h351v-83h-351zM149 573q0 -43 25 -70t66 -27t66.5 27t25.5 70q0 44 -25.5 70.5t-66.5 26.5t-66 -26.5t-25 -70.5
z" />
    <glyph glyph-name="trademark" unicode="&#x2122;" horiz-adv-x="960" 
d="M704 420h-61l-103 241v-203h46v-68h-169v68h40v234h-40v68h165l93 -216l91 216h164v-68h-39v-234h39v-68h-169v68h46v204zM146 692h-66v-65h-65v133h354v-133h-65v65h-66v-234h48v-68h-188v68h48v234z" />
    <glyph glyph-name="quoteleft" unicode="&#x2018;" horiz-adv-x="263" 
d="M170 810l50 -58q-32 -26 -55.5 -56t-32.5 -62h2q34 0 55 -20t21 -55q0 -34 -22.5 -55t-57.5 -21q-39 0 -63.5 30t-24.5 79q0 64 35 121t93 97z" />
    <glyph glyph-name="quoteright" unicode="&#x2019;" horiz-adv-x="263" 
d="M93 483l-50 58q32 26 55.5 56t33.5 62h-2q-34 0 -55 20.5t-21 54.5q0 33 22.5 54.5t56.5 21.5q39 0 63.5 -30t24.5 -79q0 -64 -35 -120.5t-93 -97.5z" />
    <glyph glyph-name="quotesinglbase" unicode="&#x201a;" horiz-adv-x="263" 
d="M93 -170l-50 58q32 26 55.5 56t33.5 62h-2q-34 0 -55 20.5t-21 54.5q0 33 22.5 54.5t56.5 21.5q39 0 63.5 -30t24.5 -79q0 -64 -35 -120.5t-93 -97.5z" />
    <glyph glyph-name="quotedblleft" unicode="&#x201c;" horiz-adv-x="495" 
d="M170 810l50 -58q-32 -26 -55.5 -56t-32.5 -62h2q34 0 55 -20t21 -55q0 -34 -22.5 -55t-57.5 -21q-39 0 -63.5 30t-24.5 79q0 64 35 121t93 97zM402 810l50 -58q-32 -26 -55.5 -56t-32.5 -62h2q34 0 55 -20t21 -55q0 -34 -22.5 -55t-57.5 -21q-39 0 -63.5 30t-24.5 79
q0 64 35 121t93 97z" />
    <glyph glyph-name="quotedblright" unicode="&#x201d;" horiz-adv-x="495" 
d="M93 483l-50 58q32 26 55.5 56t33.5 62h-2q-34 0 -55 20.5t-21 54.5q0 33 22.5 54.5t56.5 21.5q39 0 63.5 -30t24.5 -79q0 -64 -35 -120.5t-93 -97.5zM325 483l-50 58q32 26 55.5 56t33.5 62h-2q-34 0 -55 20.5t-21 54.5q0 33 22.5 54.5t56.5 21.5q39 0 63.5 -30t24.5 -79
q0 -64 -35 -120.5t-93 -97.5z" />
    <glyph glyph-name="quotedblbase" unicode="&#x201e;" horiz-adv-x="495" 
d="M93 -170l-50 58q32 26 55.5 56t33.5 62h-2q-34 0 -55 20.5t-21 54.5q0 33 22.5 54.5t56.5 21.5q39 0 63.5 -30t24.5 -79q0 -64 -35 -120.5t-93 -97.5zM325 -170l-50 58q32 26 55.5 56t33.5 62h-2q-34 0 -55 20.5t-21 54.5q0 33 22.5 54.5t56.5 21.5q39 0 63.5 -30
t24.5 -79q0 -64 -35 -120.5t-93 -97.5z" />
    <glyph glyph-name="minute" unicode="&#x2032;" horiz-adv-x="246" 
d="M91 760h116l-59 -262h-95z" />
    <glyph glyph-name="second" unicode="&#x2033;" horiz-adv-x="441" 
d="M91 760h116l-59 -262h-95zM287 760h116l-59 -262h-95z" />
    <glyph glyph-name="periodcentered.loclCAT" horiz-adv-x="189" 
d="M14 421q0 32 21.5 54t58.5 22q36 0 57 -22t21 -54t-21 -54t-57 -22q-37 0 -58.5 22t-21.5 54z" />
    <glyph glyph-name="periodcentered.loclCAT.cap" horiz-adv-x="9" 
d="M-215 475q0 32 21.5 54t58.5 22q36 0 57 -22t21 -54t-21 -54t-57 -22q-37 0 -58.5 22t-21.5 54z" />
    <glyph glyph-name="dotlessi" unicode="&#x131;" horiz-adv-x="315" 
d="M226 107h63v-107h-256v107h63v290h-63v107h193v-397z" />
    <glyph glyph-name="uni0237" unicode="&#x237;" horiz-adv-x="315" 
d="M237 -3q0 -118 -54.5 -180t-151.5 -62q-29 0 -58.5 6.5t-48.5 18.5l39 102q22 -12 50 -12q41 0 67.5 27.5t26.5 96.5v403h-67v107h197v-507z" />
    <glyph glyph-name="IJ" unicode="&#x132;" horiz-adv-x="821" 
d="M578 649h-126v111h352v-111h-81v-386q0 -134 -73 -206.5t-206 -72.5q-82 0 -146 25t-106 71l81 95q27 -31 68.5 -46.5t87.5 -15.5q64 0 106.5 36t42.5 109v391zM349 269h-307v111h81v269h-81v111h307v-111h-80v-269h80v-111z" />
    <glyph glyph-name="IJacute" horiz-adv-x="821" 
d="M578 649h-126v111h352v-111h-81v-386q0 -134 -73 -206.5t-206 -72.5q-82 0 -146 25t-106 71l81 95q27 -31 68.5 -46.5t87.5 -15.5q64 0 106.5 36t42.5 109v391zM349 269h-307v111h81v269h-81v111h307v-111h-80v-269h80v-111zM209 998h126l-98 -165h-102zM664 998h126
l-98 -165h-102z" />
    <glyph glyph-name="dotlessij" horiz-adv-x="630" 
d="M553 -3q0 -118 -54.5 -180t-152.5 -62q-29 0 -58.5 6.5t-47.5 18.5l39 102q21 -12 50 -12q41 0 67.5 27.5t26.5 96.5v403h-197v-290h63v-107h-256v107h63v290h-63v107h520v-507z" />
    <glyph glyph-name="ij" unicode="&#x133;" horiz-adv-x="630" 
d="M553 -3q0 -118 -54.5 -180t-152.5 -62q-29 0 -58.5 6.5t-47.5 18.5l39 102q21 -12 50 -12q41 0 67.5 27.5t26.5 96.5v403h-197v-290h63v-107h-256v107h63v290h-63v107h520v-507zM50 680q0 34 21.5 57t64.5 23t64.5 -23t21.5 -57t-21.5 -57t-64.5 -23t-64.5 23t-21.5 57z
M378 680q0 34 21.5 57t64.5 23t64.5 -23t21.5 -57t-21.5 -57t-64.5 -23t-64.5 23t-21.5 57z" />
    <glyph glyph-name="ijacute" horiz-adv-x="630" 
d="M553 -3q0 -118 -54.5 -180t-152.5 -62q-29 0 -58.5 6.5t-47.5 18.5l39 102q21 -12 50 -12q41 0 67.5 27.5t26.5 96.5v403h-197v-290h63v-107h-256v107h63v290h-63v107h520v-507zM493 780h126l-99 -195h-102zM152 780h126l-99 -195h-102z" />
    <glyph glyph-name="xx.f_liga" horiz-adv-x="319" 
d="M96 396h-63v107h63v86q0 104 49.5 155t134.5 51q21 0 40.5 -2.5t35.5 -9.5l-17 -101q-12 5 -35 5q-35 0 -56.5 -27t-21.5 -75v-82h120v-107h-120v-289h89v-107h-282v107h63v289z" />
    <glyph glyph-name="Thorn" unicode="&#xde;" horiz-adv-x="699" 
d="M123 649h-81v111h311v-99h-87v-51h109q147 0 219 -58.5t72 -171.5q0 -112 -70.5 -171t-217.5 -59h-112v-51h87v-99h-311v111h81v538zM521 380q0 66 -40 97.5t-130 31.5h-85v-258h85q90 0 130 32.5t40 96.5z" />
    <glyph glyph-name="AE" unicode="&#xc6;" horiz-adv-x="1150" 
d="M442 649h-76v111h739v-226h-116v115h-271v-215h269v-106h-269v-217h271v114h116v-225h-614v111h90v130h-269l-86 -130h83v-111h-302v111h77zM581 647l-205 -310h205v310z" />
    <glyph glyph-name="OE" unicode="&#x152;" horiz-adv-x="1231" 
d="M1186 534h-115v115h-271v-215h268v-106h-268v-217h270v114h116v-225h-504v101q-46 -54 -114 -85.5t-155 -31.5q-111 0 -193.5 50t-128 139.5t-45.5 206.5q0 118 46 207t129 139t194 50q86 0 153.5 -31t113.5 -86v101h504v-226zM304 151.5q53 -33.5 124 -33.5
q72 0 125.5 33.5t82.5 92.5t29 136q0 78 -29 137t-82 92t-126 33q-72 0 -125 -33t-81.5 -92t-28.5 -137q0 -77 29 -136t82 -92.5z" />
    <glyph glyph-name="uni1E9E" unicode="&#x1e9e;" horiz-adv-x="812" 
d="M114 445q0 159 84 245t234 86q77 0 150 -24.5t127 -69.5v-78l-145 -174q60 -1 106 -27.5t72 -75t26 -112.5q0 -69 -32 -121t-88.5 -81t-132.5 -29q-43 0 -82 10t-65 27l42 94q20 -12 43 -17t45 -5q60 0 94 35.5t34 93.5q0 59 -36 93.5t-99 34.5q-13 0 -27 -1.5t-27 -3.5
l-31 71l168 206q-30 17 -62.5 25t-66.5 8q-189 0 -189 -222v-322h70v-111h-293v111h81v334z" />
    <glyph glyph-name="thorn" unicode="&#xfe;" horiz-adv-x="668" 
d="M92 683h-65v107h195v-364q21 41 67.5 67.5t107.5 26.5q71 0 123.5 -34t82 -93.5t29.5 -138.5q0 -81 -29.5 -142t-83 -94.5t-124.5 -33.5q-61 0 -106.5 24t-66.5 64v-200h80v-107h-273v107h63v811zM498 252q0 69 -38 110t-103 41q-64 0 -102 -41t-38 -110t38 -110t102 -41
q65 0 103 41t38 110z" />
    <glyph glyph-name="ae" unicode="&#xe6;" horiz-adv-x="966" 
d="M434 504h105v-54q24 34 65.5 52t95.5 18q69 0 120.5 -30t80 -85t28.5 -131q0 -10 -1 -25.5t-3 -26.5h-359q7 -57 48 -92t111 -35q46 0 78.5 14.5t51.5 37.5l72 -82q-31 -34 -85.5 -57.5t-126.5 -23.5q-88 0 -145.5 34.5t-82.5 96.5q-25 -58 -77 -94.5t-130 -36.5
q-73 0 -128 33.5t-85.5 94.5t-30.5 141q0 79 30.5 139t84 94t122.5 34q53 0 95 -20.5t66 -56.5v61zM311 403q-64 0 -102.5 -41t-38.5 -110t38.5 -110t102.5 -41q65 0 102.5 41t37.5 110t-37.5 110t-102.5 41zM691 416q-52 0 -85.5 -30t-40.5 -80h239q-5 49 -33.5 79.5
t-79.5 30.5z" />
    <glyph glyph-name="oe" unicode="&#x153;" horiz-adv-x="986" 
d="M599 495q53 25 113 25q110 0 173.5 -66t63.5 -180q0 -10 -1 -25.5t-3 -26.5h-359q8 -58 49 -92.5t111 -34.5q45 0 78 14.5t52 37.5l71 -82q-31 -34 -85 -57.5t-127 -23.5q-70 0 -128 26.5t-85 76.5q-31 -51 -88 -77t-123 -26q-83 0 -145 33.5t-96 94t-34 140.5t34.5 140
t96.5 94t145 34q63 0 118 -25.5t88 -71.5q28 47 81 72zM418.5 143q37.5 42 37.5 109q0 66 -37.5 108.5t-105.5 42.5q-67 0 -105 -42.5t-38 -108.5q0 -67 38 -109t105 -42q68 0 105.5 42zM585 306h239q-5 49 -33 79.5t-80 30.5t-85.5 -30t-40.5 -80z" />
    <glyph glyph-name="germandbls" unicode="&#xdf;" horiz-adv-x="674" 
d="M213 0h-193v107h63v432q0 121 71 188.5t192 67.5q72 0 124.5 -26t81.5 -73t29 -109q0 -56 -26.5 -101t-70.5 -67q71 -20 112 -72.5t41 -130.5q0 -108 -64 -170t-177 -62q-36 0 -66 6t-59 17l32 97q32 -16 77 -16q62 0 97 34.5t35 95.5q0 65 -41.5 97.5t-115.5 32.5h-39
v105h23q56 0 87.5 32.5t31.5 87.5q0 52 -31.5 83t-84.5 31q-62 0 -95.5 -41.5t-33.5 -120.5v-525z" />
    <glyph glyph-name="kgreenlandic" unicode="&#x138;" horiz-adv-x="630" 
d="M96 397h-63v107h193v-224l168 128h-62v96h251v-107h-59l-132 -100l150 -190h65v-107h-146l-162 226l-73 -56v-68h74v-102h-267v107h63v290z" />
    <glyph glyph-name="florin" unicode="&#x192;" horiz-adv-x="377" 
d="M226 -24q0 -112 -54 -166.5t-149 -54.5q-32 0 -64 8.5t-52 22.5l41 97q8 -6 21.5 -11t29.5 -5q44 0 70.5 28t26.5 82v420h-63v107h63v84q0 104 50.5 155.5t132.5 51.5q40 0 74.5 -10t56.5 -25l-43 -94q-25 17 -58 17q-37 0 -60 -24t-23 -70v-85h130v-107h-130v-421z" />
    <glyph glyph-name="Eth" unicode="&#xd0;" horiz-adv-x="816" 
d="M123 322h-81v117h81v210h-81v111h315q208 0 311 -101.5t103 -278.5t-103 -278.5t-311 -101.5h-315v111h81v211zM623 380q0 138 -70 202t-203 64h-82v-207h126v-117h-126v-208h82q133 0 203 64t70 202z" />
    <glyph glyph-name="Dcroat" unicode="&#x110;" horiz-adv-x="816" 
d="M123 322h-81v117h81v210h-81v111h315q208 0 311 -101.5t103 -278.5t-103 -278.5t-311 -101.5h-315v111h81v211zM623 380q0 138 -70 202t-203 64h-82v-207h126v-117h-126v-208h82q133 0 203 64t70 202z" />
    <glyph glyph-name="Hbar" unicode="&#x126;" horiz-adv-x="874" 
d="M42 0v111h81v397h-81v69h81v72h-81v111h328v-111h-102v-72h338v72h-102v111h327v-111h-81v-72h80v-69h-80v-397h81v-111h-327v111h102v217h-338v-217h102v-111h-328zM268 437h338v71h-338v-71z" />
    <glyph glyph-name="Lslash" unicode="&#x141;" horiz-adv-x="678" 
d="M645 0h-603v111h81v178l-79 -34v102l79 35v257h-81v111h334v-111h-107v-193l187 83v-102l-187 -83v-239h258v161h118v-276z" />
    <glyph glyph-name="Oslash" unicode="&#xd8;" horiz-adv-x="866" 
d="M292 6q-64 22 -112 62l-89 -86l-64 69l89 86q-34 49 -52 110.5t-18 132.5q0 118 47.5 207t134.5 139t205 50q77 0 141 -22t113 -62l88 86l65 -69l-89 -87q33 -49 51 -110t18 -132q0 -117 -47.5 -206.5t-134 -139.5t-205.5 -50q-77 0 -141 22zM216 235l375 364
q-64 51 -158 51q-76 0 -131.5 -34t-86 -94.5t-30.5 -141.5q0 -83 31 -145zM433 110q76 0 131.5 34t86 95t30.5 141q0 83 -31 144l-375 -363q64 -51 158 -51z" />
    <glyph glyph-name="eth" unicode="&#xf0;" horiz-adv-x="614" 
d="M578 286q0 -93 -33 -161t-94.5 -104.5t-147.5 -36.5q-80 0 -140.5 32t-94 91.5t-33.5 139.5q0 78 32 135t86 88.5t121 31.5q44 0 84.5 -16t65.5 -51q-37 104 -120 181l-140 -69l-28 60l111 55q-46 33 -107 67l59 87q89 -45 157 -100l126 63l29 -60l-101 -50
q82 -79 125 -175t43 -208zM445 246q0 64 -38.5 104.5t-100.5 40.5q-63 0 -100.5 -40t-37.5 -105q0 -66 37 -105.5t100 -39.5t101.5 41t38.5 104z" />
    <glyph glyph-name="dcroat" unicode="&#x111;" horiz-adv-x="663" 
d="M576 107h63v-107h-186v84q-24 -47 -70 -73.5t-108 -26.5q-71 0 -125 33.5t-84 93t-30 137.5q0 79 31.5 137.5t86 90.5t123.5 32q55 0 100.5 -24.5t68.5 -69.5v158h-161v71h161v50h-80v97h210v-147h76v-71h-76v-465zM311 101q66 0 103 41t37 104q0 64 -37 104.5t-103 40.5
q-67 0 -104 -40.5t-37 -103.5q0 -64 37 -105t104 -41z" />
    <glyph glyph-name="hbar" unicode="&#x127;" horiz-adv-x="668" 
d="M93 572h-65v71h65v50h-65v97h195v-147h160v-71h-160v-141q23 39 66.5 58.5t98.5 19.5q194 0 194 -206v-196h63v-107h-266v107h73v170q0 115 -108 115q-59 0 -90 -31.5t-31 -90.5v-163h74v-107h-267v107h63v465z" />
    <glyph glyph-name="lslash" unicode="&#x142;" horiz-adv-x="301" 
d="M214 478l85 45v-90l-85 -46v-280h62v-107h-255v107h63v210l-84 -45v91l84 45v275h-65v107h195v-312z" />
    <glyph glyph-name="oslash" unicode="&#xf8;" horiz-adv-x="626" 
d="M152 27l-48 -50l-58 56l46 47q-27 34 -41.5 77.5t-14.5 94.5q0 80 34.5 140.5t97 94t145.5 33.5q93 0 161 -43l48 50l58 -57l-45 -47q26 -34 40.5 -77t14.5 -94q0 -80 -34.5 -140.5t-97 -94t-145.5 -33.5q-93 0 -161 43zM392 392q-34 19 -79 19q-70 0 -110.5 -44.5
t-40.5 -114.5q0 -45 17 -81zM424 137.5q40 44.5 40 114.5q0 45 -17 80l-213 -220q35 -19 79 -19q71 0 111 44.5z" />
    <glyph glyph-name="uni0327" unicode="&#x327;" horiz-adv-x="0" 
d="M-13 25h78l-42 -96q46 -1 72.5 -25.5t26.5 -64.5q0 -46 -36 -73.5t-98 -27.5q-25 0 -48.5 4t-46.5 14l14 56q28 -13 61 -13q29 0 45.5 11t16.5 33q0 20 -15.5 30.5t-43.5 10.5q-27 0 -48 -7z" />
    <glyph glyph-name="uni0327.cap" horiz-adv-x="0" 
d="M-3 25h83l-43 -97q44 -2 70.5 -25.5t26.5 -62.5q0 -47 -35.5 -74.5t-98.5 -27.5q-26 0 -51.5 4.5t-47.5 14.5l15 57q14 -7 31.5 -11t33.5 -4q29 0 45 11.5t16 32.5q0 41 -62 41q-10 0 -25 -1.5t-24 -4.5z" />
    <glyph glyph-name="cedilla" unicode="&#xb8;" horiz-adv-x="671" 
d="M317 25h78l-42 -96q46 -1 72.5 -25.5t26.5 -64.5q0 -46 -36 -73.5t-98 -27.5q-25 0 -48.5 4t-46.5 14l14 56q28 -13 61 -13q29 0 45.5 11t16.5 33q0 20 -15.5 30.5t-43.5 10.5q-27 0 -48 -7z" />
    <glyph glyph-name="uni0326" unicode="&#x326;" horiz-adv-x="0" 
d="M-17 -305l-40 45q46 39 57 79h-3q-28 0 -45 17t-17 45t18.5 45.5t46.5 17.5q35 0 53.5 -26t18.5 -65q0 -43 -23.5 -84t-65.5 -74z" />
    <glyph glyph-name="uni0326.cap" horiz-adv-x="0" 
d="M-17 -305l-40 45q46 39 57 79h-3q-28 0 -45 17t-17 45t18.5 45.5t46.5 17.5q35 0 53.5 -26t18.5 -65q0 -43 -23.5 -84t-65.5 -74z" />
    <glyph glyph-name="uni0312" unicode="&#x312;" horiz-adv-x="0" 
d="M24 850l40 -44q-46 -38 -57 -79h2q29 0 46 -17t17 -45t-18.5 -46t-46.5 -18q-35 0 -53.5 26t-18.5 65q0 44 23 85t66 73z" />
    <glyph glyph-name="uni0328" unicode="&#x328;" horiz-adv-x="0" 
d="M-10 15l74 -15q-52 -18 -77.5 -46t-25.5 -56q0 -29 18 -43.5t42 -14.5q15 0 29.5 3.5t24.5 7.5l17 -67q-15 -7 -40.5 -12.5t-52.5 -5.5q-60 0 -95.5 30t-35.5 80q0 51 35 87.5t87 51.5z" />
    <glyph glyph-name="uni0328.cap" horiz-adv-x="0" 
d="M-12 11l76 -11q-56 -22 -83 -50t-27 -57q0 -25 17.5 -39t43.5 -14q14 0 28 3.5t23 7.5l14 -67q-38 -18 -92 -18q-56 0 -91 30t-35 79q0 45 32.5 83.5t93.5 52.5z" />
    <glyph glyph-name="uni0328.round" horiz-adv-x="0" 
d="M40 61l40 -19q-45 -35 -67.5 -60.5t-30.5 -44.5t-8 -36q0 -28 15 -44.5t46 -16.5q14 0 28.5 3.5t24.5 7.5l16 -67q-15 -7 -40.5 -12.5t-52.5 -5.5q-69 0 -100 34.5t-31 80.5t36.5 91.5t123.5 88.5z" />
    <glyph glyph-name="uni0328.round.cap" horiz-adv-x="0" 
d="M32 43l47 -10q-55 -39 -77 -70.5t-22 -63.5t19 -45.5t46 -13.5q32 0 56 11l15 -67q-15 -7 -40.5 -12.5t-57.5 -5.5q-58 0 -95 29.5t-37 84.5q0 53 36 94.5t110 68.5z" />
    <glyph glyph-name="ogonek" unicode="&#x2db;" horiz-adv-x="671" 
d="M343 15l74 -15q-52 -18 -77.5 -46t-25.5 -56q0 -29 18 -43.5t42 -14.5q15 0 29.5 3.5t24.5 7.5l17 -67q-15 -7 -40.5 -12.5t-52.5 -5.5q-60 0 -95.5 30t-35.5 80q0 51 35 87.5t87 51.5z" />
    <glyph glyph-name="Ccedilla" unicode="&#xc7;" horiz-adv-x="790" 
d="M738 432h-119v9q0 94 -54.5 147.5t-146.5 53.5q-68 0 -118.5 -31t-78 -88.5t-27.5 -135.5q0 -81 32 -141.5t89 -94t133 -33.5q67 0 123.5 28t90.5 74l89 -91q-48 -64 -130.5 -104.5t-189.5 -40.5q-115 0 -201.5 49.5t-135 139.5t-48.5 211q0 117 43 205.5t120.5 137.5
t181.5 49q81 0 143 -31t92 -90v105h112v-328zM407 25h83l-43 -97q44 -2 70.5 -25.5t26.5 -62.5q0 -47 -35.5 -74.5t-98.5 -27.5q-26 0 -51.5 4.5t-47.5 14.5l15 57q14 -7 31.5 -11t33.5 -4q29 0 45 11.5t16 32.5q0 41 -62 41q-10 0 -25 -1.5t-24 -4.5z" />
    <glyph glyph-name="Scedilla" unicode="&#x15e;" horiz-adv-x="696" 
d="M49 259h110v-14q0 -42 25 -75t69 -51.5t100 -18.5q74 0 115 25.5t41 72.5q0 49 -37 75.5t-131 42.5l-55 9q-227 40 -227 229q0 66 33.5 116t92 78t133.5 28q70 0 123 -23.5t82 -63.5v71h105v-255h-110v11q0 64 -46.5 103.5t-120.5 39.5q-67 0 -104.5 -26.5t-37.5 -71.5
q0 -44 35 -72t126 -45l49 -8q125 -22 182.5 -76t57.5 -151q0 -69 -33 -119.5t-92.5 -78t-140.5 -27.5q-79 0 -142 23t-96 67v-74h-106v259zM329 25h83l-43 -97q44 -2 70.5 -25.5t26.5 -62.5q0 -47 -35.5 -74.5t-98.5 -27.5q-26 0 -51.5 4.5t-47.5 14.5l15 57q14 -7 31.5 -11
t33.5 -4q29 0 45 11.5t16 32.5q0 41 -62 41q-10 0 -25 -1.5t-24 -4.5z" />
    <glyph glyph-name="uni0162" unicode="&#x162;" horiz-adv-x="758" 
d="M306 649h-157v-137h-116v248h691v-248h-115v137h-158v-538h102v-111h-348v111h101v538zM347 25h83l-43 -97q44 -2 70.5 -25.5t26.5 -62.5q0 -47 -35.5 -74.5t-98.5 -27.5q-26 0 -51.5 4.5t-47.5 14.5l15 57q14 -7 31.5 -11t33.5 -4q29 0 45 11.5t16 32.5q0 41 -62 41
q-10 0 -25 -1.5t-24 -4.5z" />
    <glyph glyph-name="uni0123" unicode="&#x123;" horiz-adv-x="657" 
d="M576 37q0 -139 -73.5 -210.5t-220.5 -71.5q-136 0 -222 60l51 100q34 -21 72 -33t93 -12q82 0 126 42t44 121v43q-24 -40 -67.5 -63.5t-102.5 -23.5q-72 0 -126 33.5t-84 93t-30 137.5q0 81 31 141t85.5 93t123.5 33q62 0 109 -27t68 -74v85h186v-107h-63v-360zM311 403
q-66 0 -103.5 -42t-37.5 -109t37.5 -109t103.5 -42q65 0 102.5 41t37.5 110t-37.5 110t-102.5 41zM356 850l40 -44q-46 -38 -57 -79h2q29 0 46 -17t17 -45t-18.5 -46t-46.5 -18q-35 0 -53.5 26t-18.5 65q0 44 23 85t66 73z" />
    <glyph glyph-name="uni0137" unicode="&#x137;" horiz-adv-x="626" 
d="M93 683h-65v107h195v-509l168 127h-62v96h251v-107h-60l-131 -100l150 -190h65v-107h-146l-163 226l-72 -55v-69h74v-102h-267v107h63v576zM295 -305l-40 45q46 39 57 79h-3q-28 0 -45 17t-17 45t18.5 45.5t46.5 17.5q35 0 53.5 -26t18.5 -65q0 -43 -23.5 -84t-65.5 -74z
" />
    <glyph glyph-name="uni013C" unicode="&#x13c;" horiz-adv-x="313" 
d="M223 107h62v-107h-255v107h63v576h-65v107h195v-683zM138 -305l-40 45q46 39 57 79h-3q-28 0 -45 17t-17 45t18.5 45.5t46.5 17.5q35 0 53.5 -26t18.5 -65q0 -43 -23.5 -84t-65.5 -74z" />
    <glyph glyph-name="uni0146" unicode="&#x146;" horiz-adv-x="671" 
d="M96 397h-63v107h186v-76q21 44 65.5 68t107.5 24q95 0 144.5 -51.5t49.5 -155.5v-206h63v-107h-267v107h74v181q0 115 -109 115q-121 0 -121 -123v-173h74v-107h-267v107h63v290zM324 -305l-40 45q46 39 57 79h-3q-28 0 -45 17t-17 45t18.5 45.5t46.5 17.5q35 0 53.5 -26
t18.5 -65q0 -43 -23.5 -84t-65.5 -74z" />
    <glyph glyph-name="uni0219" unicode="&#x219;" horiz-adv-x="538" 
d="M45 175h98v-7q0 -40 32.5 -66t94.5 -26q43 0 68.5 12.5t25.5 43.5q0 30 -28 43.5t-97 26.5l-35 6q-88 17 -125.5 58t-37.5 99q0 73 53 114t138 41q52 0 91 -17t59 -44v45h95v-173h-97v9q0 41 -29.5 64.5t-83.5 23.5q-39 0 -66 -13.5t-27 -45.5q0 -26 25 -39.5t97 -26.5
l40 -6q86 -15 123.5 -53.5t37.5 -103.5q0 -76 -52 -116t-139 -40q-53 0 -97 17t-67 49v-50h-97v175zM265 -305l-40 45q46 39 57 79h-3q-28 0 -45 17t-17 45t18.5 45.5t46.5 17.5q35 0 53.5 -26t18.5 -65q0 -43 -23.5 -84t-65.5 -74z" />
    <glyph glyph-name="uni021B" unicode="&#x21b;" horiz-adv-x="426" 
d="M100 397h-84v107h84v121l130 31v-152h140v-107h-140v-203q0 -90 78 -90q18 0 35 5.5t28 13.5l40 -94q-18 -15 -51 -26.5t-75 -11.5q-88 0 -136.5 48.5t-48.5 145.5v212zM243 -305l-40 45q46 39 57 79h-3q-28 0 -45 17t-17 45t18.5 45.5t46.5 17.5q35 0 53.5 -26t18.5 -65
q0 -43 -23.5 -84t-65.5 -74z" />
    <glyph glyph-name="Aogonek" unicode="&#x104;" horiz-adv-x="820" 
d="M322 760h175l244 -649h67v-111h-316v108h99l-47 132h-282l-48 -132h95v-108h-297v111h68zM297 338h211l-105 292zM732 11l76 -11q-56 -22 -83 -50t-27 -57q0 -25 17.5 -39t43.5 -14q14 0 28 3.5t23 7.5l14 -67q-38 -18 -92 -18q-56 0 -91 30t-35 79q0 45 32.5 83.5
t93.5 52.5z" />
    <glyph glyph-name="Eogonek" unicode="&#x118;" horiz-adv-x="697" 
d="M123 649h-81v111h610v-226h-115v115h-269v-215h266v-106h-266v-217h268v114h116v-225h-610v111h81v538zM576 11l76 -11q-56 -22 -83 -50t-27 -57q0 -25 17.5 -39t43.5 -14q14 0 28 3.5t23 7.5l14 -67q-38 -18 -92 -18q-56 0 -91 30t-35 79q0 45 32.5 83.5t93.5 52.5z" />
    <glyph glyph-name="Iogonek" unicode="&#x12e;" horiz-adv-x="392" 
d="M123 649h-81v111h308v-111h-81v-538h81v-111h-308v111h81v538zM274 11l76 -11q-56 -22 -83 -50t-27 -57q0 -25 17.5 -39t43.5 -14q14 0 28 3.5t23 7.5l14 -67q-38 -18 -92 -18q-56 0 -91 30t-35 79q0 45 32.5 83.5t93.5 52.5z" />
    <glyph glyph-name="Uogonek" unicode="&#x172;" horiz-adv-x="805" 
d="M243 280q0 -79 41.5 -120.5t120.5 -41.5t120.5 41.5t41.5 120.5v369h-98v111h320v-111h-81v-356q0 -148 -75 -228.5t-229 -80.5t-230 80.5t-76 228.5v356h-81v111h323v-111h-97v-369zM548 43l47 -10q-55 -39 -77 -70.5t-22 -63.5t19 -45.5t46 -13.5q32 0 56 11l15 -67
q-15 -7 -40.5 -12.5t-57.5 -5.5q-58 0 -95 29.5t-37 84.5q0 53 36 94.5t110 68.5z" />
    <glyph glyph-name="ccedilla" unicode="&#xe7;" horiz-adv-x="556" 
d="M511 284h-102v12q0 47 -29 77.5t-82 30.5q-61 0 -94.5 -40.5t-33.5 -106.5q0 -71 42.5 -114t109.5 -43q48 0 78 17t48 38l74 -81q-34 -40 -89 -65t-121 -25q-86 0 -148 33.5t-95 94.5t-33 144q0 78 28.5 137.5t80.5 93t122 33.5q54 0 92.5 -21.5t57.5 -53.5v59h94v-220z
M263 25h78l-42 -96q46 -1 72.5 -25.5t26.5 -64.5q0 -46 -36 -73.5t-98 -27.5q-25 0 -48.5 4t-46.5 14l14 56q28 -13 61 -13q29 0 45.5 11t16.5 33q0 20 -15.5 30.5t-43.5 10.5q-27 0 -48 -7z" />
    <glyph glyph-name="scedilla" unicode="&#x15f;" horiz-adv-x="538" 
d="M45 175h98v-7q0 -40 32.5 -66t94.5 -26q43 0 68.5 12.5t25.5 43.5q0 30 -28 43.5t-97 26.5l-35 6q-88 17 -125.5 58t-37.5 99q0 73 53 114t138 41q52 0 91 -17t59 -44v45h95v-173h-97v9q0 41 -29.5 64.5t-83.5 23.5q-39 0 -66 -13.5t-27 -45.5q0 -26 25 -39.5t97 -26.5
l40 -6q86 -15 123.5 -53.5t37.5 -103.5q0 -76 -52 -116t-139 -40q-53 0 -97 17t-67 49v-50h-97v175zM265 25h78l-42 -96q46 -1 72.5 -25.5t26.5 -64.5q0 -46 -36 -73.5t-98 -27.5q-25 0 -48.5 4t-46.5 14l14 56q28 -13 61 -13q29 0 45.5 11t16.5 33q0 20 -15.5 30.5
t-43.5 10.5q-27 0 -48 -7z" />
    <glyph glyph-name="uni0163" unicode="&#x163;" horiz-adv-x="426" 
d="M100 397h-84v107h84v121l130 31v-152h140v-107h-140v-203q0 -90 78 -90q18 0 35 5.5t28 13.5l40 -94q-18 -15 -51 -26.5t-75 -11.5q-88 0 -136.5 48.5t-48.5 145.5v212zM231 25h78l-42 -96q46 -1 72.5 -25.5t26.5 -64.5q0 -46 -36 -73.5t-98 -27.5q-25 0 -48.5 4
t-46.5 14l14 56q28 -13 61 -13q29 0 45.5 11t16.5 33q0 20 -15.5 30.5t-43.5 10.5q-27 0 -48 -7z" />
    <glyph glyph-name="uni0122" unicode="&#x122;" horiz-adv-x="842" 
d="M775 0h-108v98q-31 -50 -94.5 -82t-152.5 -32q-110 0 -194.5 50t-132 140t-47.5 209q0 116 44 204.5t124.5 138.5t187.5 50q84 0 149 -30t95 -84v98h112v-292h-118v8q0 40 -23 80.5t-68.5 67.5t-115.5 27q-75 0 -129 -34t-82.5 -94.5t-28.5 -141.5q0 -82 29 -144
t85 -96.5t137 -34.5q65 0 114.5 23t77.5 63.5t29 93.5h-216v104h326v-390zM414 -305l-40 45q46 39 57 79h-3q-28 0 -45 17t-17 45t18.5 45.5t46.5 17.5q35 0 53.5 -26t18.5 -65q0 -43 -23.5 -84t-65.5 -74z" />
    <glyph glyph-name="uni0136" unicode="&#x136;" horiz-adv-x="791" 
d="M123 649h-81v111h314v-109h-93v-272l266 272h-79v109h302v-111h-64l-211 -210l220 -328h83v-111h-182l-220 341l-115 -114v-116h100v-111h-321v111h81v538zM413 -305l-40 45q46 39 57 79h-3q-28 0 -45 17t-17 45t18.5 45.5t46.5 17.5q35 0 53.5 -26t18.5 -65
q0 -43 -23.5 -84t-65.5 -74z" />
    <glyph glyph-name="uni013B" unicode="&#x13b;" horiz-adv-x="678" 
d="M123 649h-81v111h334v-111h-107v-534h258v161h118v-276h-603v111h81v538zM342 -305l-40 45q46 39 57 79h-3q-28 0 -45 17t-17 45t18.5 45.5t46.5 17.5q35 0 53.5 -26t18.5 -65q0 -43 -23.5 -84t-65.5 -74z" />
    <glyph glyph-name="uni0145" unicode="&#x145;" horiz-adv-x="874" 
d="M760 0h-148l-362 555v-444h102v-111h-310v111h81v538h-81v111h229l361 -550v439h-102v111h311v-111h-81v-649zM424 -305l-40 45q46 39 57 79h-3q-28 0 -45 17t-17 45t18.5 45.5t46.5 17.5q35 0 53.5 -26t18.5 -65q0 -43 -23.5 -84t-65.5 -74z" />
    <glyph glyph-name="uni0218" unicode="&#x218;" horiz-adv-x="696" 
d="M49 259h110v-14q0 -42 25 -75t69 -51.5t100 -18.5q74 0 115 25.5t41 72.5q0 49 -37 75.5t-131 42.5l-55 9q-227 40 -227 229q0 66 33.5 116t92 78t133.5 28q70 0 123 -23.5t82 -63.5v71h105v-255h-110v11q0 64 -46.5 103.5t-120.5 39.5q-67 0 -104.5 -26.5t-37.5 -71.5
q0 -44 35 -72t126 -45l49 -8q125 -22 182.5 -76t57.5 -151q0 -69 -33 -119.5t-92.5 -78t-140.5 -27.5q-79 0 -142 23t-96 67v-74h-106v259zM342 -305l-40 45q46 39 57 79h-3q-28 0 -45 17t-17 45t18.5 45.5t46.5 17.5q35 0 53.5 -26t18.5 -65q0 -43 -23.5 -84t-65.5 -74z
" />
    <glyph glyph-name="uni021A" unicode="&#x21a;" horiz-adv-x="758" 
d="M306 649h-157v-137h-116v248h691v-248h-115v137h-158v-538h102v-111h-348v111h101v538zM362 -305l-40 45q46 39 57 79h-3q-28 0 -45 17t-17 45t18.5 45.5t46.5 17.5q35 0 53.5 -26t18.5 -65q0 -43 -23.5 -84t-65.5 -74z" />
    <glyph glyph-name="aogonek" unicode="&#x105;" horiz-adv-x="672" 
d="M576 107h63v-107h-186v85q-23 -47 -69 -74t-109 -27q-71 0 -125 33.5t-84 94t-30 141.5q0 79 30 139t84 94t125 34q61 0 105.5 -27t65.5 -72v83h193v-107h-63v-290zM413.5 362q-37.5 41 -102.5 41q-64 0 -102.5 -41t-38.5 -110t38.5 -110t102.5 -41q65 0 102.5 41
t37.5 110t-37.5 110zM565 15l74 -15q-52 -18 -77.5 -46t-25.5 -56q0 -29 18 -43.5t42 -14.5q15 0 29.5 3.5t24.5 7.5l17 -67q-15 -7 -40.5 -12.5t-52.5 -5.5q-60 0 -95.5 30t-35.5 80q0 51 35 87.5t87 51.5z" />
    <glyph glyph-name="eogonek" unicode="&#x119;" horiz-adv-x="572" 
d="M320 -16q-89 0 -152.5 34t-97.5 95t-34 140q0 83 32.5 142.5t90.5 92t136 32.5q112 0 176 -66t64 -180q0 -10 -1 -25.5t-3 -26.5h-359q7 -57 48 -92t112 -35q44 0 77 14.5t53 37.5l71 -82q-34 -37 -89 -59t-124 -22zM297 416q-51 0 -85 -30.5t-40 -79.5h238
q-5 49 -33 79.5t-80 30.5zM468 61l40 -19q-45 -35 -67.5 -60.5t-30.5 -44.5t-8 -36q0 -28 15 -44.5t46 -16.5q14 0 28.5 3.5t24.5 7.5l16 -67q-15 -7 -40.5 -12.5t-52.5 -5.5q-69 0 -100 34.5t-31 80.5t36.5 91.5t123.5 88.5z" />
    <glyph glyph-name="iogonek" unicode="&#x12f;" horiz-adv-x="315" 
d="M226 107h63v-107h-256v107h63v290h-63v107h193v-397zM51 680q0 34 21.5 57t64.5 23t64.5 -23t21.5 -57t-21.5 -57t-64.5 -23t-64.5 23t-21.5 57zM215 15l74 -15q-52 -18 -77.5 -46t-25.5 -56q0 -29 18 -43.5t42 -14.5q15 0 29.5 3.5t24.5 7.5l17 -67q-15 -7 -40.5 -12.5
t-52.5 -5.5q-60 0 -95.5 30t-35.5 80q0 51 35 87.5t87 51.5z" />
    <glyph glyph-name="uogonek" unicode="&#x173;" horiz-adv-x="652" 
d="M563 107h63v-107h-186v70q-18 -40 -62 -63t-106 -23q-94 0 -142.5 51.5t-48.5 160.5v201h-63v107h193v-288q0 -116 104 -116q57 0 87.5 29.5t30.5 80.5v187h-72v107h202v-397zM552 15l74 -15q-52 -18 -77.5 -46t-25.5 -56q0 -29 18 -43.5t42 -14.5q15 0 29.5 3.5
t24.5 7.5l17 -67q-15 -7 -40.5 -12.5t-52.5 -5.5q-60 0 -95.5 30t-35.5 80q0 51 35 87.5t87 51.5z" />
    <glyph glyph-name="acutecomb" unicode="&#x301;" horiz-adv-x="0" 
d="M16 780h126l-99 -195h-102z" />
    <glyph glyph-name="acutecomb.cap" horiz-adv-x="0" 
d="M13 998h126l-98 -165h-102z" />
    <glyph glyph-name="acute" unicode="&#xb4;" horiz-adv-x="671" 
d="M339 780h126l-99 -195h-102z" />
    <glyph glyph-name="uni030B" unicode="&#x30b;" horiz-adv-x="0" 
d="M110 780h105l-86 -195h-90zM-81 780h104l-66 -195h-89z" />
    <glyph glyph-name="uni030B.cap" horiz-adv-x="0" 
d="M105 998h108l-79 -165h-88zM-75 998h107l-78 -165h-88z" />
    <glyph glyph-name="hungarumlaut" unicode="&#x2dd;" horiz-adv-x="671" 
d="M431 780h105l-86 -195h-90zM240 780h104l-66 -195h-89z" />
    <glyph glyph-name="Aacute" unicode="&#xc1;" horiz-adv-x="820" 
d="M322 760h175l244 -649h67v-111h-316v108h99l-47 132h-282l-48 -132h95v-108h-297v111h68zM297 338h211l-105 292zM423 998h126l-98 -165h-102z" />
    <glyph glyph-name="Cacute" unicode="&#x106;" horiz-adv-x="790" 
d="M738 432h-119v9q0 94 -54.5 147.5t-146.5 53.5q-68 0 -118.5 -31t-78 -88.5t-27.5 -135.5q0 -81 32 -141.5t89 -94t133 -33.5q67 0 123.5 28t90.5 74l89 -91q-48 -64 -130.5 -104.5t-189.5 -40.5q-115 0 -201.5 49.5t-135 139.5t-48.5 211q0 117 43 205.5t120.5 137.5
t181.5 49q81 0 143 -31t92 -90v105h112v-328zM421 998h126l-98 -165h-102z" />
    <glyph glyph-name="Eacute" unicode="&#xc9;" horiz-adv-x="697" 
d="M123 649h-81v111h610v-226h-115v115h-269v-215h266v-106h-266v-217h268v114h116v-225h-610v111h81v538zM376 998h126l-98 -165h-102z" />
    <glyph glyph-name="Iacute" unicode="&#xcd;" horiz-adv-x="392" 
d="M123 649h-81v111h308v-111h-81v-538h81v-111h-308v111h81v538zM209 998h126l-98 -165h-102z" />
    <glyph glyph-name="Lacute" unicode="&#x139;" horiz-adv-x="678" 
d="M123 649h-81v111h334v-111h-107v-534h258v161h118v-276h-603v111h81v538zM211 998h126l-98 -165h-102z" />
    <glyph glyph-name="Nacute" unicode="&#x143;" horiz-adv-x="874" 
d="M760 0h-148l-362 555v-444h102v-111h-310v111h81v538h-81v111h229l361 -550v439h-102v111h311v-111h-81v-649zM454 998h126l-98 -165h-102z" />
    <glyph glyph-name="Oacute" unicode="&#xd3;" horiz-adv-x="866" 
d="M46 380q0 118 48 207t135 139t204 50t204 -50t135 -139t48 -207q0 -117 -48 -206.5t-135 -139.5t-204 -50t-204 50t-135 139.5t-48 206.5zM672 380q0 78 -29 137t-82.5 92t-127.5 33q-73 0 -127 -33t-83.5 -92t-29.5 -137t29.5 -137t83.5 -92t127 -33q74 0 127.5 33
t82.5 92t29 137zM446 998h126l-98 -165h-102z" />
    <glyph glyph-name="Racute" unicode="&#x154;" horiz-adv-x="747" 
d="M123 649h-81v111h329q297 0 297 -235q0 -79 -37 -128.5t-98 -74.5l119 -211h79v-111h-178l-156 292h-24h-107v-181h100v-111h-324v111h81v538zM523 525q0 67 -41.5 97t-125.5 30h-90v-253h95q80 0 121 30.5t41 95.5zM373 998h126l-98 -165h-102z" />
    <glyph glyph-name="Sacute" unicode="&#x15a;" horiz-adv-x="696" 
d="M49 259h110v-14q0 -42 25 -75t69 -51.5t100 -18.5q74 0 115 25.5t41 72.5q0 49 -37 75.5t-131 42.5l-55 9q-227 40 -227 229q0 66 33.5 116t92 78t133.5 28q70 0 123 -23.5t82 -63.5v71h105v-255h-110v11q0 64 -46.5 103.5t-120.5 39.5q-67 0 -104.5 -26.5t-37.5 -71.5
q0 -44 35 -72t126 -45l49 -8q125 -22 182.5 -76t57.5 -151q0 -69 -33 -119.5t-92.5 -78t-140.5 -27.5q-79 0 -142 23t-96 67v-74h-106v259zM359 998h126l-98 -165h-102z" />
    <glyph glyph-name="Uacute" unicode="&#xda;" horiz-adv-x="805" 
d="M243 280q0 -79 41.5 -120.5t120.5 -41.5t120.5 41.5t41.5 120.5v369h-98v111h320v-111h-81v-356q0 -148 -75 -228.5t-229 -80.5t-230 80.5t-76 228.5v356h-81v111h323v-111h-97v-369zM416 998h126l-98 -165h-102z" />
    <glyph glyph-name="Wacute" unicode="&#x1e82;" horiz-adv-x="1122" 
d="M79 649h-68v111h317v-109h-99l111 -468l159 519h133l158 -525l112 474h-99v109h308v-111h-69l-175 -649h-159l-148 515l-147 -515h-159zM579 998h126l-98 -165h-102z" />
    <glyph glyph-name="Yacute" unicode="&#xdd;" horiz-adv-x="759" 
d="M452 297v-186h92v-111h-328v111h92v188l-236 350h-66v111h316v-109h-95l160 -238l158 238h-95v109h304v-111h-66zM395 998h126l-98 -165h-102z" />
    <glyph glyph-name="Zacute" unicode="&#x179;" horiz-adv-x="671" 
d="M460 650h-314v-143h-116v253h607v-107l-435 -543h328v151h116v-261h-620v107zM346 998h126l-98 -165h-102z" />
    <glyph glyph-name="Ohungarumlaut" unicode="&#x150;" horiz-adv-x="866" 
d="M46 380q0 118 48 207t135 139t204 50t204 -50t135 -139t48 -207q0 -117 -48 -206.5t-135 -139.5t-204 -50t-204 50t-135 139.5t-48 206.5zM672 380q0 78 -29 137t-82.5 92t-127.5 33q-73 0 -127 -33t-83.5 -92t-29.5 -137t29.5 -137t83.5 -92t127 -33q74 0 127.5 33
t82.5 92t29 137zM538 998h108l-79 -165h-88zM358 998h107l-78 -165h-88z" />
    <glyph glyph-name="Uhungarumlaut" unicode="&#x170;" horiz-adv-x="805" 
d="M243 280q0 -79 41.5 -120.5t120.5 -41.5t120.5 41.5t41.5 120.5v369h-98v111h320v-111h-81v-356q0 -148 -75 -228.5t-229 -80.5t-230 80.5t-76 228.5v356h-81v111h323v-111h-97v-369zM508 998h108l-79 -165h-88zM328 998h107l-78 -165h-88z" />
    <glyph glyph-name="aacute" unicode="&#xe1;" horiz-adv-x="672" 
d="M576 107h63v-107h-186v85q-23 -47 -69 -74t-109 -27q-71 0 -125 33.5t-84 94t-30 141.5q0 79 30 139t84 94t125 34q61 0 105.5 -27t65.5 -72v83h193v-107h-63v-290zM413.5 362q-37.5 41 -102.5 41q-64 0 -102.5 -41t-38.5 -110t38.5 -110t102.5 -41q65 0 102.5 41
t37.5 110t-37.5 110zM349 780h126l-99 -195h-102z" />
    <glyph glyph-name="cacute" unicode="&#x107;" horiz-adv-x="556" 
d="M511 284h-102v12q0 47 -29 77.5t-82 30.5q-61 0 -94.5 -40.5t-33.5 -106.5q0 -71 42.5 -114t109.5 -43q48 0 78 17t48 38l74 -81q-34 -40 -89 -65t-121 -25q-86 0 -148 33.5t-95 94.5t-33 144q0 78 28.5 137.5t80.5 93t122 33.5q54 0 92.5 -21.5t57.5 -53.5v59h94v-220z
M315 780h126l-99 -195h-102z" />
    <glyph glyph-name="eacute" unicode="&#xe9;" horiz-adv-x="572" 
d="M320 -16q-89 0 -152.5 34t-97.5 95t-34 140q0 83 32.5 142.5t90.5 92t136 32.5q112 0 176 -66t64 -180q0 -10 -1 -25.5t-3 -26.5h-359q7 -57 48 -92t112 -35q44 0 77 14.5t53 37.5l71 -82q-34 -37 -89 -59t-124 -22zM297 416q-51 0 -85 -30.5t-40 -79.5h238
q-5 49 -33 79.5t-80 30.5zM313 780h126l-99 -195h-102z" />
    <glyph glyph-name="iacute" unicode="&#xed;" horiz-adv-x="315" 
d="M226 107h63v-107h-256v107h63v290h-63v107h193v-397zM153 780h126l-99 -195h-102z" />
    <glyph glyph-name="lacute" unicode="&#x13a;" horiz-adv-x="313" 
d="M223 107h62v-107h-255v107h63v576h-65v107h195v-683zM158 1028h126l-98 -165h-102z" />
    <glyph glyph-name="nacute" unicode="&#x144;" horiz-adv-x="671" 
d="M96 397h-63v107h186v-76q21 44 65.5 68t107.5 24q95 0 144.5 -51.5t49.5 -155.5v-206h63v-107h-267v107h74v181q0 115 -109 115q-121 0 -121 -123v-173h74v-107h-267v107h63v290zM351 780h126l-99 -195h-102z" />
    <glyph glyph-name="oacute" unicode="&#xf3;" horiz-adv-x="626" 
d="M36 252q0 80 34.5 140.5t97 94t145.5 33.5t145.5 -33.5t97 -94t34.5 -140.5t-34.5 -140.5t-97 -94t-145.5 -33.5t-145.5 33.5t-97 94t-34.5 140.5zM456 252q0 68 -38.5 109.5t-104.5 41.5q-65 0 -104 -41.5t-39 -109.5t39 -109.5t104 -41.5q66 0 104.5 41.5t38.5 109.5z
M329 780h126l-99 -195h-102z" />
    <glyph glyph-name="racute" unicode="&#x155;" horiz-adv-x="439" 
d="M96 397h-63v107h186v-93q16 50 60.5 75t93.5 25q15 0 26.5 -2t21.5 -5v-117q-7 3 -20 4.5t-27 1.5q-64 0 -106 -34.5t-42 -103.5v-148h99v-107h-292v107h63v290zM252 780h126l-99 -195h-102z" />
    <glyph glyph-name="sacute" unicode="&#x15b;" horiz-adv-x="538" 
d="M45 175h98v-7q0 -40 32.5 -66t94.5 -26q43 0 68.5 12.5t25.5 43.5q0 30 -28 43.5t-97 26.5l-35 6q-88 17 -125.5 58t-37.5 99q0 73 53 114t138 41q52 0 91 -17t59 -44v45h95v-173h-97v9q0 41 -29.5 64.5t-83.5 23.5q-39 0 -66 -13.5t-27 -45.5q0 -26 25 -39.5t97 -26.5
l40 -6q86 -15 123.5 -53.5t37.5 -103.5q0 -76 -52 -116t-139 -40q-53 0 -97 17t-67 49v-50h-97v175zM280 780h126l-99 -195h-102z" />
    <glyph glyph-name="uacute" unicode="&#xfa;" horiz-adv-x="652" 
d="M563 107h63v-107h-186v70q-18 -40 -62 -63t-106 -23q-94 0 -142.5 51.5t-48.5 160.5v201h-63v107h193v-288q0 -116 104 -116q57 0 87.5 29.5t30.5 80.5v187h-72v107h202v-397zM318 780h126l-99 -195h-102z" />
    <glyph glyph-name="wacute" unicode="&#x1e83;" horiz-adv-x="868" 
d="M66 397h-53v107h254v-105h-71l86 -241l109 346h102l109 -346l88 241h-72v105h237v-107h-52l-152 -397h-114l-103 311l-103 -311h-114zM452 780h126l-99 -195h-102z" />
    <glyph glyph-name="yacute" unicode="&#xfd;" horiz-adv-x="621" 
d="M66 397h-55v107h263v-105h-71l112 -270l114 270h-72v105h252v-107h-55l-182 -406q-36 -81 -74.5 -133.5t-86 -77.5t-110.5 -25q-33 0 -59 7t-44 18l38 102q11 -4 26.5 -8t35.5 -4q42 0 75 21.5t58 68.5l16 31zM325 780h126l-99 -195h-102z" />
    <glyph glyph-name="zacute" unicode="&#x17a;" horiz-adv-x="523" 
d="M320 407h-186v-81h-100v178h442v-93l-287 -315h202v92h100v-188h-459v92zM271 780h126l-99 -195h-102z" />
    <glyph glyph-name="ohungarumlaut" unicode="&#x151;" horiz-adv-x="626" 
d="M36 252q0 80 34.5 140.5t97 94t145.5 33.5t145.5 -33.5t97 -94t34.5 -140.5t-34.5 -140.5t-97 -94t-145.5 -33.5t-145.5 33.5t-97 94t-34.5 140.5zM456 252q0 68 -38.5 109.5t-104.5 41.5q-65 0 -104 -41.5t-39 -109.5t39 -109.5t104 -41.5q66 0 104.5 41.5t38.5 109.5z
M423 780h105l-86 -195h-90zM232 780h104l-66 -195h-89z" />
    <glyph glyph-name="uhungarumlaut" unicode="&#x171;" horiz-adv-x="652" 
d="M563 107h63v-107h-186v70q-18 -40 -62 -63t-106 -23q-94 0 -142.5 51.5t-48.5 160.5v201h-63v107h193v-288q0 -116 104 -116q57 0 87.5 29.5t30.5 80.5v187h-72v107h202v-397zM412 780h105l-86 -195h-90zM221 780h104l-66 -195h-89z" />
    <glyph glyph-name="gravecomb" unicode="&#x300;" horiz-adv-x="0" 
d="M-142 780h126l75 -195h-102z" />
    <glyph glyph-name="gravecomb.cap" horiz-adv-x="0" 
d="M-139 998h126l74 -165h-102z" />
    <glyph glyph-name="grave" unicode="`" horiz-adv-x="671" 
d="M202 780h126l75 -195h-102z" />
    <glyph glyph-name="uni02CB" unicode="&#x2cb;" horiz-adv-x="671" 
d="M202 780h126l75 -195h-102z" />
    <glyph glyph-name="Agrave" unicode="&#xc0;" horiz-adv-x="820" 
d="M322 760h175l244 -649h67v-111h-316v108h99l-47 132h-282l-48 -132h95v-108h-297v111h68zM297 338h211l-105 292zM271 998h126l74 -165h-102z" />
    <glyph glyph-name="Egrave" unicode="&#xc8;" horiz-adv-x="697" 
d="M123 649h-81v111h610v-226h-115v115h-269v-215h266v-106h-266v-217h268v114h116v-225h-610v111h81v538zM224 998h126l74 -165h-102z" />
    <glyph glyph-name="Igrave" unicode="&#xcc;" horiz-adv-x="392" 
d="M123 649h-81v111h308v-111h-81v-538h81v-111h-308v111h81v538zM57 998h126l74 -165h-102z" />
    <glyph glyph-name="Ograve" unicode="&#xd2;" horiz-adv-x="866" 
d="M46 380q0 118 48 207t135 139t204 50t204 -50t135 -139t48 -207q0 -117 -48 -206.5t-135 -139.5t-204 -50t-204 50t-135 139.5t-48 206.5zM672 380q0 78 -29 137t-82.5 92t-127.5 33q-73 0 -127 -33t-83.5 -92t-29.5 -137t29.5 -137t83.5 -92t127 -33q74 0 127.5 33
t82.5 92t29 137zM294 998h126l74 -165h-102z" />
    <glyph glyph-name="Ugrave" unicode="&#xd9;" horiz-adv-x="805" 
d="M243 280q0 -79 41.5 -120.5t120.5 -41.5t120.5 41.5t41.5 120.5v369h-98v111h320v-111h-81v-356q0 -148 -75 -228.5t-229 -80.5t-230 80.5t-76 228.5v356h-81v111h323v-111h-97v-369zM264 998h126l74 -165h-102z" />
    <glyph glyph-name="Wgrave" unicode="&#x1e80;" horiz-adv-x="1122" 
d="M79 649h-68v111h317v-109h-99l111 -468l159 519h133l158 -525l112 474h-99v109h308v-111h-69l-175 -649h-159l-148 515l-147 -515h-159zM427 998h126l74 -165h-102z" />
    <glyph glyph-name="Ygrave" unicode="&#x1ef2;" horiz-adv-x="759" 
d="M452 297v-186h92v-111h-328v111h92v188l-236 350h-66v111h316v-109h-95l160 -238l158 238h-95v109h304v-111h-66zM243 998h126l74 -165h-102z" />
    <glyph glyph-name="agrave" unicode="&#xe0;" horiz-adv-x="672" 
d="M576 107h63v-107h-186v85q-23 -47 -69 -74t-109 -27q-71 0 -125 33.5t-84 94t-30 141.5q0 79 30 139t84 94t125 34q61 0 105.5 -27t65.5 -72v83h193v-107h-63v-290zM413.5 362q-37.5 41 -102.5 41q-64 0 -102.5 -41t-38.5 -110t38.5 -110t102.5 -41q65 0 102.5 41
t37.5 110t-37.5 110zM191 780h126l75 -195h-102z" />
    <glyph glyph-name="egrave" unicode="&#xe8;" horiz-adv-x="572" 
d="M320 -16q-89 0 -152.5 34t-97.5 95t-34 140q0 83 32.5 142.5t90.5 92t136 32.5q112 0 176 -66t64 -180q0 -10 -1 -25.5t-3 -26.5h-359q7 -57 48 -92t112 -35q44 0 77 14.5t53 37.5l71 -82q-34 -37 -89 -59t-124 -22zM297 416q-51 0 -85 -30.5t-40 -79.5h238
q-5 49 -33 79.5t-80 30.5zM155 780h126l75 -195h-102z" />
    <glyph glyph-name="igrave" unicode="&#xec;" horiz-adv-x="315" 
d="M226 107h63v-107h-256v107h63v290h-63v107h193v-397zM-5 780h126l75 -195h-102z" />
    <glyph glyph-name="ograve" unicode="&#xf2;" horiz-adv-x="626" 
d="M36 252q0 80 34.5 140.5t97 94t145.5 33.5t145.5 -33.5t97 -94t34.5 -140.5t-34.5 -140.5t-97 -94t-145.5 -33.5t-145.5 33.5t-97 94t-34.5 140.5zM456 252q0 68 -38.5 109.5t-104.5 41.5q-65 0 -104 -41.5t-39 -109.5t39 -109.5t104 -41.5q66 0 104.5 41.5t38.5 109.5z
M171 780h126l75 -195h-102z" />
    <glyph glyph-name="ugrave" unicode="&#xf9;" horiz-adv-x="652" 
d="M563 107h63v-107h-186v70q-18 -40 -62 -63t-106 -23q-94 0 -142.5 51.5t-48.5 160.5v201h-63v107h193v-288q0 -116 104 -116q57 0 87.5 29.5t30.5 80.5v187h-72v107h202v-397zM160 780h126l75 -195h-102z" />
    <glyph glyph-name="wgrave" unicode="&#x1e81;" horiz-adv-x="868" 
d="M66 397h-53v107h254v-105h-71l86 -241l109 346h102l109 -346l88 241h-72v105h237v-107h-52l-152 -397h-114l-103 311l-103 -311h-114zM294 780h126l75 -195h-102z" />
    <glyph glyph-name="ygrave" unicode="&#x1ef3;" horiz-adv-x="621" 
d="M66 397h-55v107h263v-105h-71l112 -270l114 270h-72v105h252v-107h-55l-182 -406q-36 -81 -74.5 -133.5t-86 -77.5t-110.5 -25q-33 0 -59 7t-44 18l38 102q11 -4 26.5 -8t35.5 -4q42 0 75 21.5t58 68.5l16 31zM167 780h126l75 -195h-102z" />
    <glyph glyph-name="uni0302" unicode="&#x302;" horiz-adv-x="0" 
d="M-61 772h121l129 -187h-106l-83 116l-84 -116h-106z" />
    <glyph glyph-name="uni0302.cap" horiz-adv-x="0" 
d="M-61 1000h121l134 -167h-109l-85 101l-86 -101h-109z" />
    <glyph glyph-name="circumflex" unicode="&#x2c6;" horiz-adv-x="671" 
d="M277 772h121l129 -187h-106l-83 116l-84 -116h-106z" />
    <glyph glyph-name="tildecomb" unicode="&#x303;" horiz-adv-x="0" 
d="M-159 722.5q27 30.5 73 30.5q23 0 43 -7t51 -29q27 -19 39 -24.5t24 -5.5q17 0 25.5 13t8.5 51h80v-21q0 -69 -26.5 -99.5t-73.5 -30.5q-22 0 -42 7.5t-51 28.5q-27 19 -39.5 25t-24.5 6q-16 0 -25 -13.5t-9 -51.5h-80v21q0 69 27 99.5z" />
    <glyph glyph-name="tildecomb.cap" horiz-adv-x="0" 
d="M-166 960.5q30 28.5 80 28.5q23 0 42 -7t52 -27q23 -14 37.5 -20.5t28.5 -6.5q23 0 32 14.5t9 44.5h80v-22q0 -64 -29.5 -93t-80.5 -29q-23 0 -42 7.5t-51 26.5q-24 14 -38.5 20.5t-28.5 6.5q-22 0 -31.5 -15t-9.5 -44h-80v22q0 65 30 93.5z" />
    <glyph glyph-name="tilde" unicode="&#x2dc;" horiz-adv-x="671" 
d="M179 722.5q27 30.5 73 30.5q23 0 43 -7t51 -29q27 -19 39 -24.5t24 -5.5q17 0 25.5 13t8.5 51h80v-21q0 -69 -26.5 -99.5t-73.5 -30.5q-22 0 -42 7.5t-51 28.5q-27 19 -39.5 25t-24.5 6q-16 0 -25 -13.5t-9 -51.5h-80v21q0 69 27 99.5z" />
    <glyph glyph-name="Acircumflex" unicode="&#xc2;" horiz-adv-x="820" 
d="M322 760h175l244 -649h67v-111h-316v108h99l-47 132h-282l-48 -132h95v-108h-297v111h68zM297 338h211l-105 292zM349 1000h121l134 -167h-109l-85 101l-86 -101h-109z" />
    <glyph glyph-name="Ecircumflex" unicode="&#xca;" horiz-adv-x="697" 
d="M123 649h-81v111h610v-226h-115v115h-269v-215h266v-106h-266v-217h268v114h116v-225h-610v111h81v538zM302 1000h121l134 -167h-109l-85 101l-86 -101h-109z" />
    <glyph glyph-name="Icircumflex" unicode="&#xce;" horiz-adv-x="392" 
d="M123 649h-81v111h308v-111h-81v-538h81v-111h-308v111h81v538zM135 1000h121l134 -167h-109l-85 101l-86 -101h-109z" />
    <glyph glyph-name="Ocircumflex" unicode="&#xd4;" horiz-adv-x="866" 
d="M46 380q0 118 48 207t135 139t204 50t204 -50t135 -139t48 -207q0 -117 -48 -206.5t-135 -139.5t-204 -50t-204 50t-135 139.5t-48 206.5zM672 380q0 78 -29 137t-82.5 92t-127.5 33q-73 0 -127 -33t-83.5 -92t-29.5 -137t29.5 -137t83.5 -92t127 -33q74 0 127.5 33
t82.5 92t29 137zM372 1000h121l134 -167h-109l-85 101l-86 -101h-109z" />
    <glyph glyph-name="Ucircumflex" unicode="&#xdb;" horiz-adv-x="805" 
d="M243 280q0 -79 41.5 -120.5t120.5 -41.5t120.5 41.5t41.5 120.5v369h-98v111h320v-111h-81v-356q0 -148 -75 -228.5t-229 -80.5t-230 80.5t-76 228.5v356h-81v111h323v-111h-97v-369zM342 1000h121l134 -167h-109l-85 101l-86 -101h-109z" />
    <glyph glyph-name="Wcircumflex" unicode="&#x174;" horiz-adv-x="1122" 
d="M79 649h-68v111h317v-109h-99l111 -468l159 519h133l158 -525l112 474h-99v109h308v-111h-69l-175 -649h-159l-148 515l-147 -515h-159zM505 1000h121l134 -167h-109l-85 101l-86 -101h-109z" />
    <glyph glyph-name="Ycircumflex" unicode="&#x176;" horiz-adv-x="759" 
d="M452 297v-186h92v-111h-328v111h92v188l-236 350h-66v111h316v-109h-95l160 -238l158 238h-95v109h304v-111h-66zM321 1000h121l134 -167h-109l-85 101l-86 -101h-109z" />
    <glyph glyph-name="Atilde" unicode="&#xc3;" horiz-adv-x="820" 
d="M322 760h175l244 -649h67v-111h-316v108h99l-47 132h-282l-48 -132h95v-108h-297v111h68zM297 338h211l-105 292zM244 960.5q30 28.5 80 28.5q23 0 42 -7t52 -27q23 -14 37.5 -20.5t28.5 -6.5q23 0 32 14.5t9 44.5h80v-22q0 -64 -29.5 -93t-80.5 -29q-23 0 -42 7.5
t-51 26.5q-24 14 -38.5 20.5t-28.5 6.5q-22 0 -31.5 -15t-9.5 -44h-80v22q0 65 30 93.5z" />
    <glyph glyph-name="Itilde" unicode="&#x128;" horiz-adv-x="392" 
d="M123 649h-81v111h308v-111h-81v-538h81v-111h-308v111h81v538zM30 960.5q30 28.5 80 28.5q23 0 42 -7t52 -27q23 -14 37.5 -20.5t28.5 -6.5q23 0 32 14.5t9 44.5h80v-22q0 -64 -29.5 -93t-80.5 -29q-23 0 -42 7.5t-51 26.5q-24 14 -38.5 20.5t-28.5 6.5q-22 0 -31.5 -15
t-9.5 -44h-80v22q0 65 30 93.5z" />
    <glyph glyph-name="Ntilde" unicode="&#xd1;" horiz-adv-x="874" 
d="M760 0h-148l-362 555v-444h102v-111h-310v111h81v538h-81v111h229l361 -550v439h-102v111h311v-111h-81v-649zM275 960.5q30 28.5 80 28.5q23 0 42 -7t52 -27q23 -14 37.5 -20.5t28.5 -6.5q23 0 32 14.5t9 44.5h80v-22q0 -64 -29.5 -93t-80.5 -29q-23 0 -42 7.5t-51 26.5
q-24 14 -38.5 20.5t-28.5 6.5q-22 0 -31.5 -15t-9.5 -44h-80v22q0 65 30 93.5z" />
    <glyph glyph-name="Otilde" unicode="&#xd5;" horiz-adv-x="866" 
d="M46 380q0 118 48 207t135 139t204 50t204 -50t135 -139t48 -207q0 -117 -48 -206.5t-135 -139.5t-204 -50t-204 50t-135 139.5t-48 206.5zM672 380q0 78 -29 137t-82.5 92t-127.5 33q-73 0 -127 -33t-83.5 -92t-29.5 -137t29.5 -137t83.5 -92t127 -33q74 0 127.5 33
t82.5 92t29 137zM267 960.5q30 28.5 80 28.5q23 0 42 -7t52 -27q23 -14 37.5 -20.5t28.5 -6.5q23 0 32 14.5t9 44.5h80v-22q0 -64 -29.5 -93t-80.5 -29q-23 0 -42 7.5t-51 26.5q-24 14 -38.5 20.5t-28.5 6.5q-22 0 -31.5 -15t-9.5 -44h-80v22q0 65 30 93.5z" />
    <glyph glyph-name="Utilde" unicode="&#x168;" horiz-adv-x="805" 
d="M243 280q0 -79 41.5 -120.5t120.5 -41.5t120.5 41.5t41.5 120.5v369h-98v111h320v-111h-81v-356q0 -148 -75 -228.5t-229 -80.5t-230 80.5t-76 228.5v356h-81v111h323v-111h-97v-369zM237 960.5q30 28.5 80 28.5q23 0 42 -7t52 -27q23 -14 37.5 -20.5t28.5 -6.5
q23 0 32 14.5t9 44.5h80v-22q0 -64 -29.5 -93t-80.5 -29q-23 0 -42 7.5t-51 26.5q-24 14 -38.5 20.5t-28.5 6.5q-22 0 -31.5 -15t-9.5 -44h-80v22q0 65 30 93.5z" />
    <glyph glyph-name="acircumflex" unicode="&#xe2;" horiz-adv-x="672" 
d="M576 107h63v-107h-186v85q-23 -47 -69 -74t-109 -27q-71 0 -125 33.5t-84 94t-30 141.5q0 79 30 139t84 94t125 34q61 0 105.5 -27t65.5 -72v83h193v-107h-63v-290zM413.5 362q-37.5 41 -102.5 41q-64 0 -102.5 -41t-38.5 -110t38.5 -110t102.5 -41q65 0 102.5 41
t37.5 110t-37.5 110zM272 772h121l129 -187h-106l-83 116l-84 -116h-106z" />
    <glyph glyph-name="ecircumflex" unicode="&#xea;" horiz-adv-x="572" 
d="M320 -16q-89 0 -152.5 34t-97.5 95t-34 140q0 83 32.5 142.5t90.5 92t136 32.5q112 0 176 -66t64 -180q0 -10 -1 -25.5t-3 -26.5h-359q7 -57 48 -92t112 -35q44 0 77 14.5t53 37.5l71 -82q-34 -37 -89 -59t-124 -22zM297 416q-51 0 -85 -30.5t-40 -79.5h238
q-5 49 -33 79.5t-80 30.5zM236 772h121l129 -187h-106l-83 116l-84 -116h-106z" />
    <glyph glyph-name="icircumflex" unicode="&#xee;" horiz-adv-x="315" 
d="M226 107h63v-107h-256v107h63v290h-63v107h193v-397zM76 772h121l129 -187h-106l-83 116l-84 -116h-106z" />
    <glyph glyph-name="ocircumflex" unicode="&#xf4;" horiz-adv-x="626" 
d="M36 252q0 80 34.5 140.5t97 94t145.5 33.5t145.5 -33.5t97 -94t34.5 -140.5t-34.5 -140.5t-97 -94t-145.5 -33.5t-145.5 33.5t-97 94t-34.5 140.5zM456 252q0 68 -38.5 109.5t-104.5 41.5q-65 0 -104 -41.5t-39 -109.5t39 -109.5t104 -41.5q66 0 104.5 41.5t38.5 109.5z
M252 772h121l129 -187h-106l-83 116l-84 -116h-106z" />
    <glyph glyph-name="ucircumflex" unicode="&#xfb;" horiz-adv-x="652" 
d="M563 107h63v-107h-186v70q-18 -40 -62 -63t-106 -23q-94 0 -142.5 51.5t-48.5 160.5v201h-63v107h193v-288q0 -116 104 -116q57 0 87.5 29.5t30.5 80.5v187h-72v107h202v-397zM241 772h121l129 -187h-106l-83 116l-84 -116h-106z" />
    <glyph glyph-name="wcircumflex" unicode="&#x175;" horiz-adv-x="868" 
d="M66 397h-53v107h254v-105h-71l86 -241l109 346h102l109 -346l88 241h-72v105h237v-107h-52l-152 -397h-114l-103 311l-103 -311h-114zM375 772h121l129 -187h-106l-83 116l-84 -116h-106z" />
    <glyph glyph-name="ycircumflex" unicode="&#x177;" horiz-adv-x="621" 
d="M66 397h-55v107h263v-105h-71l112 -270l114 270h-72v105h252v-107h-55l-182 -406q-36 -81 -74.5 -133.5t-86 -77.5t-110.5 -25q-33 0 -59 7t-44 18l38 102q11 -4 26.5 -8t35.5 -4q42 0 75 21.5t58 68.5l16 31zM248 772h121l129 -187h-106l-83 116l-84 -116h-106z" />
    <glyph glyph-name="atilde" unicode="&#xe3;" horiz-adv-x="672" 
d="M576 107h63v-107h-186v85q-23 -47 -69 -74t-109 -27q-71 0 -125 33.5t-84 94t-30 141.5q0 79 30 139t84 94t125 34q61 0 105.5 -27t65.5 -72v83h193v-107h-63v-290zM413.5 362q-37.5 41 -102.5 41q-64 0 -102.5 -41t-38.5 -110t38.5 -110t102.5 -41q65 0 102.5 41
t37.5 110t-37.5 110zM174 722.5q27 30.5 73 30.5q23 0 43 -7t51 -29q27 -19 39 -24.5t24 -5.5q17 0 25.5 13t8.5 51h80v-21q0 -69 -26.5 -99.5t-73.5 -30.5q-22 0 -42 7.5t-51 28.5q-27 19 -39.5 25t-24.5 6q-16 0 -25 -13.5t-9 -51.5h-80v21q0 69 27 99.5z" />
    <glyph glyph-name="itilde" unicode="&#x129;" horiz-adv-x="315" 
d="M226 107h63v-107h-256v107h63v290h-63v107h193v-397zM-22 722.5q27 30.5 73 30.5q23 0 43 -7t51 -29q27 -19 39 -24.5t24 -5.5q17 0 25.5 13t8.5 51h80v-21q0 -69 -26.5 -99.5t-73.5 -30.5q-22 0 -42 7.5t-51 28.5q-27 19 -39.5 25t-24.5 6q-16 0 -25 -13.5t-9 -51.5h-80
v21q0 69 27 99.5z" />
    <glyph glyph-name="ntilde" unicode="&#xf1;" horiz-adv-x="671" 
d="M96 397h-63v107h186v-76q21 44 65.5 68t107.5 24q95 0 144.5 -51.5t49.5 -155.5v-206h63v-107h-267v107h74v181q0 115 -109 115q-121 0 -121 -123v-173h74v-107h-267v107h63v290zM176 722.5q27 30.5 73 30.5q23 0 43 -7t51 -29q27 -19 39 -24.5t24 -5.5q17 0 25.5 13
t8.5 51h80v-21q0 -69 -26.5 -99.5t-73.5 -30.5q-22 0 -42 7.5t-51 28.5q-27 19 -39.5 25t-24.5 6q-16 0 -25 -13.5t-9 -51.5h-80v21q0 69 27 99.5z" />
    <glyph glyph-name="otilde" unicode="&#xf5;" horiz-adv-x="626" 
d="M36 252q0 80 34.5 140.5t97 94t145.5 33.5t145.5 -33.5t97 -94t34.5 -140.5t-34.5 -140.5t-97 -94t-145.5 -33.5t-145.5 33.5t-97 94t-34.5 140.5zM456 252q0 68 -38.5 109.5t-104.5 41.5q-65 0 -104 -41.5t-39 -109.5t39 -109.5t104 -41.5q66 0 104.5 41.5t38.5 109.5z
M154 722.5q27 30.5 73 30.5q23 0 43 -7t51 -29q27 -19 39 -24.5t24 -5.5q17 0 25.5 13t8.5 51h80v-21q0 -69 -26.5 -99.5t-73.5 -30.5q-22 0 -42 7.5t-51 28.5q-27 19 -39.5 25t-24.5 6q-16 0 -25 -13.5t-9 -51.5h-80v21q0 69 27 99.5z" />
    <glyph glyph-name="utilde" unicode="&#x169;" horiz-adv-x="652" 
d="M563 107h63v-107h-186v70q-18 -40 -62 -63t-106 -23q-94 0 -142.5 51.5t-48.5 160.5v201h-63v107h193v-288q0 -116 104 -116q57 0 87.5 29.5t30.5 80.5v187h-72v107h202v-397zM143 722.5q27 30.5 73 30.5q23 0 43 -7t51 -29q27 -19 39 -24.5t24 -5.5q17 0 25.5 13t8.5 51
h80v-21q0 -69 -26.5 -99.5t-73.5 -30.5q-22 0 -42 7.5t-51 28.5q-27 19 -39.5 25t-24.5 6q-16 0 -25 -13.5t-9 -51.5h-80v21q0 69 27 99.5z" />
    <glyph glyph-name="uni030C" unicode="&#x30c;" horiz-adv-x="0" 
d="M-190 772h106l84 -115l83 115h106l-129 -187h-121z" />
    <glyph glyph-name="uni030C.cap" horiz-adv-x="0" 
d="M-195 1000h109l86 -100l85 100h109l-134 -167h-121z" />
    <glyph glyph-name="caron" unicode="&#x2c7;" horiz-adv-x="671" 
d="M148 772h106l84 -115l83 115h106l-129 -187h-121z" />
    <glyph glyph-name="uni0315" unicode="&#x315;" horiz-adv-x="0" 
d="M-48 760h108l-15 -240h-93v240z" />
    <glyph glyph-name="uni0315.short" horiz-adv-x="0" 
d="M-48 746h106l-13 -190h-93v190z" />
    <glyph glyph-name="uni0304" unicode="&#x304;" horiz-adv-x="0" 
d="M-150 716h300v-89h-300v89z" />
    <glyph glyph-name="uni0304.cap" horiz-adv-x="0" 
d="M-153 946h306v-87h-306v87z" />
    <glyph glyph-name="uni02C9" unicode="&#x2c9;" horiz-adv-x="671" 
d="M188 716h300v-89h-300v89z" />
    <glyph glyph-name="macron" unicode="&#xaf;" horiz-adv-x="671" 
d="M188 712h300v-89h-300v89z" />
    <glyph glyph-name="Ccaron" unicode="&#x10c;" horiz-adv-x="790" 
d="M738 432h-119v9q0 94 -54.5 147.5t-146.5 53.5q-68 0 -118.5 -31t-78 -88.5t-27.5 -135.5q0 -81 32 -141.5t89 -94t133 -33.5q67 0 123.5 28t90.5 74l89 -91q-48 -64 -130.5 -104.5t-189.5 -40.5q-115 0 -201.5 49.5t-135 139.5t-48.5 211q0 117 43 205.5t120.5 137.5
t181.5 49q81 0 143 -31t92 -90v105h112v-328zM213 1000h109l86 -100l85 100h109l-134 -167h-121z" />
    <glyph glyph-name="Dcaron" unicode="&#x10e;" horiz-adv-x="816" 
d="M123 649h-81v111h315q208 0 311 -101.5t103 -278.5t-103 -278.5t-311 -101.5h-315v111h81v538zM623 380q0 138 -70 202t-203 64h-82v-532h82q133 0 203 64t70 202zM198 1000h109l86 -100l85 100h109l-134 -167h-121z" />
    <glyph glyph-name="Ecaron" unicode="&#x11a;" horiz-adv-x="697" 
d="M123 649h-81v111h610v-226h-115v115h-269v-215h266v-106h-266v-217h268v114h116v-225h-610v111h81v538zM168 1000h109l86 -100l85 100h109l-134 -167h-121z" />
    <glyph glyph-name="Lcaron" unicode="&#x13d;" horiz-adv-x="678" 
d="M123 649h-81v111h334v-111h-107v-534h258v161h118v-276h-603v111h81v538zM455 760h108l-15 -240h-93v240z" />
    <glyph glyph-name="Ncaron" unicode="&#x147;" horiz-adv-x="874" 
d="M760 0h-148l-362 555v-444h102v-111h-310v111h81v538h-81v111h229l361 -550v439h-102v111h311v-111h-81v-649zM246 1000h109l86 -100l85 100h109l-134 -167h-121z" />
    <glyph glyph-name="Rcaron" unicode="&#x158;" horiz-adv-x="747" 
d="M123 649h-81v111h329q297 0 297 -235q0 -79 -37 -128.5t-98 -74.5l119 -211h79v-111h-178l-156 292h-24h-107v-181h100v-111h-324v111h81v538zM523 525q0 67 -41.5 97t-125.5 30h-90v-253h95q80 0 121 30.5t41 95.5zM165 1000h109l86 -100l85 100h109l-134 -167h-121z
" />
    <glyph glyph-name="Scaron" unicode="&#x160;" horiz-adv-x="696" 
d="M49 259h110v-14q0 -42 25 -75t69 -51.5t100 -18.5q74 0 115 25.5t41 72.5q0 49 -37 75.5t-131 42.5l-55 9q-227 40 -227 229q0 66 33.5 116t92 78t133.5 28q70 0 123 -23.5t82 -63.5v71h105v-255h-110v11q0 64 -46.5 103.5t-120.5 39.5q-67 0 -104.5 -26.5t-37.5 -71.5
q0 -44 35 -72t126 -45l49 -8q125 -22 182.5 -76t57.5 -151q0 -69 -33 -119.5t-92.5 -78t-140.5 -27.5q-79 0 -142 23t-96 67v-74h-106v259zM151 1000h109l86 -100l85 100h109l-134 -167h-121z" />
    <glyph glyph-name="Tcaron" unicode="&#x164;" horiz-adv-x="758" 
d="M306 649h-157v-137h-116v248h691v-248h-115v137h-158v-538h102v-111h-348v111h101v538zM184 1000h109l86 -100l85 100h109l-134 -167h-121z" />
    <glyph glyph-name="Zcaron" unicode="&#x17d;" horiz-adv-x="671" 
d="M460 650h-314v-143h-116v253h607v-107l-435 -543h328v151h116v-261h-620v107zM138 1000h109l86 -100l85 100h109l-134 -167h-121z" />
    <glyph glyph-name="Amacron" unicode="&#x100;" horiz-adv-x="820" 
d="M322 760h175l244 -649h67v-111h-316v108h99l-47 132h-282l-48 -132h95v-108h-297v111h68zM297 338h211l-105 292zM257 946h306v-87h-306v87z" />
    <glyph glyph-name="Emacron" unicode="&#x112;" horiz-adv-x="697" 
d="M123 649h-81v111h610v-226h-115v115h-269v-215h266v-106h-266v-217h268v114h116v-225h-610v111h81v538zM210 946h306v-87h-306v87z" />
    <glyph glyph-name="Imacron" unicode="&#x12a;" horiz-adv-x="392" 
d="M123 649h-81v111h308v-111h-81v-538h81v-111h-308v111h81v538zM43 946h306v-87h-306v87z" />
    <glyph glyph-name="Omacron" unicode="&#x14c;" horiz-adv-x="866" 
d="M46 380q0 118 48 207t135 139t204 50t204 -50t135 -139t48 -207q0 -117 -48 -206.5t-135 -139.5t-204 -50t-204 50t-135 139.5t-48 206.5zM672 380q0 78 -29 137t-82.5 92t-127.5 33q-73 0 -127 -33t-83.5 -92t-29.5 -137t29.5 -137t83.5 -92t127 -33q74 0 127.5 33
t82.5 92t29 137zM280 946h306v-87h-306v87z" />
    <glyph glyph-name="Umacron" unicode="&#x16a;" horiz-adv-x="805" 
d="M243 280q0 -79 41.5 -120.5t120.5 -41.5t120.5 41.5t41.5 120.5v369h-98v111h320v-111h-81v-356q0 -148 -75 -228.5t-229 -80.5t-230 80.5t-76 228.5v356h-81v111h323v-111h-97v-369zM250 946h306v-87h-306v87z" />
    <glyph glyph-name="ccaron" unicode="&#x10d;" horiz-adv-x="556" 
d="M511 284h-102v12q0 47 -29 77.5t-82 30.5q-61 0 -94.5 -40.5t-33.5 -106.5q0 -71 42.5 -114t109.5 -43q48 0 78 17t48 38l74 -81q-34 -40 -89 -65t-121 -25q-86 0 -148 33.5t-95 94.5t-33 144q0 78 28.5 137.5t80.5 93t122 33.5q54 0 92.5 -21.5t57.5 -53.5v59h94v-220z
M109 772h106l84 -115l83 115h106l-129 -187h-121z" />
    <glyph glyph-name="dcaron" unicode="&#x10f;" horiz-adv-x="752" 
d="M576 107h63v-107h-186v84q-23 -46 -68.5 -73t-110.5 -27q-71 0 -124.5 33.5t-83.5 94t-30 141.5q0 79 30 139t83.5 94t124.5 34q61 0 105.5 -26t66.5 -70v259h-80v107h210v-683zM413.5 362q-37.5 41 -102.5 41q-64 0 -102.5 -41t-38.5 -110t38.5 -110t102.5 -41
q65 0 102.5 41t37.5 110t-37.5 110zM648 790h108l-15 -240h-93v240z" />
    <glyph glyph-name="ecaron" unicode="&#x11b;" horiz-adv-x="572" 
d="M320 -16q-89 0 -152.5 34t-97.5 95t-34 140q0 83 32.5 142.5t90.5 92t136 32.5q112 0 176 -66t64 -180q0 -10 -1 -25.5t-3 -26.5h-359q7 -57 48 -92t112 -35q44 0 77 14.5t53 37.5l71 -82q-34 -37 -89 -59t-124 -22zM297 416q-51 0 -85 -30.5t-40 -79.5h238
q-5 49 -33 79.5t-80 30.5zM107 772h106l84 -115l83 115h106l-129 -187h-121z" />
    <glyph glyph-name="lcaron" unicode="&#x13e;" horiz-adv-x="399" 
d="M223 107h62v-107h-255v107h63v576h-65v107h195v-683zM295 790h108l-15 -240h-93v240z" />
    <glyph glyph-name="ncaron" unicode="&#x148;" horiz-adv-x="671" 
d="M96 397h-63v107h186v-76q21 44 65.5 68t107.5 24q95 0 144.5 -51.5t49.5 -155.5v-206h63v-107h-267v107h74v181q0 115 -109 115q-121 0 -121 -123v-173h74v-107h-267v107h63v290zM145 772h106l84 -115l83 115h106l-129 -187h-121z" />
    <glyph glyph-name="rcaron" unicode="&#x159;" horiz-adv-x="439" 
d="M96 397h-63v107h186v-93q16 50 60.5 75t93.5 25q15 0 26.5 -2t21.5 -5v-117q-7 3 -20 4.5t-27 1.5q-64 0 -106 -34.5t-42 -103.5v-148h99v-107h-292v107h63v290zM46 772h106l84 -115l83 115h106l-129 -187h-121z" />
    <glyph glyph-name="scaron" unicode="&#x161;" horiz-adv-x="538" 
d="M45 175h98v-7q0 -40 32.5 -66t94.5 -26q43 0 68.5 12.5t25.5 43.5q0 30 -28 43.5t-97 26.5l-35 6q-88 17 -125.5 58t-37.5 99q0 73 53 114t138 41q52 0 91 -17t59 -44v45h95v-173h-97v9q0 41 -29.5 64.5t-83.5 23.5q-39 0 -66 -13.5t-27 -45.5q0 -26 25 -39.5t97 -26.5
l40 -6q86 -15 123.5 -53.5t37.5 -103.5q0 -76 -52 -116t-139 -40q-53 0 -97 17t-67 49v-50h-97v175zM74 772h106l84 -115l83 115h106l-129 -187h-121z" />
    <glyph glyph-name="tcaron" unicode="&#x165;" horiz-adv-x="426" 
d="M100 397h-84v107h84v121l130 31v-152h140v-107h-140v-203q0 -90 78 -90q18 0 35 5.5t28 13.5l40 -94q-18 -15 -51 -26.5t-75 -11.5q-88 0 -136.5 48.5t-48.5 145.5v212zM295 761h106l-13 -190h-93v190z" />
    <glyph glyph-name="zcaron" unicode="&#x17e;" horiz-adv-x="523" 
d="M320 407h-186v-81h-100v178h442v-93l-287 -315h202v92h100v-188h-459v92zM65 772h106l84 -115l83 115h106l-129 -187h-121z" />
    <glyph glyph-name="amacron" unicode="&#x101;" horiz-adv-x="672" 
d="M576 107h63v-107h-186v85q-23 -47 -69 -74t-109 -27q-71 0 -125 33.5t-84 94t-30 141.5q0 79 30 139t84 94t125 34q61 0 105.5 -27t65.5 -72v83h193v-107h-63v-290zM413.5 362q-37.5 41 -102.5 41q-64 0 -102.5 -41t-38.5 -110t38.5 -110t102.5 -41q65 0 102.5 41
t37.5 110t-37.5 110zM183 716h300v-89h-300v89z" />
    <glyph glyph-name="emacron" unicode="&#x113;" horiz-adv-x="572" 
d="M320 -16q-89 0 -152.5 34t-97.5 95t-34 140q0 83 32.5 142.5t90.5 92t136 32.5q112 0 176 -66t64 -180q0 -10 -1 -25.5t-3 -26.5h-359q7 -57 48 -92t112 -35q44 0 77 14.5t53 37.5l71 -82q-34 -37 -89 -59t-124 -22zM297 416q-51 0 -85 -30.5t-40 -79.5h238
q-5 49 -33 79.5t-80 30.5zM147 716h300v-89h-300v89z" />
    <glyph glyph-name="imacron" unicode="&#x12b;" horiz-adv-x="315" 
d="M226 107h63v-107h-256v107h63v290h-63v107h193v-397zM-13 716h300v-89h-300v89z" />
    <glyph glyph-name="omacron" unicode="&#x14d;" horiz-adv-x="626" 
d="M36 252q0 80 34.5 140.5t97 94t145.5 33.5t145.5 -33.5t97 -94t34.5 -140.5t-34.5 -140.5t-97 -94t-145.5 -33.5t-145.5 33.5t-97 94t-34.5 140.5zM456 252q0 68 -38.5 109.5t-104.5 41.5q-65 0 -104 -41.5t-39 -109.5t39 -109.5t104 -41.5q66 0 104.5 41.5t38.5 109.5z
M163 716h300v-89h-300v89z" />
    <glyph glyph-name="umacron" unicode="&#x16b;" horiz-adv-x="652" 
d="M563 107h63v-107h-186v70q-18 -40 -62 -63t-106 -23q-94 0 -142.5 51.5t-48.5 160.5v201h-63v107h193v-288q0 -116 104 -116q57 0 87.5 29.5t30.5 80.5v187h-72v107h202v-397zM152 716h300v-89h-300v89z" />
    <glyph glyph-name="uni0308" unicode="&#x308;" horiz-adv-x="0" 
d="M-98 740q31 0 48.5 -19t17.5 -46q0 -28 -17.5 -46.5t-48.5 -18.5t-49 18.5t-18 46.5q0 27 18 46t49 19zM98 740q32 0 49.5 -19t17.5 -46q0 -28 -17.5 -46.5t-49.5 -18.5q-31 0 -48.5 18.5t-17.5 46.5q0 27 17.5 46t48.5 19z" />
    <glyph glyph-name="uni0308.cap" horiz-adv-x="0" 
d="M-173 906q0 29 19 48.5t51 19.5t51 -19.5t19 -48.5q0 -28 -19 -47.5t-51 -19.5t-51 19.5t-19 47.5zM33 906q0 29 19 48.5t51 19.5t51 -19.5t19 -48.5q0 -28 -19 -47.5t-51 -19.5t-51 19.5t-19 47.5z" />
    <glyph glyph-name="dieresis" unicode="&#xa8;" horiz-adv-x="671" 
d="M239 740q31 0 48.5 -19t17.5 -46q0 -28 -17.5 -46.5t-48.5 -18.5t-49 18.5t-18 46.5q0 27 18 46t49 19zM435 740q32 0 49.5 -19t17.5 -46q0 -28 -17.5 -46.5t-49.5 -18.5q-31 0 -48.5 18.5t-17.5 46.5q0 27 17.5 46t48.5 19z" />
    <glyph glyph-name="uni0306" unicode="&#x306;" horiz-adv-x="0" 
d="M-180 760v2h87v-2q0 -43 25 -68t68 -25q44 0 68.5 25t24.5 70h87q0 -81 -46 -128t-134 -47q-86 0 -133 47t-47 126z" />
    <glyph glyph-name="uni0306.cap" horiz-adv-x="0" 
d="M0 826q-85 0 -135 46.5t-53 122.5v2h87v-2q2 -40 28.5 -65t72.5 -25t72.5 25.5t28.5 66.5h87q-3 -77 -52.5 -124t-135.5 -47z" />
    <glyph glyph-name="breve" unicode="&#x2d8;" horiz-adv-x="671" 
d="M157 760v2h87v-2q0 -43 25 -68t68 -25q44 0 68.5 25t24.5 70h87q0 -81 -46 -128t-134 -47q-86 0 -133 47t-47 126z" />
    <glyph glyph-name="Adieresis" unicode="&#xc4;" horiz-adv-x="820" 
d="M322 760h175l244 -649h67v-111h-316v108h99l-47 132h-282l-48 -132h95v-108h-297v111h68zM297 338h211l-105 292zM237 906q0 29 19 48.5t51 19.5t51 -19.5t19 -48.5q0 -28 -19 -47.5t-51 -19.5t-51 19.5t-19 47.5zM443 906q0 29 19 48.5t51 19.5t51 -19.5t19 -48.5
q0 -28 -19 -47.5t-51 -19.5t-51 19.5t-19 47.5z" />
    <glyph glyph-name="Edieresis" unicode="&#xcb;" horiz-adv-x="697" 
d="M123 649h-81v111h610v-226h-115v115h-269v-215h266v-106h-266v-217h268v114h116v-225h-610v111h81v538zM190 906q0 29 19 48.5t51 19.5t51 -19.5t19 -48.5q0 -28 -19 -47.5t-51 -19.5t-51 19.5t-19 47.5zM396 906q0 29 19 48.5t51 19.5t51 -19.5t19 -48.5
q0 -28 -19 -47.5t-51 -19.5t-51 19.5t-19 47.5z" />
    <glyph glyph-name="Idieresis" unicode="&#xcf;" horiz-adv-x="392" 
d="M123 649h-81v111h308v-111h-81v-538h81v-111h-308v111h81v538zM23 906q0 29 19 48.5t51 19.5t51 -19.5t19 -48.5q0 -28 -19 -47.5t-51 -19.5t-51 19.5t-19 47.5zM229 906q0 29 19 48.5t51 19.5t51 -19.5t19 -48.5q0 -28 -19 -47.5t-51 -19.5t-51 19.5t-19 47.5z" />
    <glyph glyph-name="Odieresis" unicode="&#xd6;" horiz-adv-x="866" 
d="M46 380q0 118 48 207t135 139t204 50t204 -50t135 -139t48 -207q0 -117 -48 -206.5t-135 -139.5t-204 -50t-204 50t-135 139.5t-48 206.5zM672 380q0 78 -29 137t-82.5 92t-127.5 33q-73 0 -127 -33t-83.5 -92t-29.5 -137t29.5 -137t83.5 -92t127 -33q74 0 127.5 33
t82.5 92t29 137zM260 906q0 29 19 48.5t51 19.5t51 -19.5t19 -48.5q0 -28 -19 -47.5t-51 -19.5t-51 19.5t-19 47.5zM466 906q0 29 19 48.5t51 19.5t51 -19.5t19 -48.5q0 -28 -19 -47.5t-51 -19.5t-51 19.5t-19 47.5z" />
    <glyph glyph-name="Udieresis" unicode="&#xdc;" horiz-adv-x="805" 
d="M243 280q0 -79 41.5 -120.5t120.5 -41.5t120.5 41.5t41.5 120.5v369h-98v111h320v-111h-81v-356q0 -148 -75 -228.5t-229 -80.5t-230 80.5t-76 228.5v356h-81v111h323v-111h-97v-369zM230 906q0 29 19 48.5t51 19.5t51 -19.5t19 -48.5q0 -28 -19 -47.5t-51 -19.5
t-51 19.5t-19 47.5zM436 906q0 29 19 48.5t51 19.5t51 -19.5t19 -48.5q0 -28 -19 -47.5t-51 -19.5t-51 19.5t-19 47.5z" />
    <glyph glyph-name="Wdieresis" unicode="&#x1e84;" horiz-adv-x="1122" 
d="M79 649h-68v111h317v-109h-99l111 -468l159 519h133l158 -525l112 474h-99v109h308v-111h-69l-175 -649h-159l-148 515l-147 -515h-159zM393 906q0 29 19 48.5t51 19.5t51 -19.5t19 -48.5q0 -28 -19 -47.5t-51 -19.5t-51 19.5t-19 47.5zM599 906q0 29 19 48.5t51 19.5
t51 -19.5t19 -48.5q0 -28 -19 -47.5t-51 -19.5t-51 19.5t-19 47.5z" />
    <glyph glyph-name="Ydieresis" unicode="&#x178;" horiz-adv-x="759" 
d="M452 297v-186h92v-111h-328v111h92v188l-236 350h-66v111h316v-109h-95l160 -238l158 238h-95v109h304v-111h-66zM209 906q0 29 19 48.5t51 19.5t51 -19.5t19 -48.5q0 -28 -19 -47.5t-51 -19.5t-51 19.5t-19 47.5zM415 906q0 29 19 48.5t51 19.5t51 -19.5t19 -48.5
q0 -28 -19 -47.5t-51 -19.5t-51 19.5t-19 47.5z" />
    <glyph glyph-name="Abreve" unicode="&#x102;" horiz-adv-x="820" 
d="M322 760h175l244 -649h67v-111h-316v108h99l-47 132h-282l-48 -132h95v-108h-297v111h68zM297 338h211l-105 292zM410 826q-85 0 -135 46.5t-53 122.5v2h87v-2q2 -40 28.5 -65t72.5 -25t72.5 25.5t28.5 66.5h87q-3 -77 -52.5 -124t-135.5 -47z" />
    <glyph glyph-name="Gbreve" unicode="&#x11e;" horiz-adv-x="842" 
d="M775 0h-108v98q-31 -50 -94.5 -82t-152.5 -32q-110 0 -194.5 50t-132 140t-47.5 209q0 116 44 204.5t124.5 138.5t187.5 50q84 0 149 -30t95 -84v98h112v-292h-118v8q0 40 -23 80.5t-68.5 67.5t-115.5 27q-75 0 -129 -34t-82.5 -94.5t-28.5 -141.5q0 -82 29 -144
t85 -96.5t137 -34.5q65 0 114.5 23t77.5 63.5t29 93.5h-216v104h326v-390zM423 826q-85 0 -135 46.5t-53 122.5v2h87v-2q2 -40 28.5 -65t72.5 -25t72.5 25.5t28.5 66.5h87q-3 -77 -52.5 -124t-135.5 -47z" />
    <glyph glyph-name="adieresis" unicode="&#xe4;" horiz-adv-x="672" 
d="M576 107h63v-107h-186v85q-23 -47 -69 -74t-109 -27q-71 0 -125 33.5t-84 94t-30 141.5q0 79 30 139t84 94t125 34q61 0 105.5 -27t65.5 -72v83h193v-107h-63v-290zM413.5 362q-37.5 41 -102.5 41q-64 0 -102.5 -41t-38.5 -110t38.5 -110t102.5 -41q65 0 102.5 41
t37.5 110t-37.5 110zM235 740q31 0 48.5 -19t17.5 -46q0 -28 -17.5 -46.5t-48.5 -18.5t-49 18.5t-18 46.5q0 27 18 46t49 19zM431 740q32 0 49.5 -19t17.5 -46q0 -28 -17.5 -46.5t-49.5 -18.5q-31 0 -48.5 18.5t-17.5 46.5q0 27 17.5 46t48.5 19z" />
    <glyph glyph-name="edieresis" unicode="&#xeb;" horiz-adv-x="572" 
d="M320 -16q-89 0 -152.5 34t-97.5 95t-34 140q0 83 32.5 142.5t90.5 92t136 32.5q112 0 176 -66t64 -180q0 -10 -1 -25.5t-3 -26.5h-359q7 -57 48 -92t112 -35q44 0 77 14.5t53 37.5l71 -82q-34 -37 -89 -59t-124 -22zM297 416q-51 0 -85 -30.5t-40 -79.5h238
q-5 49 -33 79.5t-80 30.5zM199 740q31 0 48.5 -19t17.5 -46q0 -28 -17.5 -46.5t-48.5 -18.5t-49 18.5t-18 46.5q0 27 18 46t49 19zM395 740q32 0 49.5 -19t17.5 -46q0 -28 -17.5 -46.5t-49.5 -18.5q-31 0 -48.5 18.5t-17.5 46.5q0 27 17.5 46t48.5 19z" />
    <glyph glyph-name="idieresis" unicode="&#xef;" horiz-adv-x="315" 
d="M226 107h63v-107h-256v107h63v290h-63v107h193v-397zM39 740q31 0 48.5 -19t17.5 -46q0 -28 -17.5 -46.5t-48.5 -18.5t-49 18.5t-18 46.5q0 27 18 46t49 19zM235 740q32 0 49.5 -19t17.5 -46q0 -28 -17.5 -46.5t-49.5 -18.5q-31 0 -48.5 18.5t-17.5 46.5q0 27 17.5 46
t48.5 19z" />
    <glyph glyph-name="odieresis" unicode="&#xf6;" horiz-adv-x="626" 
d="M36 252q0 80 34.5 140.5t97 94t145.5 33.5t145.5 -33.5t97 -94t34.5 -140.5t-34.5 -140.5t-97 -94t-145.5 -33.5t-145.5 33.5t-97 94t-34.5 140.5zM456 252q0 68 -38.5 109.5t-104.5 41.5q-65 0 -104 -41.5t-39 -109.5t39 -109.5t104 -41.5q66 0 104.5 41.5t38.5 109.5z
M215 740q31 0 48.5 -19t17.5 -46q0 -28 -17.5 -46.5t-48.5 -18.5t-49 18.5t-18 46.5q0 27 18 46t49 19zM411 740q32 0 49.5 -19t17.5 -46q0 -28 -17.5 -46.5t-49.5 -18.5q-31 0 -48.5 18.5t-17.5 46.5q0 27 17.5 46t48.5 19z" />
    <glyph glyph-name="udieresis" unicode="&#xfc;" horiz-adv-x="652" 
d="M563 107h63v-107h-186v70q-18 -40 -62 -63t-106 -23q-94 0 -142.5 51.5t-48.5 160.5v201h-63v107h193v-288q0 -116 104 -116q57 0 87.5 29.5t30.5 80.5v187h-72v107h202v-397zM204 740q31 0 48.5 -19t17.5 -46q0 -28 -17.5 -46.5t-48.5 -18.5t-49 18.5t-18 46.5
q0 27 18 46t49 19zM400 740q32 0 49.5 -19t17.5 -46q0 -28 -17.5 -46.5t-49.5 -18.5q-31 0 -48.5 18.5t-17.5 46.5q0 27 17.5 46t48.5 19z" />
    <glyph glyph-name="wdieresis" unicode="&#x1e85;" horiz-adv-x="868" 
d="M66 397h-53v107h254v-105h-71l86 -241l109 346h102l109 -346l88 241h-72v105h237v-107h-52l-152 -397h-114l-103 311l-103 -311h-114zM338 740q31 0 48.5 -19t17.5 -46q0 -28 -17.5 -46.5t-48.5 -18.5t-49 18.5t-18 46.5q0 27 18 46t49 19zM534 740q32 0 49.5 -19
t17.5 -46q0 -28 -17.5 -46.5t-49.5 -18.5q-31 0 -48.5 18.5t-17.5 46.5q0 27 17.5 46t48.5 19z" />
    <glyph glyph-name="ydieresis" unicode="&#xff;" horiz-adv-x="621" 
d="M66 397h-55v107h263v-105h-71l112 -270l114 270h-72v105h252v-107h-55l-182 -406q-36 -81 -74.5 -133.5t-86 -77.5t-110.5 -25q-33 0 -59 7t-44 18l38 102q11 -4 26.5 -8t35.5 -4q42 0 75 21.5t58 68.5l16 31zM211 740q31 0 48.5 -19t17.5 -46q0 -28 -17.5 -46.5
t-48.5 -18.5t-49 18.5t-18 46.5q0 27 18 46t49 19zM407 740q32 0 49.5 -19t17.5 -46q0 -28 -17.5 -46.5t-49.5 -18.5q-31 0 -48.5 18.5t-17.5 46.5q0 27 17.5 46t48.5 19z" />
    <glyph glyph-name="abreve" unicode="&#x103;" horiz-adv-x="672" 
d="M576 107h63v-107h-186v85q-23 -47 -69 -74t-109 -27q-71 0 -125 33.5t-84 94t-30 141.5q0 79 30 139t84 94t125 34q61 0 105.5 -27t65.5 -72v83h193v-107h-63v-290zM413.5 362q-37.5 41 -102.5 41q-64 0 -102.5 -41t-38.5 -110t38.5 -110t102.5 -41q65 0 102.5 41
t37.5 110t-37.5 110zM153 760v2h87v-2q0 -43 25 -68t68 -25q44 0 68.5 25t24.5 70h87q0 -81 -46 -128t-134 -47q-86 0 -133 47t-47 126z" />
    <glyph glyph-name="gbreve" unicode="&#x11f;" horiz-adv-x="657" 
d="M576 37q0 -139 -73.5 -210.5t-220.5 -71.5q-136 0 -222 60l51 100q34 -21 72 -33t93 -12q82 0 126 42t44 121v43q-24 -40 -67.5 -63.5t-102.5 -23.5q-72 0 -126 33.5t-84 93t-30 137.5q0 81 31 141t85.5 93t123.5 33q62 0 109 -27t68 -74v85h186v-107h-63v-360zM311 403
q-66 0 -103.5 -42t-37.5 -109t37.5 -109t103.5 -42q65 0 102.5 41t37.5 110t-37.5 110t-102.5 41zM152 760v2h87v-2q0 -43 25 -68t68 -25q44 0 68.5 25t24.5 70h87q0 -81 -46 -128t-134 -47q-86 0 -133 47t-47 126z" />
    <glyph glyph-name="uni0307" unicode="&#x307;" horiz-adv-x="0" 
d="M0 740q31 0 48.5 -19t17.5 -47q0 -27 -17.5 -45.5t-48.5 -18.5t-48.5 18.5t-17.5 45.5q0 28 17.5 47t48.5 19z" />
    <glyph glyph-name="uni0307.cap" horiz-adv-x="0" 
d="M-70 907q0 28 19 47t51 19t51 -19t19 -47t-19 -47t-51 -19t-51 19t-19 47z" />
    <glyph glyph-name="dotaccent" unicode="&#x2d9;" horiz-adv-x="671" 
d="M338 740q31 0 48.5 -19t17.5 -47q0 -27 -17.5 -45.5t-48.5 -18.5t-48.5 18.5t-17.5 45.5q0 28 17.5 47t48.5 19z" />
    <glyph glyph-name="uni030A" unicode="&#x30a;" horiz-adv-x="0" 
d="M-125 692q0 55 35 87.5t90 32.5q56 0 90.5 -32.5t34.5 -87.5q0 -54 -34.5 -87t-90.5 -33q-55 0 -90 33t-35 87zM57 692q0 26 -15.5 41.5t-41.5 15.5q-25 0 -41 -15.5t-16 -41.5t16 -41.5t41 -15.5q26 0 41.5 15.5t15.5 41.5z" />
    <glyph glyph-name="uni030A.cap" horiz-adv-x="0" 
d="M-122 934q0 53 33.5 84t88.5 31t88.5 -31t33.5 -84q0 -52 -33.5 -83.5t-88.5 -31.5t-88.5 32t-33.5 83zM54 934q0 26 -14 40t-40 14q-25 0 -39.5 -14t-14.5 -40q0 -53 54 -53t54 53z" />
    <glyph glyph-name="ring" unicode="&#x2da;" horiz-adv-x="671" 
d="M213 692q0 55 35 87.5t90 32.5q56 0 90.5 -32.5t34.5 -87.5q0 -54 -34.5 -87t-90.5 -33q-55 0 -90 33t-35 87zM395 692q0 26 -15.5 41.5t-41.5 15.5q-25 0 -41 -15.5t-16 -41.5t16 -41.5t41 -15.5q26 0 41.5 15.5t15.5 41.5z" />
    <glyph glyph-name="Edotaccent" unicode="&#x116;" horiz-adv-x="697" 
d="M123 649h-81v111h610v-226h-115v115h-269v-215h266v-106h-266v-217h268v114h116v-225h-610v111h81v538zM293 907q0 28 19 47t51 19t51 -19t19 -47t-19 -47t-51 -19t-51 19t-19 47z" />
    <glyph glyph-name="Idotaccent" unicode="&#x130;" horiz-adv-x="392" 
d="M123 649h-81v111h308v-111h-81v-538h81v-111h-308v111h81v538zM126 907q0 28 19 47t51 19t51 -19t19 -47t-19 -47t-51 -19t-51 19t-19 47z" />
    <glyph glyph-name="Cdotaccent" unicode="&#x10a;" horiz-adv-x="790" 
d="M738 432h-119v9q0 94 -54.5 147.5t-146.5 53.5q-68 0 -118.5 -31t-78 -88.5t-27.5 -135.5q0 -81 32 -141.5t89 -94t133 -33.5q67 0 123.5 28t90.5 74l89 -91q-48 -64 -130.5 -104.5t-189.5 -40.5q-115 0 -201.5 49.5t-135 139.5t-48.5 211q0 117 43 205.5t120.5 137.5
t181.5 49q81 0 143 -31t92 -90v105h112v-328zM338 907q0 28 19 47t51 19t51 -19t19 -47t-19 -47t-51 -19t-51 19t-19 47z" />
    <glyph glyph-name="Gdotaccent" unicode="&#x120;" horiz-adv-x="842" 
d="M775 0h-108v98q-31 -50 -94.5 -82t-152.5 -32q-110 0 -194.5 50t-132 140t-47.5 209q0 116 44 204.5t124.5 138.5t187.5 50q84 0 149 -30t95 -84v98h112v-292h-118v8q0 40 -23 80.5t-68.5 67.5t-115.5 27q-75 0 -129 -34t-82.5 -94.5t-28.5 -141.5q0 -82 29 -144
t85 -96.5t137 -34.5q65 0 114.5 23t77.5 63.5t29 93.5h-216v104h326v-390zM353 907q0 28 19 47t51 19t51 -19t19 -47t-19 -47t-51 -19t-51 19t-19 47z" />
    <glyph glyph-name="Zdotaccent" unicode="&#x17b;" horiz-adv-x="671" 
d="M460 650h-314v-143h-116v253h607v-107l-435 -543h328v151h116v-261h-620v107zM263 907q0 28 19 47t51 19t51 -19t19 -47t-19 -47t-51 -19t-51 19t-19 47z" />
    <glyph glyph-name="Aring" unicode="&#xc5;" horiz-adv-x="820" 
d="M322 760h175l244 -649h67v-111h-316v108h99l-47 132h-282l-48 -132h95v-108h-297v111h68zM297 338h211l-105 292zM288 934q0 53 33.5 84t88.5 31t88.5 -31t33.5 -84q0 -52 -33.5 -83.5t-88.5 -31.5t-88.5 32t-33.5 83zM464 934q0 26 -14 40t-40 14q-25 0 -39.5 -14
t-14.5 -40q0 -53 54 -53t54 53z" />
    <glyph glyph-name="Uring" unicode="&#x16e;" horiz-adv-x="805" 
d="M243 280q0 -79 41.5 -120.5t120.5 -41.5t120.5 41.5t41.5 120.5v369h-98v111h320v-111h-81v-356q0 -148 -75 -228.5t-229 -80.5t-230 80.5t-76 228.5v356h-81v111h323v-111h-97v-369zM281 934q0 53 33.5 84t88.5 31t88.5 -31t33.5 -84q0 -52 -33.5 -83.5t-88.5 -31.5
t-88.5 32t-33.5 83zM457 934q0 26 -14 40t-40 14q-25 0 -39.5 -14t-14.5 -40q0 -53 54 -53t54 53z" />
    <glyph glyph-name="edotaccent" unicode="&#x117;" horiz-adv-x="572" 
d="M320 -16q-89 0 -152.5 34t-97.5 95t-34 140q0 83 32.5 142.5t90.5 92t136 32.5q112 0 176 -66t64 -180q0 -10 -1 -25.5t-3 -26.5h-359q7 -57 48 -92t112 -35q44 0 77 14.5t53 37.5l71 -82q-34 -37 -89 -59t-124 -22zM297 416q-51 0 -85 -30.5t-40 -79.5h238
q-5 49 -33 79.5t-80 30.5zM297 740q31 0 48.5 -19t17.5 -47q0 -27 -17.5 -45.5t-48.5 -18.5t-48.5 18.5t-17.5 45.5q0 28 17.5 47t48.5 19z" />
    <glyph glyph-name="cdotaccent" unicode="&#x10b;" horiz-adv-x="556" 
d="M511 284h-102v12q0 47 -29 77.5t-82 30.5q-61 0 -94.5 -40.5t-33.5 -106.5q0 -71 42.5 -114t109.5 -43q48 0 78 17t48 38l74 -81q-34 -40 -89 -65t-121 -25q-86 0 -148 33.5t-95 94.5t-33 144q0 78 28.5 137.5t80.5 93t122 33.5q54 0 92.5 -21.5t57.5 -53.5v59h94v-220z
M299 740q31 0 48.5 -19t17.5 -47q0 -27 -17.5 -45.5t-48.5 -18.5t-48.5 18.5t-17.5 45.5q0 28 17.5 47t48.5 19z" />
    <glyph glyph-name="gdotaccent" unicode="&#x121;" horiz-adv-x="657" 
d="M576 37q0 -139 -73.5 -210.5t-220.5 -71.5q-136 0 -222 60l51 100q34 -21 72 -33t93 -12q82 0 126 42t44 121v43q-24 -40 -67.5 -63.5t-102.5 -23.5q-72 0 -126 33.5t-84 93t-30 137.5q0 81 31 141t85.5 93t123.5 33q62 0 109 -27t68 -74v85h186v-107h-63v-360zM311 403
q-66 0 -103.5 -42t-37.5 -109t37.5 -109t103.5 -42q65 0 102.5 41t37.5 110t-37.5 110t-102.5 41zM332 740q31 0 48.5 -19t17.5 -47q0 -27 -17.5 -45.5t-48.5 -18.5t-48.5 18.5t-17.5 45.5q0 28 17.5 47t48.5 19z" />
    <glyph glyph-name="zdotaccent" unicode="&#x17c;" horiz-adv-x="523" 
d="M320 407h-186v-81h-100v178h442v-93l-287 -315h202v92h100v-188h-459v92zM255 740q31 0 48.5 -19t17.5 -47q0 -27 -17.5 -45.5t-48.5 -18.5t-48.5 18.5t-17.5 45.5q0 28 17.5 47t48.5 19z" />
    <glyph glyph-name="aring" unicode="&#xe5;" horiz-adv-x="672" 
d="M576 107h63v-107h-186v85q-23 -47 -69 -74t-109 -27q-71 0 -125 33.5t-84 94t-30 141.5q0 79 30 139t84 94t125 34q61 0 105.5 -27t65.5 -72v83h193v-107h-63v-290zM413.5 362q-37.5 41 -102.5 41q-64 0 -102.5 -41t-38.5 -110t38.5 -110t102.5 -41q65 0 102.5 41
t37.5 110t-37.5 110zM208 692q0 55 35 87.5t90 32.5q56 0 90.5 -32.5t34.5 -87.5q0 -54 -34.5 -87t-90.5 -33q-55 0 -90 33t-35 87zM390 692q0 26 -15.5 41.5t-41.5 15.5q-25 0 -41 -15.5t-16 -41.5t16 -41.5t41 -15.5q26 0 41.5 15.5t15.5 41.5z" />
    <glyph glyph-name="uring" unicode="&#x16f;" horiz-adv-x="652" 
d="M563 107h63v-107h-186v70q-18 -40 -62 -63t-106 -23q-94 0 -142.5 51.5t-48.5 160.5v201h-63v107h193v-288q0 -116 104 -116q57 0 87.5 29.5t30.5 80.5v187h-72v107h202v-397zM177 692q0 55 35 87.5t90 32.5q56 0 90.5 -32.5t34.5 -87.5q0 -54 -34.5 -87t-90.5 -33
q-55 0 -90 33t-35 87zM359 692q0 26 -15.5 41.5t-41.5 15.5q-25 0 -41 -15.5t-16 -41.5t16 -41.5t41 -15.5q26 0 41.5 15.5t15.5 41.5z" />
    <glyph glyph-name="dollar.rvrn" 
d="M55 268h101v-11q0 -67 48.5 -110.5t129.5 -43.5q63 0 99.5 27.5t36.5 75.5t-35 74.5t-120 42.5l-46 10q-101 20 -154.5 75t-53.5 139q0 94 59 150.5t161 61.5v125h89v-132q40 -10 72.5 -31t51.5 -53v78h92v-250h-102v10q0 68 -41.5 108.5t-115.5 40.5q-64 0 -99 -26.5
t-35 -74.5q0 -43 34.5 -69.5t119.5 -44.5l55 -12q104 -22 153 -75t49 -139q0 -95 -59.5 -151.5t-163.5 -62.5v-124h-89v131q-48 10 -86.5 32.5t-59.5 54.5v-82h-91v256z" />
    <glyph glyph-name="cent.rvrn" 
d="M565 286h-102v11q0 45 -33 72.5t-86 27.5q-58 0 -92.5 -37.5t-34.5 -101.5q0 -67 40 -107t109 -40q45 0 79.5 15t59.5 43l67 -83q-28 -38 -82 -62.5t-116 -27.5v-120h-89v126q-94 18 -148.5 86t-54.5 172q0 71 25 125t71 87t107 40v120h89v-127q72 -20 102 -77v76h89
v-218z" />
    <glyph glyph-name="zero.BRACKET.801" horiz-adv-x="692" 
d="M58 372q0 110 30 198t93.5 139t163.5 51q101 0 164.5 -51t94 -139t30.5 -198t-30.5 -198t-94 -139t-164.5 -51q-100 0 -163.5 51t-93.5 139t-30 198zM494 372q0 127 -34.5 196.5t-114.5 69.5q-79 0 -113.5 -69.5t-34.5 -196.5t34.5 -196.5t113.5 -69.5q80 0 114.5 69.5
t34.5 196.5z" />
    <glyph glyph-name="one.BRACKET.801" horiz-adv-x="692" 
d="M447 113h156v-113h-472v113h180v472l-165 -84l-45 112l252 131h94v-631z" />
    <glyph glyph-name="two.BRACKET.801" horiz-adv-x="692" 
d="M283 324q55 54 86 91.5t44 66.5t13 57q0 46 -32 74.5t-85 28.5q-58 0 -93 -30.5t-43 -87.5l-115 9q6 70 39.5 121t89.5 78.5t129 27.5q75 0 131 -27.5t87 -76t31 -113.5q0 -46 -16 -87t-53.5 -85.5t-101.5 -104.5l-163 -155h267v95h112v-206h-544v107z" />
    <glyph glyph-name="three.BRACKET.801" horiz-adv-x="692" 
d="M439 633h-240v-84h-111v195h498v-106l-192 -182v0q64 0 112.5 -28.5t76 -79t27.5 -117.5q0 -72 -36.5 -128t-100.5 -87.5t-148 -31.5q-88 0 -155.5 32t-105.5 88l84 80q26 -37 72.5 -59.5t100.5 -22.5q70 0 111.5 35t41.5 93q0 59 -35.5 92.5t-94.5 33.5
q-22 0 -42.5 -3.5t-37.5 -13.5l-52 83z" />
    <glyph glyph-name="four.BRACKET.801" horiz-adv-x="692" 
d="M387 744h143v-425h110v-111h-110v-102h98v-106h-337v106h110v102h-358v107zM407 319v279l-225 -279h225z" />
    <glyph glyph-name="five.BRACKET.801" horiz-adv-x="692" 
d="M186 744h370v-115h-278l-35 -197q22 17 58.5 25t80.5 8q67 0 118 -27.5t80 -79t29 -124.5q0 -74 -36 -130.5t-99 -88t-144 -31.5q-91 0 -159 32t-107 88l84 80q60 -82 175 -82q71 0 111 36.5t40 94.5q0 59 -37.5 93.5t-99.5 34.5q-81 0 -129 -48l-94 49z" />
    <glyph glyph-name="six.BRACKET.801" horiz-adv-x="692" 
d="M68 352q0 126 40 217.5t114 141t175 49.5q67 0 128.5 -25.5t101.5 -70.5l-82 -81q-26 26 -65 41t-81 15q-91 0 -142 -65.5t-53 -183.5q23 40 72.5 62.5t106.5 22.5q74 0 129.5 -30.5t86 -85.5t30.5 -128q0 -74 -34.5 -129.5t-96 -86.5t-142.5 -31q-140 0 -214 94.5
t-74 273.5zM493 236q0 59 -38 96t-101 37q-62 0 -100 -37t-38 -96q0 -60 38.5 -97t99.5 -37q62 0 100.5 37t38.5 97z" />
    <glyph glyph-name="seven.BRACKET.801" horiz-adv-x="692" 
d="M332 0h-145l281 628h-272v-103h-119v219h531v-113z" />
    <glyph glyph-name="eight.BRACKET.801" horiz-adv-x="692" 
d="M212 735q58 25 134 25q77 0 134.5 -25t90 -70.5t32.5 -105.5q0 -59 -31 -103.5t-87 -67.5q68 -25 106.5 -74.5t38.5 -115.5q0 -64 -35.5 -112t-99.5 -75t-149 -27t-149 27t-99.5 75t-35.5 112q0 66 38.5 115.5t106.5 74.5q-56 23 -87 67.5t-31 103.5q0 60 32.5 105.5
t90.5 70.5zM449.5 299.5q-41.5 30.5 -103.5 30.5t-103.5 -30.5t-41.5 -85.5t41.5 -85.5t103.5 -30.5t103.5 30.5t41.5 85.5t-41.5 85.5zM439 619q-37 27 -93 27q-55 0 -92.5 -27t-37.5 -77t37.5 -77t92.5 -27q56 0 93 27t37 77t-37 77z" />
    <glyph glyph-name="nine.BRACKET.801" horiz-adv-x="692" 
d="M299 -16q-70 0 -129.5 23.5t-99.5 67.5l82 81q23 -25 60.5 -38t80.5 -13q95 0 145.5 64t50.5 187q-22 -40 -71.5 -63.5t-105.5 -23.5q-76 0 -132 30.5t-86 85t-30 125.5q0 76 34.5 132t95.5 87t142 31q141 0 214.5 -95t73.5 -278q0 -126 -39 -216.5t-111.5 -138.5
t-174.5 -48zM438 604.5q-38 37.5 -100 37.5t-100.5 -37.5t-38.5 -96.5q0 -60 38.5 -96.5t100.5 -36.5t100 36.5t38 96.5q0 59 -38 96.5z" />
    <glyph glyph-name="dotlessquestion" horiz-adv-x="541" 
d="M276 776q70 0 122 -24.5t80.5 -69.5t28.5 -105q0 -34 -9.5 -63t-34 -59t-68.5 -68q-32 -27 -49.5 -46t-24.5 -36t-7 -39q0 -16 2 -28h-112q-4 10 -5 21t-1 24q0 34 8.5 60.5t30 53t59.5 58.5q45 39 61.5 61t16.5 50q0 42 -29.5 67t-79.5 25q-56 0 -89 -30.5t-41 -88.5
l-112 11q10 105 77.5 165.5t175.5 60.5z" />
    <glyph glyph-name="dotlessexclam" horiz-adv-x="310" 
d="M81 760h147l-12 -516h-122z" />
    <glyph glyph-name="dotlessquestiondown" horiz-adv-x="534" 
d="M268 -251q-71 0 -123 25.5t-80.5 71t-28.5 106.5q0 37 11 67.5t36 61t66 67.5q47 42 63.5 68.5t16.5 60.5q0 16 -2 28h113q3 -10 4 -20.5t1 -24.5q0 -51 -20.5 -91t-76.5 -90q-46 -39 -62.5 -63.5t-16.5 -52.5q0 -43 30 -69.5t80 -26.5q56 0 89 31.5t40 90.5l113 -11
q-10 -107 -76.5 -168t-176.5 -61z" />
    <glyph glyph-name="dotlessexclamdown" horiz-adv-x="310" 
d="M93 299h123l12 -534h-147z" />
    <glyph glyph-name="zeropercent" horiz-adv-x="440" 
d="M220 -17q-59 0 -105 26.5t-72.5 72t-26.5 102.5q0 58 26.5 103t72.5 71t105 26t105 -26t72.5 -71t26.5 -103q0 -57 -26.5 -102.5t-72.5 -72t-105 -26.5zM291 258.5q-26 28.5 -71 28.5q-44 0 -70.5 -29t-26.5 -74q0 -46 26 -74.5t71 -28.5t71 28.5t26 74.5t-26 74.5z" />
    <glyph glyph-name="uni0307.i" horiz-adv-x="0" 
d="M-86 680q0 34 21.5 57t64.5 23t64.5 -23t21.5 -57t-21.5 -57t-64.5 -23t-64.5 23t-21.5 57z" />
    <glyph glyph-name="uni0237.alt" horiz-adv-x="315" 
d="M238 -3q0 -114 -55 -173t-153 -59h-30v107h12q41 0 68 26t27 96v403h-66v107h197v-507z" />
    <glyph glyph-name="uni0237.long" horiz-adv-x="315" 
d="M237 -3q0 -118 -54.5 -180t-151.5 -62q-29 0 -58.5 6.5t-48.5 18.5l39 102q22 -12 50 -12q41 0 67.5 27.5t26.5 96.5v403h-124v107h254v-507z" />
    <glyph glyph-name="dotlessi.long" horiz-adv-x="319" 
d="M230 107h63v-107h-270v107h77v290h-124v107h254v-397z" />
    <glyph glyph-name="i.long" horiz-adv-x="319" 
d="M230 107h63v-107h-270v107h77v290h-124v107h254v-397zM64 680q0 34 21.5 57t64.5 23t64.5 -23t21.5 -57t-21.5 -57t-64.5 -23t-64.5 23t-21.5 57z" />
    <glyph glyph-name="j.long" horiz-adv-x="315" 
d="M237 -3q0 -118 -54.5 -180t-151.5 -62q-29 0 -58.5 6.5t-48.5 18.5l39 102q22 -12 50 -12q41 0 67.5 27.5t26.5 96.5v403h-124v107h254v-507zM73 680q0 34 21.5 57t64.5 23t64.5 -23t21.5 -57t-21.5 -57t-64.5 -23t-64.5 23t-21.5 57z" />
    <glyph glyph-name="f.short" horiz-adv-x="373" 
d="M96 397h-63v107h63v82q0 106 50.5 157.5t135.5 51.5q60 0 102 -21l-30 -100q-7 3 -19 6t-26 3q-38 0 -60.5 -25t-22.5 -74v-80h130v-107h-130v-290h78v-107h-271v107h63v290z" />
    <glyph glyph-name="f.short.alt" horiz-adv-x="373" 
d="M226 107h102v-107h-295v107h63v290h-63v107h63v82q0 106 50.5 157.5t135.5 51.5q60 0 102 -21l-30 -100q-7 3 -19 6t-26 3q-38 0 -60.5 -25t-22.5 -74v-80h130v-107h-130v-290z" />
    <glyph glyph-name="uniFB00.short" horiz-adv-x="700" 
d="M96 397h-63v107h63v82q0 105 50.5 157t135.5 52q60 0 102 -21l-30 -100q-7 3 -19 6t-26 3q-38 0 -60.5 -25t-22.5 -72v-82h197v82q0 106 50 157.5t135 51.5q62 0 102 -21l-29 -100q-7 3 -19.5 6t-26.5 3q-38 0 -60 -25t-22 -74v-80h130v-107h-130v-290h77v-107h-270v107
h63v290h-197v-290h62v-107h-255v107h63v290z" />
    <glyph glyph-name="uniFB00.short.alt" horiz-adv-x="700" 
d="M553 107h101v-107h-294v107h63v290h-197v-290h62v-107h-255v107h63v290h-63v107h63v82q0 106 50.5 157.5t135.5 51.5q60 0 102 -21l-30 -100q-7 3 -19 6t-26 3q-38 0 -60.5 -25t-22.5 -72v-82h197v82q0 106 50 157.5t135 51.5q62 0 102 -21l-29 -100q-7 3 -19.5 6
t-26.5 3q-38 0 -60 -25t-22 -74v-80h130v-107h-130v-290z" />
    </font>
</defs>
</svg>
